<svg width="40" height="40" viewBox="0 0 40 40" fill="none" xmlns="http://www.w3.org/2000/svg">
<g clip-path="url(#clip0_782_1024)">
<path d="M39.1696 9.33801C39.1696 9.62301 39.1696 9.908 39.183 10.193C37.6026 10.5051 37.0803 11.4687 37.1339 13.0836C37.2008 14.9158 37.1071 16.775 36.8124 18.58C36.6517 19.5435 35.8749 20.3985 35.4731 21.3485C35.0714 22.2985 34.8437 23.3434 34.4285 24.2934C34.241 24.7277 33.799 25.0398 33.4642 25.4063C33.2499 25.0127 32.9017 24.6463 32.8481 24.2256C32.741 23.4656 32.8214 22.692 32.8214 21.4978C31.174 22.8685 32.433 24.4291 31.8437 25.5691C31.3749 25.8948 30.9062 26.2205 30.1428 26.7498C30.1428 24.6056 30.2365 22.8549 30.0758 21.1178C30.0356 20.6428 29.2723 20.0049 28.7231 19.8285C26.0714 19.0007 25.1339 19.7607 25.1606 22.5427C25.1606 23.0449 25.1606 23.547 25.1606 24.0627C25.1071 26.8448 25.549 27.2926 28.2946 27.1976C28.6562 27.1976 29.0044 27.1434 29.7008 27.0755C28.8303 28.1476 28.1473 28.989 27.4642 29.844C26.0044 31.1333 24.5178 31.7847 22.7231 30.3597C22.3214 30.0476 21.5847 30.1697 21.0089 30.0883C21.1562 30.7804 21.1428 31.554 21.4776 32.1375C21.9062 32.8975 22.7365 33.4268 23.1249 34.2004C23.3124 34.5668 22.8705 35.2589 22.7231 35.8153C22.2946 35.5846 21.6919 35.476 21.4776 35.1096C19.9508 32.6397 19.9776 32.6261 18.4508 35.1096C18.2767 35.3946 18.116 35.7746 17.8615 35.8968C16.8571 36.3989 15.7589 37.2539 14.7812 37.1589C13.5356 37.0367 13.2544 35.6525 13.0937 34.4039C12.9865 33.6032 12.491 32.8704 12.0222 31.744C11.2722 32.6804 10.8169 33.2097 10.4151 33.7932C9.866 34.5939 9.3035 34.8925 8.60707 33.9832C8.29903 32.5311 7.25439 32.9247 6.3035 32.9925C5.82136 33.0332 5.33921 32.9518 4.84368 32.9247C4.72314 32.8432 4.60261 32.7754 4.46868 32.694C4.241 32.6532 4.01332 32.6125 3.79903 32.5718C3.46421 32.1783 3.12939 31.7983 2.79457 31.4047C2.54011 30.6719 2.31243 29.9254 2.01778 29.2062C1.48207 27.9033 1.91064 27.3198 3.26332 27.1976C5.5535 26.9941 6.00886 26.5869 6.39725 24.3206C6.66511 22.787 7.46868 22.0406 9.02225 22.1085C9.69189 22.1356 10.3615 22.1085 11.0178 22.1492C13.8035 22.3663 15.7455 20.8735 17.0714 18.675C18.2097 16.7886 19.7097 15.73 21.7455 15.2008C24.933 14.3729 26.2856 12.6629 26.433 9.3923C26.5267 7.26163 27.0223 6.96306 29.1785 6.78664C30.3571 6.69164 31.5356 6.08094 32.6071 5.49738C33.3169 5.11738 33.8392 4.39811 34.4553 3.82812C37.3347 3.88241 38.0178 4.46597 38.5937 7.30234C38.741 7.99447 38.9687 8.67303 39.1696 9.35158V9.33801Z" fill="#FAFAFA" stroke="#F77B5A" stroke-width="1.3" stroke-linecap="round" stroke-linejoin="round"/>
</g>
<circle cx="14.9684" cy="13.549" r="3.98942" fill="#FAFAFA"/>
<path d="M13 25C13 25 20.5 17.8921 20.5 12.5C20.5 8.35786 17.1421 5 13 5C8.85786 5 5.5 8.35786 5.5 12.5C5.5 17.8921 13 25 13 25ZM13 16.25C10.9289 16.25 9.25 14.5711 9.25 12.5C9.25 10.4289 10.9289 8.75 13 8.75C15.0711 8.75 16.75 10.4289 16.75 12.5C16.75 14.5711 15.0711 16.25 13 16.25Z" fill="#FAFAFA"/>
<path d="M18.2072 16.1747C17.5522 17.5019 16.6656 18.8251 15.7572 20.0126C14.8516 21.1963 13.943 22.221 13.2596 22.9506C13.1688 23.0475 13.0821 23.1391 13 23.2251C12.9179 23.1391 12.8312 23.0475 12.7404 22.9506C12.057 22.221 11.1483 21.1963 10.2428 20.0126C9.33443 18.8251 8.44781 17.5019 7.79279 16.1747C7.13101 14.8338 6.75 13.5774 6.75 12.5C6.75 9.04822 9.54822 6.25 13 6.25C16.4518 6.25 19.25 9.04822 19.25 12.5C19.25 13.5774 18.869 14.8338 18.2072 16.1747ZM13 25C13 25 20.5 17.8921 20.5 12.5C20.5 8.35786 17.1421 5 13 5C8.85786 5 5.5 8.35786 5.5 12.5C5.5 17.8921 13 25 13 25Z" fill="#F77B5A"/>
<path d="M13 15C11.6193 15 10.5 13.8807 10.5 12.5C10.5 11.1193 11.6193 10 13 10C14.3807 10 15.5 11.1193 15.5 12.5C15.5 13.8807 14.3807 15 13 15ZM13 16.25C15.0711 16.25 16.75 14.5711 16.75 12.5C16.75 10.4289 15.0711 8.75 13 8.75C10.9289 8.75 9.25 10.4289 9.25 12.5C9.25 14.5711 10.9289 16.25 13 16.25Z" fill="#F77B5A"/>
<defs>
<clipPath id="clip0_782_1024">
<rect width="39" height="35" fill="white" transform="translate(1 3)"/>
</clipPath>
</defs>
</svg>
