<svg width="40" height="40" viewBox="0 0 40 40" fill="none" xmlns="http://www.w3.org/2000/svg">
<g clip-path="url(#clip0_782_1065)">
<path d="M20.55 12.7204C20.95 12.5904 21.35 12.4604 21.74 12.3204C21.97 12.3404 22.22 12.4204 22.43 12.3704C23.17 12.1904 23.91 12.0004 24.62 11.7604C25.19 11.5704 25.66 11.6704 26.13 11.9804C26.65 12.3204 27.19 12.6204 27.7 12.9704C27.86 13.0804 27.92 13.3204 28.03 13.4904C28.13 13.6504 28.25 13.8104 28.35 13.9704C28.41 14.0104 28.46 14.0404 28.52 14.0804C28.65 14.2804 28.75 14.5304 28.93 14.6504C29.26 14.8804 29.65 15.0304 30.01 15.2204C30.26 15.5404 30.53 15.8304 30.73 16.1804C30.83 16.3504 30.78 16.6004 30.8 16.8204C30.62 16.8204 30.42 16.8504 30.27 16.7804C29.47 16.3904 29.35 16.4204 28.95 17.2304C28.8 17.5504 28.66 17.8704 28.55 18.1204C27.77 17.8004 27.1 17.4704 26.4 17.2504C25.82 17.0704 25.38 17.3404 25.13 17.9104C25.15 18.1104 25.17 18.3104 25.19 18.5204C25.54 19.5204 25.55 20.5504 25.36 21.5604C25.15 22.7004 25.51 23.6204 26.16 24.5004C26.32 24.7204 26.43 25.0504 26.43 25.3304C26.42 26.1904 26.43 27.0204 27.2 27.6104C27.24 27.6404 27.27 27.7004 27.29 27.7504C27.56 28.4204 27.81 29.1004 28.11 29.7604C28.29 30.1504 28.49 30.5504 28.77 30.8604C28.94 31.0504 29.34 31.2204 29.54 31.1404C29.75 31.0704 29.93 30.7004 29.97 30.4304C30.03 30.0804 29.96 29.7004 29.94 29.3304C29.97 29.3104 30.01 29.2804 30.04 29.2604C30.14 29.3904 30.26 29.5004 30.33 29.6404C30.47 29.9304 30.55 30.2404 30.69 30.5204C30.93 30.9704 31.41 31.1404 31.73 30.8504C32.04 30.5704 32.25 30.1804 32.5 29.8304C32.62 29.6604 32.73 29.3204 32.82 29.3304C33.05 29.3504 33.29 29.4904 33.48 29.6504C33.63 29.7704 33.69 29.9904 33.81 30.1504C33.95 30.3304 34.08 30.5304 34.27 30.6504C34.53 30.8304 34.6 31.0004 34.56 31.3304C34.48 31.9604 34.33 32.6004 34.85 33.1704C35.14 33.4904 35.32 33.9304 35.52 34.3304C35.58 34.4604 35.56 34.6304 35.57 34.7804C34.94 35.1104 34.35 35.5404 33.68 35.7404C33.13 35.9104 32.51 35.8104 31.92 35.8404C31.78 35.7704 31.64 35.7104 31.5 35.6404C31.12 35.2804 30.74 34.9104 30.36 34.5504C29.9 34.1104 29.31 33.7904 29.26 33.0304C29.24 32.6704 28.92 32.5204 28.58 32.6304C28.25 32.7304 27.93 32.8704 27.64 33.0404C26.56 33.6604 25.48 33.5004 24.66 32.5704C24.56 32.4504 24.46 32.3104 24.32 32.2404C24.11 32.1404 23.87 32.0904 23.64 32.0204C23.56 32.0204 23.47 32.0204 23.39 32.0104C23.32 31.9604 23.25 31.8604 23.17 31.8604C22.55 31.8404 21.92 31.8304 21.3 31.8404C21.19 31.8404 21.07 31.9504 20.96 32.0104C20.63 32.2104 20.31 32.4204 19.98 32.6204C19.4 32.9904 19.23 33.6304 18.95 34.2004C18.83 34.2604 18.68 34.3004 18.59 34.3904C18.2 34.7704 17.78 35.0904 17.21 35.1304C16.97 35.2704 16.72 35.4104 16.48 35.5604C15.75 36.0204 15.1 35.8104 14.77 35.0204C14.74 34.9404 14.71 34.8704 14.67 34.8004C14.56 33.2604 13.93 32.6404 12.39 32.4404C12.11 32.4004 11.68 32.4904 11.6 32.0204C11.64 31.8804 11.67 31.7304 11.71 31.5904C11.77 31.5304 11.82 31.4704 11.88 31.4104C12.44 30.9804 12.55 30.7504 12.26 30.2304C12.03 29.8204 12.15 29.5804 12.44 29.3004C12.79 28.9604 12.76 28.8104 12.35 28.5304C11.77 28.1304 11.71 27.6404 12.18 27.1104C12.52 26.7404 12.48 26.6404 11.97 26.5204C11.48 26.4004 11.34 26.2104 11.37 25.7004C11.39 25.6304 11.41 25.5604 11.43 25.5004L11.46 25.3704C11.46 25.3704 11.5 25.2804 11.51 25.2404C11.52 25.1704 11.53 25.1004 11.54 25.0304C11.56 24.9804 11.58 24.9404 11.6 24.8904C11.6 24.8404 11.62 24.7904 11.62 24.7404C11.62 24.6404 11.62 24.5404 11.62 24.4504C11.55 24.1704 11.67 24.0004 11.92 23.8604C12.05 23.7804 12.21 23.6204 12.22 23.4804C12.26 23.0104 12.23 22.5304 12.23 22.0204H10.88C10.92 21.4004 10.96 20.7504 11 20.0904C11.06 20.0604 11.11 20.0404 11.17 20.0104C11.19 20.0604 11.21 20.1204 11.23 20.1704C11.24 20.2004 11.26 20.2304 11.27 20.2604C11.51 20.3304 11.77 20.4904 12 20.4604C12.31 20.4204 12.33 20.1104 12.31 19.8404C12.31 19.7404 12.32 19.6404 12.32 19.5404C12.32 19.1504 12 18.8904 11.64 19.0404C11.43 19.1304 11.27 19.3404 11.09 19.4904C11.03 19.4304 10.97 19.3704 10.9 19.3104C10.9 18.7104 10.67 18.5304 9.94997 18.6304C9.79997 18.6504 9.58997 18.7704 9.55997 18.8904C9.50997 19.0404 9.55997 19.2804 9.66997 19.3904C9.78997 19.5204 10.03 19.5404 10.2 19.6504C10.31 19.7204 10.44 19.8304 10.47 19.9504C10.49 20.0404 10.37 20.2504 10.31 20.2504C10.18 20.2504 10.06 20.1404 9.91997 20.0904C9.75997 20.0304 9.58997 19.9904 9.41997 19.9404C9.38997 20.0904 9.32997 20.2404 9.32997 20.3904C9.32997 20.5404 9.40997 20.7004 9.44997 20.8504C9.55997 21.3004 9.73997 21.7404 9.48997 22.2004V22.3504C9.48997 22.4404 9.48997 22.5304 9.48997 22.6204C9.38997 22.4504 9.29997 22.2704 9.19997 22.1004L9.17997 22.0704C9.17997 22.0704 9.11997 22.0304 9.08997 22.0104C8.99997 22.0904 8.86997 22.1504 8.83997 22.2504C8.79997 22.3804 8.82997 22.5304 8.83997 22.6804C8.83997 22.8904 8.85997 23.1104 8.56997 23.1204C8.24997 23.1304 8.31997 22.8904 8.28997 22.7004C8.24997 22.4504 8.17997 22.2104 8.12997 21.9704C8.00997 21.4604 7.75997 21.0604 7.22997 20.8704C7.15997 20.8404 7.12997 20.7104 7.07997 20.6204C7.13997 20.4204 7.19997 20.2104 7.25997 20.0104C7.53997 19.5804 7.51997 19.4304 7.12997 19.2104C6.51997 18.8604 6.46997 18.7204 6.63997 18.0104C6.66997 17.8804 6.60997 17.7304 6.58997 17.5904C6.44997 17.6604 6.28997 17.7004 6.18997 17.8004C5.99997 18.0104 5.85997 18.2704 5.66997 18.4904C5.36997 18.8304 4.90997 18.9004 4.57997 18.6704C4.34997 18.5104 4.28997 18.3404 4.55997 18.1704C4.79997 18.0104 5.04997 17.8604 5.28997 17.7104C5.61997 17.5104 5.62997 17.2604 5.31997 17.0504C4.97997 16.8104 4.53997 16.9904 4.46997 17.3904C4.44997 17.4904 4.44997 17.6404 4.38997 17.6704C4.19997 17.7804 3.98997 17.8404 3.78997 17.9204C3.74997 17.7704 3.69997 17.6304 3.67997 17.4804C3.64997 17.1804 3.60997 16.8704 3.61997 16.5704C3.61997 16.4004 3.68997 16.2104 3.76997 16.0604C3.94997 15.6904 4.19997 15.3504 4.33997 14.9704C4.46997 14.6104 4.64997 14.5504 4.95997 14.6804C5.12997 14.7604 5.29997 14.8704 5.54997 15.0104C5.49997 14.8304 5.46997 14.7504 5.44997 14.6704C5.35997 14.1204 5.23997 13.5604 5.19997 13.0004C5.18997 12.8504 5.37997 12.5904 5.52997 12.5304C5.77997 12.4304 6.05997 12.5104 6.14997 12.8304C6.18997 12.9804 6.17997 13.1504 6.23997 13.2904C6.28997 13.4204 6.38997 13.5304 6.46997 13.6404C6.59997 13.5504 6.78997 13.4904 6.82997 13.3704C6.92997 13.1204 6.93997 12.8404 7.00997 12.5704C7.13997 12.0604 7.25997 11.5404 7.40997 11.0304C7.43997 10.9204 7.57997 10.8404 7.75997 10.6504C7.90997 11.2204 8.03997 11.6604 8.13997 12.1004C8.28997 12.7904 8.35997 13.4604 7.81997 14.0704C7.63997 14.2804 7.51997 14.6204 7.84997 14.8404C8.22997 14.5104 8.59997 14.1804 8.96997 13.8604C8.99997 13.8304 9.00997 13.7804 9.01997 13.7404C9.03997 13.2804 9.30997 13.1604 9.72997 13.2004C9.81997 13.2004 9.93997 13.1804 10.01 13.1204C10.13 13.0204 10.3 12.8704 10.29 12.7604C10.29 12.6504 10.09 12.5204 9.94997 12.4504C9.75997 12.3504 9.49997 12.3504 9.36997 12.2104C8.97997 11.7904 8.61997 11.3304 8.27997 10.8704C8.05997 10.5704 8.11997 10.3104 8.48997 10.1604C8.68997 10.0704 8.88997 9.99043 9.09997 9.90043C9.21997 9.89043 9.32997 9.88043 9.44997 9.87043H9.48997H9.52997C10.38 9.90043 11.09 10.2204 11.52 11.0404C11.56 11.0004 11.61 10.9604 11.65 10.9204C11.56 10.7004 11.46 10.4804 11.38 10.2504C11.28 9.96043 11.1 9.64043 11.15 9.37043C11.29 8.66043 12.11 8.41043 12.77 8.83043C13.31 9.17043 13.84 9.52043 14.38 9.86043C14.62 10.0104 14.87 10.1404 15.11 10.2804C15.46 10.2804 15.81 10.3004 16.16 10.3004C16.73 10.5004 17.31 10.6604 17.86 10.9104C18.45 11.1904 18.7 11.7204 18.69 12.3704C18.69 12.8304 18.69 13.3004 18.69 13.7604C18.69 13.9004 18.73 14.0404 18.8 14.1604C18.85 14.2404 18.98 14.3204 19.07 14.3104C19.15 14.3104 19.23 14.1904 19.29 14.1004C19.33 14.0404 19.34 13.9704 19.36 13.9004C19.48 13.2904 19.78 12.8604 20.43 12.7404C20.46 12.7204 20.5 12.7004 20.53 12.6904L20.55 12.7204Z" fill="#FAFAFA" stroke="#F77B5A" stroke-width="1.3" stroke-linecap="round" stroke-linejoin="round"/>
</g>
<circle cx="23.8125" cy="11.4375" r="3.93751" fill="#FAFAFA"/>
<path d="M24 24C24 24 31.5 16.8921 31.5 11.5C31.5 7.35786 28.1421 4 24 4C19.8579 4 16.5 7.35786 16.5 11.5C16.5 16.8921 24 24 24 24ZM24 15.25C21.9289 15.25 20.25 13.5711 20.25 11.5C20.25 9.42893 21.9289 7.75 24 7.75C26.0711 7.75 27.75 9.42893 27.75 11.5C27.75 13.5711 26.0711 15.25 24 15.25Z" fill="#FAFAFA"/>
<path d="M29.2072 15.1747C28.5522 16.5019 27.6656 17.8251 26.7572 19.0126C25.8516 20.1963 24.943 21.221 24.2596 21.9506C24.1688 22.0475 24.0821 22.1391 24 22.2251C23.9179 22.1391 23.8312 22.0475 23.7404 21.9506C23.057 21.221 22.1483 20.1963 21.2428 19.0126C20.3344 17.8251 19.4478 16.5019 18.7928 15.1747C18.131 13.8338 17.75 12.5774 17.75 11.5C17.75 8.04822 20.5482 5.25 24 5.25C27.4518 5.25 30.25 8.04822 30.25 11.5C30.25 12.5774 29.869 13.8338 29.2072 15.1747ZM24 24C24 24 31.5 16.8921 31.5 11.5C31.5 7.35786 28.1421 4 24 4C19.8579 4 16.5 7.35786 16.5 11.5C16.5 16.8921 24 24 24 24Z" fill="#F77B5A"/>
<path d="M24 14C22.6193 14 21.5 12.8807 21.5 11.5C21.5 10.1193 22.6193 9 24 9C25.3807 9 26.5 10.1193 26.5 11.5C26.5 12.8807 25.3807 14 24 14ZM24 15.25C26.0711 15.25 27.75 13.5711 27.75 11.5C27.75 9.42893 26.0711 7.75 24 7.75C21.9289 7.75 20.25 9.42893 20.25 11.5C20.25 13.5711 21.9289 15.25 24 15.25Z" fill="#F77B5A"/>
<defs>
<clipPath id="clip0_782_1065">
<rect width="33.25" height="28.54" fill="white" transform="translate(3 8)"/>
</clipPath>
</defs>
</svg>
