<svg width="40" height="40" viewBox="0 0 40 40" fill="none" xmlns="http://www.w3.org/2000/svg">
<g clip-path="url(#clip0_782_1055)">
<path d="M29.4699 19.9779C29.929 20.9267 30.3765 21.8755 30.8356 22.8244C29.8257 25.9646 28.8616 29.1161 27.7828 32.2337C27.4844 33.1034 26.9565 34.0071 26.2909 34.6396C24.7759 36.0742 23.4332 35.837 22.4691 33.9732C21.3559 31.8496 20.4607 29.6244 19.336 27.5121C19.0146 26.9134 18.2113 26.1905 17.626 26.1905C16.6045 26.1905 16.6275 26.9586 16.7423 27.9639C16.9603 29.8051 16.857 31.7254 16.5816 33.5779C16.4324 34.538 15.8127 35.7014 15.0208 36.1984C14.5732 36.4808 13.2189 35.8031 12.5418 35.2496C11.8417 34.6622 11.3023 33.7699 10.958 32.9001C9.50049 29.2968 8.14624 25.6483 6.75757 22.0111C8.88075 21.4689 8.39873 20.0569 7.93966 18.6337C7.92819 18.227 7.91671 17.8204 7.90523 17.4137C7.79047 13.528 9.0529 11.0994 12.9435 10.1393C13.678 9.95858 14.2748 9.29214 14.9404 8.85161L14.9175 8.8742C16.2602 7.23633 17.603 5.58716 18.5671 4.40111C19.9328 4.19779 20.9886 4.1639 21.9641 3.87021C23.8463 3.31673 25.9006 4.33334 26.7155 6.20842C27.3352 7.63167 27.9779 9.10011 28.9075 10.3313C29.7224 11.4044 30.87 11.6529 31.6275 10.0377C31.9144 9.41639 32.2243 8.76124 32.6834 8.28682C33.1539 7.81241 33.831 7.54131 34.4278 7.17985C34.7147 7.88018 35.3574 8.63699 35.2426 9.25825C34.8524 11.3254 34.1983 13.336 33.6359 15.3805C32.6948 15.6742 31.7652 15.9679 30.8241 16.2616C30.5487 16.5553 29.7568 19.6955 29.4814 19.9779" fill="#FAFAFA"/>
<path d="M29.4699 19.9779C29.929 20.9267 30.3765 21.8755 30.8356 22.8244C29.8257 25.9646 28.8616 29.1161 27.7828 32.2337C27.4844 33.1034 26.9565 34.0071 26.2909 34.6396C24.7759 36.0742 23.4332 35.837 22.4691 33.9732C21.3559 31.8496 20.4607 29.6244 19.336 27.5121C19.0146 26.9134 18.2113 26.1905 17.626 26.1905C16.6045 26.1905 16.6275 26.9586 16.7423 27.9639C16.9603 29.8051 16.857 31.7254 16.5816 33.5779C16.4324 34.538 15.8127 35.7014 15.0208 36.1984C14.5732 36.4808 13.2189 35.8031 12.5418 35.2496C11.8417 34.6622 11.3023 33.7699 10.958 32.9001C9.50049 29.2968 8.14624 25.6483 6.75757 22.0111C8.88075 21.4689 8.39873 20.0569 7.93966 18.6337C7.92819 18.227 7.91671 17.8204 7.90523 17.4137C7.79047 13.528 9.0529 11.0994 12.9435 10.1393C13.678 9.95858 14.2748 9.29214 14.9404 8.85161L14.9175 8.8742C16.2602 7.23633 17.603 5.58716 18.5671 4.40111C19.9328 4.19779 20.9886 4.1639 21.9641 3.87021C23.8463 3.31673 25.9006 4.33334 26.7155 6.20842C27.3352 7.63167 27.9779 9.10011 28.9075 10.3313C29.7224 11.4044 30.87 11.6529 31.6275 10.0377C31.9144 9.41639 32.2243 8.76124 32.6834 8.28682C33.1539 7.81241 33.831 7.54131 34.4278 7.17985C34.7147 7.88018 35.3574 8.63699 35.2426 9.25825C34.8524 11.3254 34.1983 13.336 33.6359 15.3805C32.6948 15.6742 31.7652 15.9679 30.8241 16.2616C30.5487 16.5553 29.7568 19.6955 29.4814 19.9779" stroke="#F77B5A" stroke-width="1.3" stroke-linecap="round" stroke-linejoin="round"/>
</g>
<circle cx="12.8125" cy="12.4375" r="3.93751" fill="#FAFAFA"/>
<path d="M13 25C13 25 20.5 17.8921 20.5 12.5C20.5 8.35786 17.1421 5 13 5C8.85786 5 5.5 8.35786 5.5 12.5C5.5 17.8921 13 25 13 25ZM13 16.25C10.9289 16.25 9.25 14.5711 9.25 12.5C9.25 10.4289 10.9289 8.75 13 8.75C15.0711 8.75 16.75 10.4289 16.75 12.5C16.75 14.5711 15.0711 16.25 13 16.25Z" fill="#FAFAFA"/>
<path d="M18.2072 16.1747C17.5522 17.5019 16.6656 18.8251 15.7572 20.0126C14.8516 21.1963 13.943 22.221 13.2596 22.9506C13.1688 23.0475 13.0821 23.1391 13 23.2251C12.9179 23.1391 12.8312 23.0475 12.7404 22.9506C12.057 22.221 11.1483 21.1963 10.2428 20.0126C9.33443 18.8251 8.44781 17.5019 7.79279 16.1747C7.13101 14.8338 6.75 13.5774 6.75 12.5C6.75 9.04822 9.54822 6.25 13 6.25C16.4518 6.25 19.25 9.04822 19.25 12.5C19.25 13.5774 18.869 14.8338 18.2072 16.1747ZM13 25C13 25 20.5 17.8921 20.5 12.5C20.5 8.35786 17.1421 5 13 5C8.85786 5 5.5 8.35786 5.5 12.5C5.5 17.8921 13 25 13 25Z" fill="#F77B5A"/>
<path d="M13 15C11.6193 15 10.5 13.8807 10.5 12.5C10.5 11.1193 11.6193 10 13 10C14.3807 10 15.5 11.1193 15.5 12.5C15.5 13.8807 14.3807 15 13 15ZM13 16.25C15.0711 16.25 16.75 14.5711 16.75 12.5C16.75 10.4289 15.0711 8.75 13 8.75C10.9289 8.75 9.25 10.4289 9.25 12.5C9.25 14.5711 10.9289 16.25 13 16.25Z" fill="#F77B5A"/>
<defs>
<clipPath id="clip0_782_1055">
<rect width="30" height="34" fill="white" transform="translate(6 3)"/>
</clipPath>
</defs>
</svg>
