<svg width="40" height="40" viewBox="0 0 40 40" fill="none" xmlns="http://www.w3.org/2000/svg">
<g clip-path="url(#clip0_782_1085)">
<path d="M26.2143 3.09666C26.6339 2.99917 27.0534 2.90167 27.4854 2.79199C28.1147 2.79199 28.7441 2.79199 29.3735 2.79199C30.5089 3.5232 32.0391 4.01068 32.6808 5.04656C34.6677 8.21515 37.0124 11.3837 35.9388 15.5273C35.7784 15.6491 35.6179 15.7588 35.4452 15.8807C34.4332 16.2219 33.4089 16.5753 32.397 16.9166L32.3229 16.9409L32.3846 16.9653C32.2983 17.5015 32.2119 18.0256 32.1255 18.5618C32.7179 19.878 33.3225 21.2063 33.9149 22.5225C33.8162 23.3269 33.7175 24.119 33.6064 24.9233C31.5702 26.3858 29.571 27.8847 27.4854 29.274C27.1398 29.5056 26.3747 29.3106 25.9057 29.1034C24.8074 28.6038 23.8078 27.8726 22.6848 27.446C21.7222 27.0682 20.5375 27.2023 20.3771 28.421C20.0069 31.2605 18.3902 33.4176 16.8106 35.6234C14.8361 36.6349 12.8122 37.5002 10.5045 37.1224C7.16013 36.379 6.82693 35.9403 6.80225 32.8692C6.80225 31.9186 7.02438 31.3336 8.01164 31.1021C9.30742 30.7974 9.88744 29.9565 9.62828 28.6403C9.39381 27.4704 9.22104 26.2517 8.76443 25.1671C8.19675 23.8265 8.2708 22.7906 9.62828 22.1204C10.4304 21.7304 11.319 21.4866 12.1952 21.2429C13.3429 20.9139 14.5029 20.3533 14.4165 19.1102C14.3425 18.0499 13.4292 17.3919 12.1458 17.3431C10.8377 17.2944 9.91212 16.6972 9.49253 15.2835C8.82613 12.968 9.03592 11.3594 10.4181 10.5063C11.7386 9.67757 13.1701 10.1041 15.0582 11.7493C15.5272 12.1637 16.6132 12.6999 16.7242 12.578C17.3659 11.859 17.8843 10.9938 18.2668 10.1041C18.4396 9.70194 18.0323 9.06823 18.1804 8.6295C18.4026 7.97141 18.7234 7.13052 19.2664 6.83803C21.2286 5.77777 23.3142 4.93688 25.3257 3.96193C25.6836 3.79132 25.9304 3.38915 26.2266 3.09666H26.2143Z" fill="#FAFAFA" stroke="#F77B5A" stroke-width="1.3" stroke-linecap="round" stroke-linejoin="round"/>
</g>
<circle cx="13.5" cy="10.5" r="3.5" fill="#FAFAFA"/>
<path d="M13 23C13 23 20.5 15.8921 20.5 10.5C20.5 6.35786 17.1421 3 13 3C8.85786 3 5.5 6.35786 5.5 10.5C5.5 15.8921 13 23 13 23ZM13 14.25C10.9289 14.25 9.25 12.5711 9.25 10.5C9.25 8.42893 10.9289 6.75 13 6.75C15.0711 6.75 16.75 8.42893 16.75 10.5C16.75 12.5711 15.0711 14.25 13 14.25Z" fill="#FAFAFA"/>
<path d="M18.2072 14.1747C17.5522 15.5019 16.6656 16.8251 15.7572 18.0126C14.8516 19.1963 13.943 20.221 13.2596 20.9506C13.1688 21.0475 13.0821 21.1391 13 21.2251C12.9179 21.1391 12.8312 21.0475 12.7404 20.9506C12.057 20.221 11.1483 19.1963 10.2428 18.0126C9.33443 16.8251 8.44781 15.5019 7.79279 14.1747C7.13101 12.8338 6.75 11.5774 6.75 10.5C6.75 7.04822 9.54822 4.25 13 4.25C16.4518 4.25 19.25 7.04822 19.25 10.5C19.25 11.5774 18.869 12.8338 18.2072 14.1747ZM13 23C13 23 20.5 15.8921 20.5 10.5C20.5 6.35786 17.1421 3 13 3C8.85786 3 5.5 6.35786 5.5 10.5C5.5 15.8921 13 23 13 23Z" fill="#F77B5A"/>
<path d="M13 13C11.6193 13 10.5 11.8807 10.5 10.5C10.5 9.11929 11.6193 8 13 8C14.3807 8 15.5 9.11929 15.5 10.5C15.5 11.8807 14.3807 13 13 13ZM13 14.25C15.0711 14.25 16.75 12.5711 16.75 10.5C16.75 8.42893 15.0711 6.75 13 6.75C10.9289 6.75 9.25 8.42893 9.25 10.5C9.25 12.5711 10.9289 14.25 13 14.25Z" fill="#F77B5A"/>
<defs>
<clipPath id="clip0_782_1085">
<rect width="31" height="36" fill="white" transform="translate(6 2)"/>
</clipPath>
</defs>
</svg>
