<svg width="40" height="40" viewBox="0 0 40 40" fill="none" xmlns="http://www.w3.org/2000/svg">
<g clip-path="url(#clip0_782_1135)">
<path d="M20.8191 8.65764C21.001 8.37958 21.3421 8.07835 21.3194 7.81188C21.2511 7.11673 21.7856 6.4911 21.5013 5.77278C21.4217 5.5874 21.5127 5.27459 21.615 5.06604C21.7969 4.66054 22.1153 4.66054 22.4905 5.0197C22.5815 5.14714 22.6725 5.28617 22.7521 5.41362C23.15 6.45634 23.5366 7.49906 23.9346 8.5302C23.9346 8.55337 23.9573 8.56496 23.9573 8.58813C23.9687 8.6113 23.9915 8.64606 24.0028 8.66923C24.5145 9.67719 25.0376 10.6852 25.5151 11.7047C25.7425 12.2029 25.9358 12.7358 26.0495 13.2804C26.186 13.8828 26.3224 14.4621 26.8682 14.8213C26.8682 14.8213 26.9137 14.8676 26.9364 14.9024C26.9364 14.9256 26.9364 14.9372 26.9592 14.9487C26.9706 14.9719 26.9933 14.9951 27.0047 15.0067C27.0502 15.0994 27.0956 15.1805 27.1411 15.2731C27.1639 15.3195 27.1752 15.3658 27.198 15.4006C27.3344 15.6786 27.4709 15.9683 27.6073 16.2463C27.6755 16.3506 27.7551 16.4549 27.8234 16.5592C28.335 17.1848 28.8467 17.822 29.3584 18.4477C29.5858 18.7836 29.8246 19.1196 30.052 19.4672C30.2567 19.7916 30.45 20.116 30.6433 20.4404C30.7001 20.5563 30.7683 20.6605 30.8252 20.7764C30.9275 20.9038 31.0412 21.0313 31.1436 21.1587C31.28 21.3209 31.4278 21.4947 31.5643 21.6569C31.9395 22.1204 32.3148 22.5838 32.6786 23.0356C32.7127 23.1399 32.7809 23.2326 32.7809 23.3369C32.7809 23.8582 33.0766 24.2058 33.4291 24.5418C33.7247 24.8198 33.8725 25.179 33.8725 25.5845C33.8725 26.0364 34.0658 26.3839 34.3728 26.6967C34.6002 26.9169 34.8049 27.1602 35.021 27.3803C35.0778 27.5773 35.1347 27.7742 35.1915 27.9712C35.2484 28.0523 35.2939 28.1334 35.3507 28.2261C35.453 28.2956 35.544 28.3535 35.6463 28.423C35.6691 28.4346 35.6918 28.4578 35.7146 28.4694C36.0216 28.5273 36.158 28.7011 36.1012 29.0371C36.0329 29.4542 36.2149 29.767 36.5333 30.0103C36.9199 30.3115 37.1132 30.717 37.1132 31.2152C37.1132 31.3658 37.1132 31.5164 37.1245 31.6671C37.1245 31.7134 37.1245 31.7482 37.1245 31.7945C37.17 32.1189 37.2155 32.4433 37.2496 32.7677C37.2496 32.8372 37.2496 32.9067 37.2496 32.9763C37.1586 33.0226 37.079 33.0805 36.9767 33.1037C36.5901 33.1964 36.2831 33.4049 36.1239 33.7641C35.9192 34.2159 35.7487 34.691 35.3848 35.0385C35.3507 35.0617 35.3052 35.0965 35.2711 35.1196C35.2256 35.1196 35.1802 35.1196 35.1347 35.108C34.9414 34.8879 34.7481 34.6562 34.5661 34.4361C34.0545 33.8104 33.4404 33.7293 32.7809 34.1928C32.4512 34.4245 32.1215 34.5519 31.7121 34.4129C31.3483 34.297 31.0071 34.3665 30.7001 34.5983C30.6319 34.6214 30.575 34.6446 30.5068 34.6794C30.4386 34.6794 30.3817 34.6794 30.3135 34.6794C30.2908 34.6794 30.2794 34.6678 30.2567 34.6678L30.1884 34.6098C30.143 34.5056 30.0975 34.4013 30.052 34.297C30.0293 34.2275 30.0065 34.158 29.9951 34.0769C29.9724 33.544 29.5972 33.3122 29.0173 33.2196C28.6762 33.1616 28.4829 33.3007 28.2668 33.7641C28.2441 33.9263 28.2213 34.0885 28.21 34.2507C28.1758 34.5635 28.1531 34.8763 28.1304 35.1891C27.9143 35.305 27.7097 35.2818 27.5732 35.0733C27.3685 34.7605 27.0843 34.6099 26.7431 34.5403C26.6408 34.494 26.5498 34.4245 26.4361 34.4129C25.8676 34.3202 25.2763 34.3202 24.8556 33.822C24.5827 33.5092 24.2189 33.5671 23.9232 33.7293C23.639 33.8799 23.4684 33.822 23.2979 33.6019C23.0363 33.2775 22.7293 33.011 22.2972 32.9994C22.0357 32.9994 21.7742 33.0458 21.5127 33.0458C21.4331 33.0458 21.2966 33.011 21.2739 32.9531C21.2398 32.8836 21.2853 32.7561 21.3421 32.6866C21.4331 32.5707 21.5923 32.4896 21.6491 32.3622C21.7287 32.1884 21.8197 31.9451 21.7628 31.7829C21.6832 31.5512 21.4331 31.6091 21.2398 31.7018C21.1829 31.725 21.1261 31.7482 21.0692 31.7945C20.8191 31.9915 20.6371 31.9799 20.4552 31.6786C20.2619 31.3658 19.8071 31.2152 19.6024 31.4122C19.3181 31.6902 18.9998 31.6786 18.6586 31.6671C18.4312 31.6671 18.2493 31.725 18.1356 31.9567C17.9764 32.2579 17.8286 32.2811 17.5784 32.0262C17.3738 31.8293 17.1805 31.6091 16.9758 31.4122C16.7484 31.192 16.4641 31.0878 16.1685 31.2268C15.9069 31.3542 15.7705 31.5744 15.7364 31.9104C15.6682 32.6403 15.4066 33.0342 14.7017 33.1616C14.4629 33.208 14.2241 33.2196 13.9739 33.2311C13.3827 33.2311 13.2462 33.1153 13.0757 32.5476C13.0074 32.3274 12.9051 32.1073 12.7687 31.9219C12.6095 31.6902 12.5299 31.5049 12.7687 31.2847C13.0643 31.0182 13.1211 30.6475 13.0416 30.2768C12.8937 29.6048 13.0643 29.0255 13.4623 28.481C13.576 28.3188 13.6328 28.0986 13.6783 27.8901C13.7693 27.4846 13.5532 27.137 13.4054 26.7894C13.2235 26.3723 13.3031 26.1638 13.6783 25.9321C13.8148 25.851 13.9398 25.7467 14.0535 25.6308C14.2923 25.376 14.2355 25.0747 13.9057 24.982C13.5419 24.8894 13.1553 24.8198 12.7914 24.8198C12.3138 24.8198 11.9841 24.6229 11.6998 24.2753C11.6202 24.171 11.5065 24.0668 11.3928 24.0204C11.0062 23.8582 10.6082 23.6613 10.1762 23.893C10.1307 23.9161 10.0738 23.9046 10.017 23.9162C9.72133 23.9162 9.63036 23.8119 9.70996 23.5222C9.75544 23.3253 9.83504 23.1399 9.89189 22.9429C10.0283 22.4679 10.0283 22.4679 9.52803 22.3405C9.41432 22.3173 9.30062 22.2478 9.23239 22.1667C9.18691 22.1088 9.17554 21.9581 9.22102 21.9118C9.63036 21.4831 9.60762 20.9849 9.50529 20.452C9.41432 20.0001 9.49392 19.8379 9.88052 19.6178C10.1648 19.4556 10.4604 19.2934 10.6992 19.0733C11.1881 18.633 11.0176 17.9958 10.3808 17.8104C9.96011 17.683 9.82367 17.5324 9.83504 17.1037C9.83504 16.8372 9.7327 16.7793 9.49392 16.7561C9.22102 16.7214 8.94813 16.675 8.70934 16.5476C8.27726 16.3274 8.42508 15.8988 8.42508 15.5396C8.42508 15.1109 8.1863 14.8097 7.77695 14.8213C7.65188 14.8213 7.5268 14.8676 7.40172 14.8908C7.37898 14.856 7.34487 14.8329 7.32213 14.7981C7.31076 14.5201 7.16294 14.6359 7.04923 14.717C6.89005 14.8097 6.74223 14.9835 6.58304 15.0067C6.04862 15.0762 5.63928 14.5664 5.84395 14.0566C5.96903 13.7322 5.93491 13.5353 5.60517 13.3847C5.45735 13.5121 5.28679 13.628 5.13897 13.767C4.84333 14.0566 4.82059 14.0566 4.57044 13.6975C4.5477 13.6627 4.51359 13.628 4.49084 13.5932C4.36577 13.4078 4.18384 13.431 4.04739 13.5353C3.9678 13.5932 3.92231 13.767 3.93368 13.8828C3.94505 14.1609 4.00191 14.439 4.03602 14.7634C3.86546 14.7402 3.70627 14.7634 3.64942 14.6938C2.98992 13.906 1.98931 13.3962 1.72778 12.284C2.36454 11.6004 3.14911 11.1602 4.01328 10.8589C4.79785 10.5577 5.62791 10.4998 6.45796 10.4187C6.68537 10.3955 6.90142 10.3144 7.12883 10.2565C7.35624 10.2681 7.60639 10.2333 7.82244 10.3028C8.19767 10.4187 8.56153 10.5925 8.91402 10.7547C9.14143 10.8589 9.31199 10.8705 9.50529 10.6736C9.63036 10.5577 9.82367 10.4766 10.0056 10.4534C10.3012 10.4187 10.5969 10.4303 10.8925 10.4303C10.9721 10.4303 11.0517 10.4303 11.1313 10.4303C11.2336 10.4303 11.3473 10.4303 11.4497 10.4419C12.1546 10.523 12.8596 10.6156 13.576 10.6967C13.9285 10.7315 14.2809 10.7431 14.6448 10.7663C14.7244 10.7663 14.8154 10.7547 14.895 10.7547C15.4294 10.7431 15.9638 10.7199 16.4982 10.7199C16.7825 10.7199 17.0554 10.7431 17.3396 10.7547C17.442 10.7547 17.5557 10.7778 17.6239 10.7315C18.1015 10.4766 18.579 10.2101 19.0452 9.93208C19.4091 9.72354 19.7616 9.50341 20.1141 9.29486C20.3415 9.07473 20.5689 8.8546 20.7963 8.63447L20.8191 8.65764Z" fill="#FAFAFA" stroke="#F77B5A" stroke-width="1.3" stroke-linecap="round" stroke-linejoin="round"/>
</g>
<circle cx="14.8125" cy="23.4375" r="3.93751" fill="#FAFAFA"/>
<path d="M15 36C15 36 22.5 28.8921 22.5 23.5C22.5 19.3579 19.1421 16 15 16C10.8579 16 7.5 19.3579 7.5 23.5C7.5 28.8921 15 36 15 36ZM15 27.25C12.9289 27.25 11.25 25.5711 11.25 23.5C11.25 21.4289 12.9289 19.75 15 19.75C17.0711 19.75 18.75 21.4289 18.75 23.5C18.75 25.5711 17.0711 27.25 15 27.25Z" fill="#FAFAFA"/>
<path d="M20.2072 27.1747C19.5522 28.5019 18.6656 29.8251 17.7572 31.0126C16.8516 32.1963 15.943 33.221 15.2596 33.9506C15.1688 34.0475 15.0821 34.1391 15 34.2251C14.9179 34.1391 14.8312 34.0475 14.7404 33.9506C14.057 33.221 13.1483 32.1963 12.2428 31.0126C11.3344 29.8251 10.4478 28.5019 9.79279 27.1747C9.13101 25.8338 8.75 24.5774 8.75 23.5C8.75 20.0482 11.5482 17.25 15 17.25C18.4518 17.25 21.25 20.0482 21.25 23.5C21.25 24.5774 20.869 25.8338 20.2072 27.1747ZM15 36C15 36 22.5 28.8921 22.5 23.5C22.5 19.3579 19.1421 16 15 16C10.8579 16 7.5 19.3579 7.5 23.5C7.5 28.8921 15 36 15 36Z" fill="#F77B5A"/>
<path d="M15 26C13.6193 26 12.5 24.8807 12.5 23.5C12.5 22.1193 13.6193 21 15 21C16.3807 21 17.5 22.1193 17.5 23.5C17.5 24.8807 16.3807 26 15 26ZM15 27.25C17.0711 27.25 18.75 25.5711 18.75 23.5C18.75 21.4289 17.0711 19.75 15 19.75C12.9289 19.75 11.25 21.4289 11.25 23.5C11.25 25.5711 12.9289 27.25 15 27.25Z" fill="#F77B5A"/>
<defs>
<clipPath id="clip0_782_1135">
<rect width="37" height="32" fill="white" transform="translate(1 4)"/>
</clipPath>
</defs>
</svg>
