<svg width="40" height="40" viewBox="0 0 40 40" fill="none" xmlns="http://www.w3.org/2000/svg">
<g clip-path="url(#clip0_782_1035)">
<path d="M36.2606 19.911C36.9009 20.3828 37.5413 20.8432 38.1936 21.3151C38.1936 21.5568 38.2884 21.8905 38.1699 22.0171C37.8022 22.4084 37.4346 22.8573 36.7705 22.7422C36.4503 22.6846 36.2368 22.8458 36.142 23.122C36.0708 23.3291 36.0352 23.5478 36.0234 23.755C35.9759 24.4685 35.6439 24.8138 34.9086 24.9519C34.4224 25.044 33.9955 25.2396 33.7227 25.677C33.5686 25.9186 33.3907 26.1603 33.1772 26.356C32.7384 26.7588 32.1811 26.7818 31.6118 26.7818C30.924 26.7818 30.7224 26.9314 30.5682 27.5414C30.4971 27.8521 30.3311 27.9787 29.9872 28.0248C29.7618 28.0478 29.5247 28.2435 29.3824 28.4391C29.2163 28.6693 29.2993 28.9225 29.5128 29.1527C29.6077 29.2447 29.6195 29.4289 29.667 29.5785C29.6314 29.6015 29.584 29.6591 29.5602 29.6475C28.991 29.4404 28.4218 29.6475 27.8525 29.6475C27.2833 29.6475 27.058 29.4059 26.9394 28.8419C26.8445 28.347 26.5718 28.1629 26.0263 28.3125C25.5638 28.4391 25.3029 28.3125 25.1131 27.8867C24.8997 27.4033 24.8048 27.4033 24.4016 27.8406C24.5676 28.0593 24.6862 28.3585 24.9234 28.5197C25.5282 28.934 25.6824 29.4634 25.5045 30.1194C25.0657 30.4992 24.5676 30.6488 23.9865 30.5107C23.9865 30.2805 23.9628 30.0734 23.9865 29.8777C24.0577 29.3943 23.8205 29.1296 23.3343 29.2793C22.8481 29.4404 22.4093 29.4404 21.9468 29.2332C21.84 29.1872 21.6622 29.2793 21.5199 29.3138C21.591 29.4289 21.6503 29.5555 21.757 29.636C21.8519 29.7166 22.0179 29.7281 22.1247 29.7972C22.2432 29.8777 22.3381 29.9813 22.5279 30.1539C22.1247 30.2 21.8519 30.2345 21.5791 30.269C21.1404 30.3841 20.6897 30.4762 20.2509 30.6028C20.0375 30.6718 19.8596 30.856 20.0375 31.0631C20.1442 31.1782 20.4288 31.2588 20.5711 31.2013C20.9981 31.0286 21.3894 30.7869 21.7926 30.5683C22.35 30.5452 22.7769 30.9135 22.7532 31.3969C22.7295 31.8227 22.3381 32.0874 21.757 32.0529C21.6503 32.0529 21.5554 32.0069 21.4487 32.0069C21.259 32.0069 21.0692 32.0069 20.7727 32.0069C21.0574 32.2371 21.2708 32.3982 21.4724 32.5593C21.425 32.87 21.3775 33.1693 21.3301 33.4685C21.1878 34.1706 20.8676 34.746 20.2272 35.1373C19.8596 35.1833 19.4801 35.2984 19.1243 35.2524C18.6381 35.1833 18.5077 34.8036 18.7804 34.4007C18.899 34.2166 19.0532 34.0555 19.1718 33.8598C19.3141 33.6066 19.1718 33.1578 18.9109 33.0657C18.567 32.9506 18.5195 33.2153 18.4128 33.434C18.0452 34.2396 17.7487 34.2857 17.1202 33.6642C16.9779 33.5261 16.7407 33.4225 16.5509 33.4225C16.4561 33.4225 16.3138 33.6872 16.2663 33.8483C16.0766 34.4583 15.958 34.5619 15.2583 34.6079C15.1041 34.6079 14.9618 34.6194 14.8077 34.6309C14.5468 34.4468 14.2859 34.2511 14.0131 34.0785C13.7759 33.9289 13.5269 33.8023 13.2897 33.6642C13.0407 33.5146 12.7916 33.3649 12.5426 33.2153C12.5782 32.8585 12.5782 32.5018 12.6493 32.1565C12.7442 31.6386 12.8984 31.1437 12.9695 30.6258C12.9814 30.5107 12.7916 30.2805 12.6612 30.246C12.3884 30.177 12.3766 30.4071 12.3647 30.6143C12.3647 30.7524 12.3291 30.8905 12.3173 31.0286C11.922 30.9135 11.669 30.925 11.5583 31.0631C11.7362 31.1782 11.9141 31.2818 12.0682 31.4084C12.3529 31.6386 12.3647 31.9378 12.092 32.2025C11.7006 32.5938 11.167 32.7089 10.9416 32.4442C10.8824 32.3752 10.8586 32.2946 10.8349 32.214C10.8112 32.122 10.8231 31.9954 10.7756 31.9148C10.7045 31.7997 10.5977 31.6386 10.5029 31.6501C10.3724 31.6501 10.1945 31.7537 10.1352 31.8688C10.0404 32.0299 10.0285 32.2255 9.98107 32.4097C9.8862 32.8125 9.67274 33.1232 9.2221 33.1693C8.59357 33.2383 7.96504 33.2959 7.33652 33.2844C7.06376 33.2844 6.71985 33.1693 6.71985 32.7665C7.06376 31.9378 7.13492 31.1092 6.56569 30.3496C6.41152 30.1539 6.07947 30.0849 5.83043 29.9583C5.77113 29.8662 5.71184 29.7741 5.65255 29.6936C5.62883 29.6706 5.60511 29.6475 5.58139 29.613H5.56953C5.51024 29.4749 5.47466 29.3138 5.39165 29.2102C4.91729 28.6693 4.45479 28.1053 3.92114 27.6105C2.90126 26.6667 2.58107 25.5388 2.85383 24.2268C3.75511 24.0887 4.15831 23.4787 3.89742 22.6386C3.79069 22.2703 3.98043 21.9481 4.30062 21.7984C4.92915 21.4877 4.88171 21.2115 4.39549 20.8892C3.98043 20.6015 3.99229 20.3138 4.0753 19.9225C4.19389 19.3701 4.12274 18.8752 3.57722 18.5414C3.45864 18.4724 3.32819 18.3227 3.32819 18.2076C3.30447 17.7358 3.23331 17.2294 3.37562 16.792C3.69581 15.7793 4.1346 14.801 4.51408 13.8112C4.5971 13.6041 4.65639 13.3969 4.66825 13.1782C4.71569 12.5798 4.88171 12.0734 5.55767 11.8777C5.59325 11.8777 5.62883 11.8202 5.6644 11.7972C6.50639 11.2102 7.34838 10.6002 8.21408 10.0248C8.66472 9.72555 9.1628 9.63348 9.6846 9.89818C9.81505 9.95573 9.96921 9.95573 10.1234 9.97875C10.2894 10.0133 10.4554 10.0938 10.6215 10.0823C10.9298 10.0593 11.167 10.0938 11.333 10.3816C11.3804 10.4736 11.4872 10.5427 11.5702 10.6117L11.6532 10.6693C11.6532 10.6693 11.7125 10.7383 11.7481 10.7844C11.7836 10.8074 11.8074 10.8304 11.8429 10.8534C11.9141 10.9225 11.9971 10.98 12.0682 11.0491C12.1868 11.1296 12.3173 11.2908 12.4359 11.2793C12.8628 11.2332 13.2779 11.1296 13.6929 11.0491C13.8471 11.0146 13.9894 10.9685 14.1673 10.911C14.191 11.0261 14.2147 11.0836 14.2029 11.1296C14.0487 11.7972 14.1199 11.8777 14.784 12.1539C15.4481 12.4302 15.5666 13.0516 15.6615 13.6616C15.7208 14.0529 15.7801 14.4557 15.8394 14.847C15.8987 15.0427 15.9461 15.2383 16.0054 15.434C16.0884 15.5261 16.1833 15.6181 16.2663 15.7102C16.3375 15.7562 16.3968 15.8023 16.4679 15.8483C16.8949 15.8483 17.3218 15.8138 17.7368 15.8253C18.0096 15.8253 18.3061 15.8253 18.5432 15.9289C19.1836 16.2051 19.8003 16.4468 20.5356 16.2972C21.1759 16.1706 21.8756 16.2396 22.4686 16.0209C22.9074 15.8598 23.2394 15.8368 23.5952 16.0555C23.7968 16.1821 23.9628 16.3892 24.1051 16.5849C24.2356 16.7575 24.3304 16.9647 24.4372 17.1488C24.4965 17.1718 24.5439 17.1833 24.6032 17.2064C24.8878 17.6207 25.042 17.6322 25.4452 17.2754C26.0144 17.0452 26.5836 16.9877 27.1647 17.2754C27.39 17.3905 27.6035 17.5631 27.8407 17.5977C28.1372 17.6437 28.5048 17.7473 28.7064 17.3675C28.9436 17.2524 29.1926 17.1373 29.4298 17.0222C29.5009 17.0222 29.584 17.0222 29.6551 17.0222C30.1413 17.1488 30.5682 17.1833 30.924 16.7C31.1019 16.4468 31.4221 16.1821 31.7186 16.1475C32.525 16.0325 33.2602 16.3662 33.9718 16.7115C34.0904 16.769 34.1734 16.9071 34.2564 16.9992C34.1141 17.2409 33.9955 17.4365 33.9006 17.6437C33.3907 18.691 33.7227 19.1859 34.79 19.4046C35.3237 19.5197 35.8099 19.6693 36.2961 19.8995L36.2606 19.911Z" fill="#FAFAFA" stroke="#F77B5A" stroke-width="1.3" stroke-linecap="round" stroke-linejoin="round"/>
</g>
<circle cx="28.5" cy="10.5" r="3.5" fill="#FAFAFA"/>
<path d="M28 23C28 23 35.5 15.8921 35.5 10.5C35.5 6.35786 32.1421 3 28 3C23.8579 3 20.5 6.35786 20.5 10.5C20.5 15.8921 28 23 28 23ZM28 14.25C25.9289 14.25 24.25 12.5711 24.25 10.5C24.25 8.42893 25.9289 6.75 28 6.75C30.0711 6.75 31.75 8.42893 31.75 10.5C31.75 12.5711 30.0711 14.25 28 14.25Z" fill="#FAFAFA"/>
<path d="M33.2072 14.1747C32.5522 15.5019 31.6656 16.8251 30.7572 18.0126C29.8516 19.1963 28.943 20.221 28.2596 20.9506C28.1688 21.0475 28.0821 21.1391 28 21.2251C27.9179 21.1391 27.8312 21.0475 27.7404 20.9506C27.057 20.221 26.1483 19.1963 25.2428 18.0126C24.3344 16.8251 23.4478 15.5019 22.7928 14.1747C22.131 12.8338 21.75 11.5774 21.75 10.5C21.75 7.04822 24.5482 4.25 28 4.25C31.4518 4.25 34.25 7.04822 34.25 10.5C34.25 11.5774 33.869 12.8338 33.2072 14.1747ZM28 23C28 23 35.5 15.8921 35.5 10.5C35.5 6.35786 32.1421 3 28 3C23.8579 3 20.5 6.35786 20.5 10.5C20.5 15.8921 28 23 28 23Z" fill="#F77B5A"/>
<path d="M28 13C26.6193 13 25.5 11.8807 25.5 10.5C25.5 9.11929 26.6193 8 28 8C29.3807 8 30.5 9.11929 30.5 10.5C30.5 11.8807 29.3807 13 28 13ZM28 14.25C30.0711 14.25 31.75 12.5711 31.75 10.5C31.75 8.42893 30.0711 6.75 28 6.75C25.9289 6.75 24.25 8.42893 24.25 10.5C24.25 12.5711 25.9289 14.25 28 14.25Z" fill="#F77B5A"/>
<defs>
<clipPath id="clip0_782_1035">
<rect width="37" height="27" fill="white" transform="translate(2 9)"/>
</clipPath>
</defs>
</svg>
