<svg width="40" height="40" viewBox="0 0 40 40" fill="none" xmlns="http://www.w3.org/2000/svg">
<g clip-path="url(#clip0_782_1155)">
<path d="M28.7596 33.4462C28.7596 32.8437 28.7596 32.2306 28.7596 31.6281C28.8343 31.3955 28.9091 31.1629 28.9839 30.941C29.1655 30.2961 29.3151 29.6407 29.5501 29.0065C29.6569 28.6999 29.9133 28.4357 30.1056 28.1608C30.2765 28.4251 30.5756 28.6788 30.6076 28.9642C30.6824 29.6619 30.629 30.3701 30.629 31.0784C31.505 31.2158 31.8148 30.9727 31.7186 30.2539C31.6438 29.6936 31.5584 29.1333 31.537 28.5837C31.5263 27.9494 31.5904 27.2412 30.6824 27.3257C29.8919 27.3892 28.7168 26.6915 28.5032 28.2031L27.8088 28.7422C26.3346 27.1989 26.7833 25.4124 27.1358 23.6365C27.3495 23.6365 27.5631 23.6259 27.7661 23.6154C28.5566 23.1925 29.486 22.9071 30.1162 22.3152C31.0777 21.4061 32.0605 20.8247 33.4065 20.7084C34.4961 20.6133 35.3934 21.0044 35.8955 21.7761C36.1946 22.2412 36.045 23.1714 35.7993 23.7739C35.1797 25.3278 35.4575 26.9029 36.6219 28.0763C36.9958 28.4568 37.3376 29.1333 37.2735 29.6196C37.0385 31.3744 36.0984 32.7697 34.5602 33.7317C34.5174 33.5202 34.4747 33.3088 34.4427 33.1714C32.6266 33.5625 30.8747 33.9325 29.048 34.3236C28.9305 34.0065 28.8343 33.7211 28.7382 33.4462H28.7596Z" fill="#FAFAFA" stroke="#F77B5A" stroke-width="1.3" stroke-linecap="round" stroke-linejoin="round"/>
<path d="M11.4113 5.70864C12.9176 6.5226 12.971 7.33655 11.4861 8.24564C10.5781 8.79532 9.58464 9.22873 8.60185 9.63042C7.55497 10.0638 5.94191 9.55642 5.65348 8.77418C5.37574 8.02365 6.13419 6.60716 7.09562 6.15262C7.51224 5.96234 7.9609 5.83549 8.3882 5.6875C9.39235 5.6875 10.3965 5.69807 11.4113 5.70864Z" fill="#FAFAFA" stroke="#F77B5A" stroke-width="1.3" stroke-linecap="round" stroke-linejoin="round"/>
<path d="M14.883 31.8708C14.8617 31.7863 14.8403 31.7017 14.8189 31.6171C14.8296 31.5431 14.8189 31.448 14.8723 31.4057C16.1115 30.2323 15.0967 29.8201 14.178 29.3761C14.5946 28.9956 15.0005 28.6044 15.4171 28.2239C15.8872 27.9068 16.229 27.9385 16.2611 28.5727C16.2824 29.0273 16.229 29.4818 16.2183 29.9364C16.197 30.8032 16.2824 30.8772 17.3934 30.8455C17.3934 30.1583 17.3507 29.4607 17.4148 28.7736C17.4361 28.5622 17.7673 28.3824 17.9596 28.1922C18.0985 28.4142 18.3442 28.6256 18.3655 28.8581C18.4189 29.577 18.3869 30.2958 18.3869 30.9934C19.6688 31.152 19.8611 30.3063 19.3376 27.5474C20.064 26.9977 20.6836 26.152 21.4528 26.0146C22.8094 25.7609 24.2729 25.7715 25.6403 25.9829C26.3347 26.0886 26.0996 26.9025 25.0848 27.4945C24.6255 27.8962 24.1554 28.2873 23.6961 28.689C23.1726 28.0442 23.0338 26.818 21.7519 27.2937C21.2284 27.4839 20.5127 27.8116 20.3845 28.2239C20.2029 28.8264 20.4379 29.577 20.5661 30.2535C20.5982 30.4438 20.8973 30.56 21.0148 30.7503C21.2177 31.078 21.613 31.6065 21.5062 31.7545C21.2605 32.1139 20.7691 32.4945 20.3631 32.5051C19.4551 32.5262 18.5471 32.3359 17.6391 32.2197C16.7311 32.1034 15.8231 31.9871 14.9044 31.8602L14.883 31.8708Z" fill="#FAFAFA" stroke="#F77B5A" stroke-width="1.3" stroke-linecap="round" stroke-linejoin="round"/>
<path d="M12.8215 26.4478C12.3408 25.5598 11.86 24.6824 11.3687 23.7839C12.4689 23.044 13.5586 23.5619 14.6375 23.8262C14.7977 23.9213 15.0114 23.9848 15.1182 24.1222C15.4387 24.545 15.7271 24.989 16.0262 25.4224C15.5882 25.6761 15.1823 26.0144 14.723 26.1518C14.1141 26.3315 13.4517 26.3526 12.8215 26.4478Z" fill="#FAFAFA" stroke="#F77B5A" stroke-width="1.3" stroke-linecap="round" stroke-linejoin="round"/>
<path d="M17.0622 27.3471C17.2118 26.586 17.2545 25.9517 17.4788 25.4126C17.6818 24.9264 18.0236 24.2604 18.4402 24.1441C18.9637 23.9961 19.6367 24.3238 20.2349 24.4401C20.1388 24.8841 20.096 25.3492 19.9251 25.7615C19.7862 26.0997 19.4337 26.364 19.3055 26.7128C18.8248 27.9496 17.9488 27.4951 17.0515 27.3471H17.0622Z" fill="#FAFAFA" stroke="#F77B5A" stroke-width="1.3" stroke-linecap="round" stroke-linejoin="round"/>
<path d="M15.0969 15.4543C14.9259 16.5431 14.4345 17.1139 13.6013 17.283C12.6506 17.4839 12.5865 16.6805 12.266 16.0674C11.9348 15.4437 11.39 14.8095 10.7811 14.5029C9.92653 14.0801 9.62742 13.541 9.80902 12.6847C9.96925 11.9448 10.0547 11.152 10.3966 10.486C10.5995 10.1055 11.2405 9.94689 11.6785 9.68262C11.8173 10.0632 12.1164 10.4543 12.0737 10.8137C11.9135 12.4205 12.4369 13.5198 14.0072 14.1858C14.4666 14.3761 14.7336 15.0103 15.0969 15.4437V15.4543Z" fill="#FAFAFA" stroke="#F77B5A" stroke-width="1.3" stroke-linecap="round" stroke-linejoin="round"/>
<path d="M5.08722 16.1413C3.93352 15.9088 2.80117 16.1413 2.70503 15.0103C2.61957 14.0377 3.58099 13.9955 4.31809 14.006C5.09791 14.0272 5.99524 14.1646 6.0166 15.1371C6.0166 15.5071 5.33292 15.8982 5.09791 16.1413H5.08722Z" fill="#FAFAFA" stroke="#F77B5A" stroke-width="1.3" stroke-linecap="round" stroke-linejoin="round"/>
<path d="M8.28126 18.7528C7.50144 18.182 6.89253 17.7275 6.27295 17.2835C6.63615 17.0615 7.11687 16.5753 7.33052 16.6704C7.89669 16.9241 8.36672 17.4209 8.81538 17.8755C8.86879 17.9283 8.53764 18.3406 8.28126 18.7528Z" fill="#FAFAFA" stroke="#F77B5A" stroke-width="1.3" stroke-linecap="round" stroke-linejoin="round"/>
<path d="M15.3425 17.9282C16.2399 16.8076 16.1544 15.6237 15.6096 14.3975C15.7164 14.1861 15.9835 13.8901 15.9194 13.7738C15.3746 12.7802 14.8084 11.7865 14.1782 10.8457C13.4838 9.80976 14.7764 6.40595 16.0049 6.17339C16.1544 6.14168 16.3146 6.17339 16.4642 6.15225C17.9277 5.93027 19.1348 6.5328 20.3526 7.23048C21.7307 8.02329 22.3396 9.31293 21.9336 10.8668C21.8909 11.036 21.8909 11.3214 21.9871 11.3954C22.7882 11.9979 22.2648 12.5793 22.0084 13.203C21.5491 14.2918 22.0618 15.2009 23.1514 15.3277C23.4719 16.5539 23.7924 17.7802 24.1022 19.0064C23.6963 19.1649 23.2796 19.3235 22.8737 19.4715C22.4678 19.6195 22.0405 19.8838 21.6345 19.8626C20.1924 19.7886 18.7609 19.4926 17.3295 19.4926C16.133 19.4926 15.5455 19.0275 15.3319 17.9493L15.3425 17.9282Z" fill="#FAFAFA" stroke="#F77B5A" stroke-width="1.3" stroke-linecap="round" stroke-linejoin="round"/>
</g>
<circle cx="14.8125" cy="22.4375" r="3.93751" fill="#FAFAFA"/>
<path d="M15 35C15 35 22.5 27.8921 22.5 22.5C22.5 18.3579 19.1421 15 15 15C10.8579 15 7.5 18.3579 7.5 22.5C7.5 27.8921 15 35 15 35ZM15 26.25C12.9289 26.25 11.25 24.5711 11.25 22.5C11.25 20.4289 12.9289 18.75 15 18.75C17.0711 18.75 18.75 20.4289 18.75 22.5C18.75 24.5711 17.0711 26.25 15 26.25Z" fill="#FAFAFA"/>
<path d="M20.2072 26.1747C19.5522 27.5019 18.6656 28.8251 17.7572 30.0126C16.8516 31.1963 15.943 32.221 15.2596 32.9506C15.1688 33.0475 15.0821 33.1391 15 33.2251C14.9179 33.1391 14.8312 33.0475 14.7404 32.9506C14.057 32.221 13.1483 31.1963 12.2428 30.0126C11.3344 28.8251 10.4478 27.5019 9.79279 26.1747C9.13101 24.8338 8.75 23.5774 8.75 22.5C8.75 19.0482 11.5482 16.25 15 16.25C18.4518 16.25 21.25 19.0482 21.25 22.5C21.25 23.5774 20.869 24.8338 20.2072 26.1747ZM15 35C15 35 22.5 27.8921 22.5 22.5C22.5 18.3579 19.1421 15 15 15C10.8579 15 7.5 18.3579 7.5 22.5C7.5 27.8921 15 35 15 35Z" fill="#F77B5A"/>
<path d="M15 25C13.6193 25 12.5 23.8807 12.5 22.5C12.5 21.1193 13.6193 20 15 20C16.3807 20 17.5 21.1193 17.5 22.5C17.5 23.8807 16.3807 25 15 25ZM15 26.25C17.0711 26.25 18.75 24.5711 18.75 22.5C18.75 20.4289 17.0711 18.75 15 18.75C12.9289 18.75 11.25 20.4289 11.25 22.5C11.25 24.5711 12.9289 26.25 15 26.25Z" fill="#F77B5A"/>
<defs>
<clipPath id="clip0_782_1155">
<rect width="36" height="30" fill="white" transform="translate(2 5)"/>
</clipPath>
</defs>
</svg>
