<svg width="40" height="40" viewBox="0 0 40 40" fill="none" xmlns="http://www.w3.org/2000/svg">
<g clip-path="url(#clip0_782_996)">
<path d="M12.59 33.1002C10.7323 32.0545 9.45285 32.3129 8.28411 33.9983C7.50906 35.1179 7.26301 35.1671 6.09427 34.4535C3.83062 33.0756 1.91143 31.3902 0.927231 28.8436C0.791904 27.2197 1.56696 25.9402 2.60037 24.8453C4.18739 23.1475 5.79901 21.4498 7.55827 19.9366C8.44405 19.1738 9.64969 18.7679 10.7446 18.2635C11.901 17.7344 13.1067 17.2916 14.2877 16.8118C15.6656 16.5165 17.0312 16.2089 18.4214 15.9383C20.2913 15.5815 22.1613 15.2863 24.0313 14.9049C26.541 14.3882 29.0261 13.7484 31.5481 13.2932C32.2124 13.1702 32.9629 13.5393 33.6764 13.6869C34.3162 14.6711 35.1773 15.237 36.3953 15.3109C36.789 15.3355 37.2072 15.6553 37.5517 15.926C38.7451 16.8856 38.905 18.3619 39.3479 19.7028C39.4955 21.6097 39.311 23.4059 37.6624 24.71C37.1334 25.4358 36.5798 26.137 36.0754 26.8752C35.731 27.3796 35.4603 27.9209 35.1527 28.4376C34.7344 28.5975 34.3285 28.7575 33.9102 28.9297C32.7538 28.7821 31.8557 29.1511 30.8346 29.7909C29.8135 30.4306 28.4356 30.5782 27.193 30.7382C26.3073 30.8489 25.5445 30.8858 24.8925 31.6485C23.6499 33.1125 22.0137 33.3094 20.2421 32.7804C19.4179 32.5343 18.6428 32.5097 17.9293 33.1864C17.2895 33.8015 16.5268 33.457 15.8994 33.0756C15.0628 32.5835 14.2754 32.5835 13.4512 33.051C13.3773 33.051 13.3158 33.0633 13.2543 33.1002C13.0452 33.1002 12.836 33.1002 12.6146 33.1002H12.59Z" fill="#FAFAFA" stroke="#F77B5A" stroke-width="1.2" stroke-miterlimit="10"/>
</g>
<path d="M12.7603 24.0303C12.7603 24.0303 20.2603 16.9224 20.2603 11.5303C20.2603 7.38814 16.9024 4.03027 12.7603 4.03027C8.61812 4.03027 5.26025 7.38814 5.26025 11.5303C5.26025 16.9224 12.7603 24.0303 12.7603 24.0303ZM12.7603 15.2803C10.6892 15.2803 9.01025 13.6013 9.01025 11.5303C9.01025 9.45921 10.6892 7.78027 12.7603 7.78027C14.8313 7.78027 16.5103 9.45921 16.5103 11.5303C16.5103 13.6013 14.8313 15.2803 12.7603 15.2803Z" fill="#FAFAFA"/>
<path d="M17.9675 15.205C17.3124 16.5321 16.4258 17.8554 15.5174 19.0428C14.6119 20.2265 13.7033 21.2513 13.0199 21.9809C12.929 22.0778 12.8423 22.1694 12.7603 22.2554C12.6782 22.1694 12.5915 22.0778 12.5006 21.9809C11.8172 21.2513 10.9086 20.2265 10.0031 19.0428C9.09468 17.8554 8.20806 16.5321 7.55304 15.205C6.89126 13.8641 6.51025 12.6077 6.51025 11.5303C6.51025 8.07849 9.30847 5.28027 12.7603 5.28027C16.212 5.28027 19.0103 8.07849 19.0103 11.5303C19.0103 12.6077 18.6292 13.8641 17.9675 15.205ZM12.7603 24.0303C12.7603 24.0303 20.2603 16.9224 20.2603 11.5303C20.2603 7.38814 16.9024 4.03027 12.7603 4.03027C8.61812 4.03027 5.26025 7.38814 5.26025 11.5303C5.26025 16.9224 12.7603 24.0303 12.7603 24.0303Z" fill="#F77B5A"/>
<path d="M12.7603 14.0303C11.3795 14.0303 10.2603 12.911 10.2603 11.5303C10.2603 10.1496 11.3795 9.03027 12.7603 9.03027C14.141 9.03027 15.2603 10.1496 15.2603 11.5303C15.2603 12.911 14.141 14.0303 12.7603 14.0303ZM12.7603 15.2803C14.8313 15.2803 16.5103 13.6013 16.5103 11.5303C16.5103 9.45921 14.8313 7.78027 12.7603 7.78027C10.6892 7.78027 9.01025 9.45921 9.01025 11.5303C9.01025 13.6013 10.6892 15.2803 12.7603 15.2803Z" fill="#F77B5A"/>
<defs>
<clipPath id="clip0_782_996">
<rect width="39.7001" height="22.8949" fill="white" transform="translate(0.299805 12.6416)"/>
</clipPath>
</defs>
</svg>
