<svg width="40" height="40" viewBox="0 0 40 40" fill="none" xmlns="http://www.w3.org/2000/svg">
<g clip-path="url(#clip0_782_1045)">
<path d="M5.2051 11.6252C6.1946 11.0126 7.21944 10.4472 8.16181 9.75221C8.49164 9.50483 8.73902 8.96297 8.76258 8.5389C9.13953 3.15557 14.7702 2.33099 17.9861 3.4265C18.5162 3.6032 18.9756 4.03905 19.3879 4.43956C20.2949 5.33481 21.1431 6.27719 22.003 7.20779C23.9113 9.28102 24.7594 9.44593 27.4334 8.37398C30.1428 7.27847 32.8403 7.74966 35.5143 8.60957C35.691 9.13966 35.903 9.65797 36.0562 10.1881C36.2093 10.7417 36.1386 11.472 36.4685 11.8372C37.5993 13.0623 37.2577 14.311 36.8219 15.6185C36.4567 16.714 36.0915 17.7978 35.7381 18.8933C33.9005 19.1406 33.2173 19.7767 33.5 20.8605C33.6531 21.4141 33.5824 22.0149 33.712 22.5803C33.8063 22.9573 34.0654 23.2989 34.2539 23.6641C33.9594 25.1954 33.0406 24.4651 32.2513 24.2295C32.2513 22.4979 32.2867 20.7545 32.216 19.0228C32.1924 18.587 31.839 18.1511 31.6388 17.7271C31.0027 17.6682 30.3666 17.6093 29.7305 17.5504C29.5067 17.68 29.0826 17.8684 29.0944 17.9273C29.6951 20.0948 28.4818 22.6628 30.4844 24.5358C30.1899 26.9859 29.9189 29.4479 29.5891 31.8863C29.5067 32.4753 29.3064 33.1232 28.953 33.5826C28.1638 34.6192 27.1625 35.5027 26.385 36.5511C25.6547 37.5288 24.8537 37.835 23.7346 37.3756C23.7346 37.1283 23.7346 36.8809 23.7228 36.6335C24.5827 34.4896 23.5343 31.8392 21.4258 31.3915C20.1653 31.1206 19.5175 30.567 19.329 29.3654C19.1287 29.2123 18.9403 29.0474 18.74 28.8942C16.655 27.3275 14.57 25.7726 12.485 24.2059C12.3554 24.0174 12.2612 23.7936 12.108 23.6287C10.9536 22.3212 9.29267 22.2505 7.74952 21.8618C4.10959 20.9312 3.48527 19.1171 5.79409 16.2546C5.82943 16.2193 5.84121 16.1722 5.87655 16.1368C6.97206 15.1709 6.79537 14.2285 5.84121 13.2743C5.60561 13.0387 5.42892 12.7443 5.21688 12.4733C5.21688 12.1906 5.2051 11.9079 5.19332 11.6252H5.2051Z" fill="#FAFAFA" stroke="#F77B5A" stroke-width="1.3" stroke-miterlimit="10"/>
</g>
<circle cx="12.5441" cy="24.0546" r="4.13468" fill="#FAFAFA"/>
<path d="M11.9533 38.8211C11.9533 38.8211 20.8133 30.4243 20.8133 24.0544C20.8133 19.1611 16.8465 15.1943 11.9533 15.1943C7.06003 15.1943 3.09326 19.1611 3.09326 24.0544C3.09326 30.4243 11.9533 38.8211 11.9533 38.8211ZM11.9533 28.4844C9.50666 28.4844 7.52328 26.501 7.52328 24.0544C7.52328 21.6077 9.50666 19.6243 11.9533 19.6243C14.3999 19.6243 16.3833 21.6077 16.3833 24.0544C16.3833 26.501 14.3999 28.4844 11.9533 28.4844Z" fill="#FAFAFA"/>
<path d="M18.1048 28.3954C17.331 29.9633 16.2836 31.5265 15.2105 32.9292C14.1407 34.3276 13.0673 35.5381 12.26 36.4C12.1527 36.5146 12.0502 36.6228 11.9533 36.7243C11.8563 36.6228 11.7539 36.5146 11.6466 36.4C10.8393 35.5381 9.76587 34.3276 8.69611 32.9292C7.62301 31.5265 6.57562 29.9633 5.80182 28.3954C5.02003 26.8114 4.56993 25.3271 4.56993 24.0544C4.56993 19.9766 7.87557 16.671 11.9533 16.671C16.031 16.671 19.3366 19.9766 19.3366 24.0544C19.3366 25.3271 18.8865 26.8114 18.1048 28.3954ZM11.9533 38.8211C11.9533 38.8211 20.8133 30.4243 20.8133 24.0544C20.8133 19.1611 16.8465 15.1943 11.9533 15.1943C7.06003 15.1943 3.09326 19.1611 3.09326 24.0544C3.09326 30.4243 11.9533 38.8211 11.9533 38.8211Z" fill="#F77B5A"/>
<path d="M11.9533 27.0077C10.3222 27.0077 8.99995 25.6854 8.99995 24.0544C8.99995 22.4233 10.3222 21.101 11.9533 21.101C13.5844 21.101 14.9066 22.4233 14.9066 24.0544C14.9066 25.6854 13.5844 27.0077 11.9533 27.0077ZM11.9533 28.4844C14.3999 28.4844 16.3833 26.501 16.3833 24.0544C16.3833 21.6077 14.3999 19.6243 11.9533 19.6243C9.50666 19.6243 7.52328 21.6077 7.52328 24.0544C7.52328 26.501 9.50666 28.4844 11.9533 28.4844Z" fill="#F77B5A"/>
<defs>
<clipPath id="clip0_782_1045">
<rect width="34.3261" height="36.1166" fill="white" transform="translate(3.67383 2.23633)"/>
</clipPath>
</defs>
</svg>
