<svg width="20" height="20" viewBox="0 0 20 20" fill="none" xmlns="http://www.w3.org/2000/svg">
<path d="M5 7C3.89543 7 3 7.89543 3 9V9.5H2.5C2.22386 9.5 2 9.72386 2 10C2 10.2761 2.22386 10.5 2.5 10.5H3V11C3 12.1046 3.89543 13 5 13H6C7.65685 13 9 11.6569 9 10C9 9.44772 9.44771 9 10 9C10.5523 9 11 9.44772 11 10C11 11.6569 12.3431 13 14 13H15C16.1046 13 17 12.1046 17 11V10.5H17.5C17.7761 10.5 18 10.2761 18 10C18 9.72386 17.7761 9.5 17.5 9.5H17V9C17 7.89543 16.1046 7 15 7H13C12.1276 7 11.3857 7.55857 11.1123 8.33759C10.7943 8.12437 10.4117 8 10 8C9.58834 8 9.20573 8.12437 8.8877 8.33759C8.61434 7.55857 7.8724 7 7 7H5ZM5 8H5.94098C6.20479 8 6.28874 8.35563 6.05279 8.47361L5.59628 8.70186C5.20923 8.89539 4.89539 9.20923 4.70186 9.59628L4.47361 10.0528C4.35563 10.2887 4 10.2048 4 9.94098V9C4 8.44772 4.44772 8 5 8Z" fill="#666666"/>
</svg>
