<svg width="20" height="20" viewBox="0 0 20 20" fill="none" xmlns="http://www.w3.org/2000/svg">
<path d="M17 14C17 14.5523 16.5523 15 16 15H4C3.44772 15 3 14.5523 3 14V8C3 7.44772 3.44772 7 4 7H5.17157C5.96722 7 6.73028 6.68393 7.29289 6.12132L8.12132 5.29289C8.30886 5.10536 8.56321 5 8.82843 5H11.1716C11.4368 5 11.6911 5.10536 11.8787 5.29289L12.7071 6.12132C13.2697 6.68393 14.0328 7 14.8284 7H16C16.5523 7 17 7.44772 17 8V14ZM4 6C2.89543 6 2 6.89543 2 8V14C2 15.1046 2.89543 16 4 16H16C17.1046 16 18 15.1046 18 14V8C18 6.89543 17.1046 6 16 6H14.8284C14.298 6 13.7893 5.78929 13.4142 5.41421L12.5858 4.58579C12.2107 4.21071 11.702 4 11.1716 4H8.82843C8.29799 4 7.78929 4.21071 7.41421 4.58579L6.58579 5.41421C6.21071 5.78929 5.70201 6 5.17157 6H4Z" fill="#666666"/>
<path d="M10 13C8.61929 13 7.5 11.8807 7.5 10.5C7.5 9.11929 8.61929 8 10 8C11.3807 8 12.5 9.11929 12.5 10.5C12.5 11.8807 11.3807 13 10 13ZM10 14C11.933 14 13.5 12.433 13.5 10.5C13.5 8.567 11.933 7 10 7C8.067 7 6.5 8.567 6.5 10.5C6.5 12.433 8.067 14 10 14Z" fill="#666666"/>
<path d="M5 8.5C5 8.77614 4.77614 9 4.5 9C4.22386 9 4 8.77614 4 8.5C4 8.22386 4.22386 8 4.5 8C4.77614 8 5 8.22386 5 8.5Z" fill="#666666"/>
</svg>
