<svg width="20" height="20" viewBox="0 0 20 20" fill="none" xmlns="http://www.w3.org/2000/svg">
<path d="M8.95059 2.43468C9.53017 1.85511 10.4698 1.85511 11.0494 2.43468L17.5653 8.95059C18.1449 9.53017 18.1449 10.4698 17.5653 11.0494L11.0494 17.5653C10.4698 18.1449 9.53016 18.1449 8.95059 17.5653L2.43468 11.0494C1.85511 10.4698 1.85511 9.53016 2.43468 8.95059L8.95059 2.43468ZM10.3498 3.13428C10.1566 2.94109 9.84339 2.94109 9.6502 3.13428L3.13428 9.6502C2.94109 9.84339 2.94109 10.1566 3.13428 10.3498L9.6502 16.8657C9.84339 17.0589 10.1566 17.0589 10.3498 16.8657L16.8657 10.3498C17.0589 10.1566 17.0589 9.84339 16.8657 9.6502L10.3498 3.13428Z" fill="#666666"/>
<path d="M9.00154 13C9.00154 12.4477 9.44926 12 10.0015 12C10.5538 12 11.0015 12.4477 11.0015 13C11.0015 13.5523 10.5538 14 10.0015 14C9.44926 14 9.00154 13.5523 9.00154 13Z" fill="#666666"/>
<path d="M9.0995 6.99504C9.04623 6.46228 9.46459 6 10 6C10.5354 6 10.9538 6.46228 10.9005 6.99504L10.5498 10.5025C10.5215 10.7849 10.2838 11 10 11C9.71616 11 9.47849 10.7849 9.45025 10.5025L9.0995 6.99504Z" fill="#666666"/>
</svg>
