<svg width="20" height="20" viewBox="0 0 20 20" fill="none" xmlns="http://www.w3.org/2000/svg">
<path d="M10.2353 3.55882C10.0882 3.48039 9.91176 3.48039 9.76471 3.55882L2.26471 7.55882C2.10177 7.64572 2 7.81534 2 8C2 8.18466 2.10177 8.35428 2.26471 8.44118L5.1875 10L2.26471 11.5588C2.10177 11.6457 2 11.8153 2 12C2 12.1847 2.10177 12.3543 2.26471 12.4412L9.76471 16.4412C9.91176 16.5196 10.0882 16.5196 10.2353 16.4412L17.7353 12.4412C17.8982 12.3543 18 12.1847 18 12C18 11.8153 17.8982 11.6457 17.7353 11.5588L14.8125 10L17.7353 8.44118C17.8982 8.35428 18 8.18466 18 8C18 7.81534 17.8982 7.64572 17.7353 7.55882L10.2353 3.55882ZM10 11.4333L3.5625 8L10 4.56667L16.4375 8L10 11.4333Z" fill="#666666"/>
</svg>
