<svg width="20" height="20" viewBox="0 0 20 20" fill="none" xmlns="http://www.w3.org/2000/svg">
<path d="M15 10C15 10.5643 14.9065 11.1068 14.7342 11.6128L13.9202 10.7989C13.9725 10.5407 14 10.2736 14 10V9C14 8.72386 14.2239 8.5 14.5 8.5C14.7761 8.5 15 8.72386 15 9V10Z" fill="#666666"/>
<path d="M10 14C10.8179 14 11.5784 13.7545 12.212 13.3333L12.9304 14.0517C12.2339 14.5563 11.4022 14.8857 10.5 14.9753V17H13.5C13.7761 17 14 17.2239 14 17.5C14 17.7761 13.7761 18 13.5 18H6.5C6.22386 18 6 17.7761 6 17.5C6 17.2239 6.22386 17 6.5 17H9.5V14.9753C6.97334 14.7245 5 12.5927 5 10V9C5 8.72386 5.22386 8.5 5.5 8.5C5.77614 8.5 6 8.72386 6 9V10C6 12.2091 7.79086 14 10 14Z" fill="#666666"/>
<path d="M13 5V9.87868L12 8.87868V5C12 3.89543 11.1046 3 10 3C8.93501 3 8.06444 3.83241 8.00342 4.8821L7.15801 4.03669C7.55931 2.85237 8.68011 2 10 2C11.6569 2 13 3.34315 13 5Z" fill="#666666"/>
<path d="M11.4856 12.6069L10.7381 11.8594C10.5097 11.9501 10.2607 12 10 12C8.89543 12 8 11.1046 8 10V9.12132L7 8.12132V10C7 11.6569 8.34315 13 10 13C10.5405 13 11.0476 12.8571 11.4856 12.6069Z" fill="#666666"/>
<path d="M3.64648 3.35353L15.6465 15.3535L16.3536 14.6464L4.35359 2.64642L3.64648 3.35353Z" fill="#666666"/>
</svg>
