<svg width="20" height="20" viewBox="0 0 20 20" fill="none" xmlns="http://www.w3.org/2000/svg">
<path d="M16.7629 2.07468C16.9103 2.16578 17 2.32671 17 2.5V17.5C17 17.7761 16.7761 18 16.5 18H13.5C13.2239 18 13 17.7761 13 17.5V16H12V17.5C12 17.7761 11.7761 18 11.5 18H2.5C2.22386 18 2 17.7761 2 17.5V12C2 11.7848 2.13772 11.5937 2.34189 11.5257L8 9.63962V6.5C8 6.31061 8.107 6.13748 8.27639 6.05279L16.2764 2.05279C16.4314 1.97529 16.6155 1.98357 16.7629 2.07468ZM8 10.6937L3 12.3604V17H8V10.6937ZM9 17H11V15.5C11 15.2239 11.2239 15 11.5 15H13.5C13.7761 15 14 15.2239 14 15.5V17H16V3.30902L9 6.80902V17Z" fill="#666666"/>
<path d="M4 13H5V14H4V13Z" fill="#666666"/>
<path d="M6 13H7V14H6V13Z" fill="#666666"/>
<path d="M4 15H5V16H4V15Z" fill="#666666"/>
<path d="M6 15H7V16H6V15Z" fill="#666666"/>
<path d="M10 11H11V12H10V11Z" fill="#666666"/>
<path d="M12 11H13V12H12V11Z" fill="#666666"/>
<path d="M10 13H11V14H10V13Z" fill="#666666"/>
<path d="M12 13H13V14H12V13Z" fill="#666666"/>
<path d="M14 11H15V12H14V11Z" fill="#666666"/>
<path d="M14 13H15V14H14V13Z" fill="#666666"/>
<path d="M10 9H11V10H10V9Z" fill="#666666"/>
<path d="M12 9H13V10H12V9Z" fill="#666666"/>
<path d="M14 9H15V10H14V9Z" fill="#666666"/>
<path d="M10 7H11V8H10V7Z" fill="#666666"/>
<path d="M12 7H13V8H12V7Z" fill="#666666"/>
<path d="M14 7H15V8H14V7Z" fill="#666666"/>
<path d="M14 5H15V6H14V5Z" fill="#666666"/>
</svg>
