<svg width="20" height="20" viewBox="0 0 20 20" fill="none" xmlns="http://www.w3.org/2000/svg">
<path d="M4.8438 7.89062C5.09222 7.88997 5.3369 7.8301 5.55755 7.71597C5.77821 7.60184 5.96847 7.43674 6.11255 7.23438C6.42132 7.83155 6.86283 8.35002 7.40317 8.75L7.37817 8.85L7.31567 8.86875L4.15005 10.2125C3.85474 10.3402 3.61215 10.5652 3.46273 10.8502C3.31331 11.1351 3.26611 11.4626 3.32899 11.7781C3.39187 12.0937 3.56104 12.3781 3.80828 12.5839C4.05551 12.7898 4.36586 12.9047 4.68755 12.9094C4.88072 12.9159 5.07318 12.8829 5.25317 12.8125L6.54067 12.2625L5.7938 15.2937C5.77942 15.3618 5.78037 15.4323 5.79659 15.4999C5.81281 15.5676 5.84389 15.6308 5.88758 15.6849C5.93126 15.7391 5.98645 15.7828 6.04915 15.813C6.11185 15.8432 6.18047 15.859 6.25005 15.8594H6.7188V17.7344C6.7188 18.1073 6.86696 18.465 7.13068 18.7287C7.3944 18.9925 7.75209 19.1406 8.12505 19.1406C8.49801 19.1406 8.85569 18.9925 9.11942 18.7287C9.38314 18.465 9.5313 18.1073 9.5313 17.7344V15.8594H10.4688V17.7344C10.4688 18.1073 10.617 18.465 10.8807 18.7287C11.1444 18.9925 11.5021 19.1406 11.875 19.1406C12.248 19.1406 12.6057 18.9925 12.8694 18.7287C13.1331 18.465 13.2813 18.1073 13.2813 17.7344V15.8594H13.75C13.8212 15.8597 13.8915 15.8437 13.9555 15.8126C14.0196 15.7815 14.0756 15.7362 14.1194 15.68C14.1631 15.6239 14.1934 15.5585 14.208 15.4888C14.2225 15.4191 14.2208 15.3471 14.2032 15.2781L13.4563 12.2406L14.7625 12.8125C14.9365 12.8865 15.1235 12.9248 15.3125 12.925C15.493 12.9202 15.671 12.8821 15.8375 12.8125C16.096 12.7088 16.3179 12.5307 16.4751 12.3007C16.6322 12.0708 16.7175 11.7994 16.7202 11.5209C16.7229 11.2424 16.6428 10.9693 16.4901 10.7364C16.3374 10.5035 16.119 10.3211 15.8625 10.2125L12.7 8.86875C12.6739 8.85758 12.6467 8.8492 12.6188 8.84375L12.5969 8.75C13.1361 8.35011 13.5775 7.83292 13.8875 7.2375C14.0431 7.45594 14.2522 7.63068 14.4948 7.7449C14.7374 7.85912 15.0053 7.90899 15.2728 7.8897C15.5402 7.8704 15.7982 7.78261 16.0219 7.63475C16.2456 7.48689 16.4275 7.28395 16.5501 7.04545C16.6727 6.80696 16.7318 6.54093 16.7218 6.27296C16.7118 6.005 16.633 5.74412 16.493 5.51542C16.353 5.28672 16.1565 5.09791 15.9224 4.96714C15.6883 4.83637 15.4244 4.76805 15.1563 4.76875C14.8798 4.77402 14.6099 4.85392 14.375 5C14.375 3.83968 13.9141 2.72688 13.0936 1.90641C12.2732 1.08594 11.1604 0.625 10 0.625C8.83973 0.625 7.72693 1.08594 6.90646 1.90641C6.08599 2.72688 5.62505 3.83968 5.62505 5C5.38597 4.85394 5.11146 4.77613 4.8313 4.775C4.4169 4.775 4.01947 4.93962 3.72644 5.23265C3.43342 5.52567 3.2688 5.9231 3.2688 6.3375C3.2688 6.7519 3.43342 7.14933 3.72644 7.44235C4.01947 7.73538 4.4169 7.9 4.8313 7.9L4.8438 7.89062ZM11.7532 9.24063L13.15 14.9219H6.84692L8.12505 9.78438C8.1264 9.77715 8.1264 9.76973 8.12505 9.7625L8.25317 9.24375C8.80567 9.48684 9.40269 9.61237 10.0063 9.61237C10.6099 9.61237 11.2069 9.48684 11.7594 9.24375L11.7532 9.24063ZM4.87817 11.9344C4.8213 11.9584 4.76021 11.9707 4.69849 11.9707C4.63677 11.9707 4.57567 11.9584 4.5188 11.9344C4.46044 11.9108 4.40738 11.8758 4.36276 11.8314C4.31814 11.787 4.28285 11.7341 4.25897 11.6759C4.2351 11.6176 4.22311 11.5552 4.22372 11.4923C4.22434 11.4293 4.23754 11.3671 4.26255 11.3094C4.30825 11.195 4.39685 11.1031 4.50942 11.0531L7.0938 9.95625L6.81567 11.0906L4.87817 11.9344ZM8.5938 17.7344C8.5938 17.8587 8.54441 17.9779 8.4565 18.0658C8.3686 18.1537 8.24937 18.2031 8.12505 18.2031C8.00073 18.2031 7.8815 18.1537 7.79359 18.0658C7.70569 17.9779 7.6563 17.8587 7.6563 17.7344V15.8594H8.5938V17.7344ZM12.3438 17.7344C12.3438 17.8587 12.2944 17.9779 12.2065 18.0658C12.1186 18.1537 11.9994 18.2031 11.875 18.2031C11.7507 18.2031 11.6315 18.1537 11.5436 18.0658C11.4557 17.9779 11.4063 17.8587 11.4063 17.7344V15.8594H12.3438V17.7344ZM15.4938 11.0719C15.6087 11.1205 15.6997 11.2126 15.7469 11.3281C15.7708 11.3845 15.7831 11.445 15.7831 11.5063C15.7831 11.5675 15.7708 11.628 15.7469 11.6844C15.7233 11.7416 15.6885 11.7934 15.6445 11.8369C15.6004 11.8804 15.5481 11.9146 15.4907 11.9375C15.4343 11.9614 15.3738 11.9737 15.3125 11.9737C15.2513 11.9737 15.1908 11.9614 15.1344 11.9375L13.1813 11.1063L12.9 9.97188L15.4938 11.0719ZM10 8.67188C9.25199 8.67167 8.52441 8.42745 7.92772 7.97627C7.33104 7.52509 6.89782 6.89158 6.6938 6.17188C7.75902 6.00203 8.75161 5.52529 9.55005 4.8C9.7091 4.6472 9.85935 4.48548 10 4.31563C10.4346 4.78327 10.9573 5.1604 11.5381 5.42533C12.1189 5.69027 12.7464 5.83777 13.3844 5.85938C13.2382 6.64995 12.8196 7.36429 12.2013 7.87814C11.5829 8.39199 10.804 8.67285 10 8.67188ZM15.1563 5.70312C15.2799 5.70312 15.4008 5.73978 15.5035 5.80846C15.6063 5.87713 15.6864 5.97474 15.7337 6.08895C15.781 6.20315 15.7934 6.32882 15.7693 6.45006C15.7452 6.57129 15.6856 6.68266 15.5982 6.77007C15.5108 6.85747 15.3995 6.917 15.2782 6.94112C15.157 6.96523 15.0313 6.95285 14.9171 6.90555C14.8029 6.85824 14.7053 6.77814 14.6366 6.67536C14.568 6.57258 14.5313 6.45174 14.5313 6.32812C14.5313 6.16236 14.5971 6.00339 14.7144 5.88618C14.8316 5.76897 14.9905 5.70312 15.1563 5.70312ZM13.4375 4.92188C12.8883 4.90198 12.3492 4.76775 11.8547 4.52777C11.3602 4.28779 10.9212 3.94733 10.5657 3.52813C10.8492 3.05398 11.0599 2.53991 11.1907 2.00312C11.8035 2.22635 12.3402 2.61933 12.738 3.13615C13.1359 3.65298 13.3785 4.27233 13.4375 4.92188ZM10 1.79688H10.2438C10.1246 2.29905 9.92175 2.7776 9.6438 3.2125C9.6095 3.24731 9.58101 3.2874 9.55942 3.33125C9.37309 3.60699 9.15608 3.86069 8.91255 4.0875C8.25727 4.68998 7.44067 5.08851 6.56255 5.23438C6.56255 4.32269 6.92471 3.44835 7.56937 2.8037C8.21403 2.15904 9.08837 1.79688 10 1.79688ZM4.8438 5.70312C4.96741 5.70312 5.08825 5.73978 5.19103 5.80846C5.29381 5.87713 5.37392 5.97474 5.42122 6.08895C5.46853 6.20315 5.48091 6.32882 5.45679 6.45006C5.43267 6.57129 5.37315 6.68266 5.28574 6.77007C5.19833 6.85747 5.08697 6.917 4.96573 6.94112C4.84449 6.96523 4.71883 6.95285 4.60462 6.90555C4.49042 6.85824 4.39281 6.77814 4.32413 6.67536C4.25545 6.57258 4.2188 6.45174 4.2188 6.32812C4.2188 6.16236 4.28465 6.00339 4.40186 5.88618C4.51907 5.76897 4.67804 5.70312 4.8438 5.70312Z" fill="#666666"/>
</svg>
