<svg width="20" height="20" viewBox="0 0 20 20" fill="none" xmlns="http://www.w3.org/2000/svg">
<path d="M5.05025 5.05033C2.31658 7.784 2.31658 12.2162 5.05025 14.9498C5.24551 15.1451 5.24551 15.4617 5.05025 15.6569C4.85499 15.8522 4.53841 15.8522 4.34315 15.6569C1.21895 12.5327 1.21895 7.46742 4.34315 4.34322C4.53841 4.14796 4.85499 4.14796 5.05025 4.34322C5.24551 4.53849 5.24551 4.85507 5.05025 5.05033ZM7.17157 7.17165C5.60948 8.73375 5.60948 11.2664 7.17157 12.8285C7.36684 13.0238 7.36683 13.3404 7.17157 13.5356C6.97631 13.7309 6.65973 13.7309 6.46447 13.5356C4.51184 11.583 4.51184 8.41717 6.46447 6.46454C6.65973 6.26928 6.97631 6.26928 7.17157 6.46454C7.36683 6.65981 7.36684 6.97639 7.17157 7.17165ZM12.8284 6.46454C13.0237 6.26928 13.3403 6.26928 13.5355 6.46454C15.4882 8.41717 15.4882 11.583 13.5355 13.5356C13.3403 13.7309 13.0237 13.7309 12.8284 13.5356C12.6332 13.3404 12.6332 13.0238 12.8284 12.8285C14.3905 11.2664 14.3905 8.73375 12.8284 7.17165C12.6332 6.97639 12.6332 6.65981 12.8284 6.46454ZM14.9497 4.34322C15.145 4.14796 15.4616 4.14796 15.6569 4.34322C18.781 7.46742 18.781 12.5327 15.6569 15.6569C15.4616 15.8522 15.145 15.8522 14.9497 15.6569C14.7545 15.4617 14.7545 15.1451 14.9497 14.9498C17.6834 12.2162 17.6834 7.784 14.9497 5.05033C14.7545 4.85507 14.7545 4.53849 14.9497 4.34322Z" fill="#666666"/>
<path d="M8.00009 10.0001C8.00009 8.8955 8.89552 8.00007 10.0001 8.00007C11.1047 8.00007 12.0001 8.8955 12.0001 10.0001C12.0001 10.932 11.3627 11.715 10.5001 11.9371V17.5001C10.5001 17.7762 10.2762 18.0001 10.0001 18.0001C9.72395 18.0001 9.50009 17.7762 9.50009 17.5001V11.9371C8.63747 11.715 8.00009 10.932 8.00009 10.0001Z" fill="#666666"/>
</svg>
