<svg width="20" height="20" viewBox="0 0 20 20" fill="none" xmlns="http://www.w3.org/2000/svg">
<path d="M10.5 7.03437V8.13484L11.453 7.58461L11.953 8.45064L11 9.00088L11.953 9.55112L11.453 10.4171L10.5 9.86691V10.9674H9.5V9.86689L8.54694 10.4171L8.04694 9.55112L8.99998 9.00088L8.04694 8.45064L8.54694 7.58461L9.5 8.13486V7.03437H10.5Z" fill="#666666"/>
<path d="M15.25 11C15.1119 11 15 11.1119 15 11.25V11.75C15 11.8881 15.1119 12 15.25 12H15.75C15.8881 12 16 11.8881 16 11.75V11.25C16 11.1119 15.8881 11 15.75 11H15.25Z" fill="#666666"/>
<path d="M15 13.25C15 13.1119 15.1119 13 15.25 13H15.75C15.8881 13 16 13.1119 16 13.25V13.75C16 13.8881 15.8881 14 15.75 14H15.25C15.1119 14 15 13.8881 15 13.75V13.25Z" fill="#666666"/>
<path d="M15.25 15C15.1119 15 15 15.1119 15 15.25V15.75C15 15.8881 15.1119 16 15.25 16H15.75C15.8881 16 16 15.8881 16 15.75V15.25C16 15.1119 15.8881 15 15.75 15H15.25Z" fill="#666666"/>
<path d="M4.25 11C4.11193 11 4 11.1119 4 11.25V11.75C4 11.8881 4.11193 12 4.25 12H4.75C4.88807 12 5 11.8881 5 11.75V11.25C5 11.1119 4.88807 11 4.75 11H4.25Z" fill="#666666"/>
<path d="M4.25 13C4.11193 13 4 13.1119 4 13.25V13.75C4 13.8881 4.11193 14 4.25 14H4.75C4.88807 14 5 13.8881 5 13.75V13.25C5 13.1119 4.88807 13 4.75 13H4.25Z" fill="#666666"/>
<path d="M4 15.25C4 15.1119 4.11193 15 4.25 15H4.75C4.88807 15 5 15.1119 5 15.25V15.75C5 15.8881 4.88807 16 4.75 16H4.25C4.11193 16 4 15.8881 4 15.75V15.25Z" fill="#666666"/>
<path d="M7 3C7 2.44772 7.44772 2 8 2H12C12.5523 2 13 2.44772 13 3V4C13.5523 4 14 4.44772 14 5V9H17C17.5523 9 18 9.44772 18 10V17C18 17.5523 17.5523 18 17 18H3C2.44772 18 2 17.5523 2 17V10C2 9.44772 2.44772 9 3 9H6V5C6 4.44772 6.44771 4 7 4V3ZM9 17H11V14H9V17ZM12 17H13V5L7 5V17H8V14C8 13.4477 8.44772 13 9 13H11C11.5523 13 12 13.4477 12 14V17ZM12 3H8V4H12V3ZM14 10V17H17V10H14ZM6 17V10H3V17H6Z" fill="#666666"/>
</svg>
