<svg width="20" height="20" viewBox="0 0 20 20" fill="none" xmlns="http://www.w3.org/2000/svg">
<path d="M2 5.5C2 4.67157 2.67157 4 3.5 4H12.5C13.3284 4 14 4.67157 14 5.5V7H15.0194C15.4751 7 15.906 7.20713 16.1907 7.56296L17.6713 9.41374C17.8841 9.67971 18 10.0102 18 10.3508V12.5C18 13.3284 17.3284 14 16.5 14H16C16 15.1046 15.1046 16 14 16C12.8954 16 12 15.1046 12 14H7C7 15.1046 6.10457 16 5 16C3.89543 16 3 15.1046 3 14C3 13.9716 3.00059 13.9434 3.00176 13.9153C2.41824 13.7098 2 13.1538 2 12.5V5.5ZM3.29396 12.9557C3.64562 12.3824 4.27815 12 5 12C5.74028 12 6.38663 12.4022 6.73244 13H12.2676C12.4432 12.6964 12.6964 12.4432 13 12.2676V5.5C13 5.22386 12.7761 5 12.5 5H3.5C3.22386 5 3 5.22386 3 5.5V12.5C3 12.7027 3.1206 12.8772 3.29396 12.9557ZM14 12C14.7403 12 15.3866 12.4022 15.7324 13H16.5C16.7761 13 17 12.7761 17 12.5V10.3508C17 10.2372 16.9614 10.1271 16.8904 10.0384L15.4098 8.18765C15.3149 8.06905 15.1713 8 15.0194 8H14V12ZM5 13C4.44772 13 4 13.4477 4 14C4 14.5523 4.44772 15 5 15C5.55228 15 6 14.5523 6 14C6 13.4477 5.55228 13 5 13ZM14 13C13.4477 13 13 13.4477 13 14C13 14.5523 13.4477 15 14 15C14.5523 15 15 14.5523 15 14C15 13.4477 14.5523 13 14 13Z" fill="#666666"/>
</svg>
