<svg width="20" height="20" viewBox="0 0 20 20" fill="none" xmlns="http://www.w3.org/2000/svg">
<path d="M10 2C9.21296 2 8.70753 2.59191 8.42779 3.15139C8.13915 3.72866 8 4.43164 8 5V8.69098L6 9.69098V9.5C6 9.22386 5.77614 9 5.5 9H4.5C4.22386 9 4 9.22386 4 9.5V10.691L2.82918 11.2764C2.321 11.5305 2 12.0499 2 12.618V14C2 14.147 2.06467 14.2865 2.17681 14.3815C2.28896 14.4765 2.43722 14.5174 2.5822 14.4932L4.2134 14.2213L4.52566 15.1581C4.59372 15.3623 4.78478 15.5 5 15.5C5.21522 15.5 5.40628 15.3623 5.47434 15.1581L5.87914 13.9437L8.089 13.5754L8.4645 15.8284L7.14645 17.1464C7.00345 17.2894 6.96067 17.5045 7.03806 17.6913C7.11545 17.8782 7.29777 18 7.5 18H12.5C12.7022 18 12.8845 17.8782 12.9619 17.6913C13.0393 17.5045 12.9966 17.2894 12.8536 17.1464L11.5355 15.8284L11.911 13.5754L14.1209 13.9437L14.5257 15.1581C14.5937 15.3623 14.7848 15.5 15 15.5C15.2152 15.5 15.4063 15.3623 15.4743 15.1581L15.7866 14.2213L17.4178 14.4932C17.5628 14.5174 17.711 14.4765 17.8232 14.3815C17.9353 14.2865 18 14.147 18 14V12.618C18 12.0499 17.679 11.5305 17.1708 11.2764L16 10.691V9.5C16 9.22386 15.7761 9 15.5 9H14.5C14.2239 9 14 9.22386 14 9.5V9.69098L12 8.69098V5C12 4.43164 11.8608 3.72866 11.5722 3.15139C11.2925 2.59191 10.787 2 10 2ZM9 5C9 4.56836 9.11085 4.02134 9.32221 3.59861C9.54247 3.15809 9.78704 3 10 3C10.213 3 10.4575 3.15809 10.6778 3.59861C10.8892 4.02134 11 4.56836 11 5V9C11 9.18939 11.107 9.36252 11.2764 9.44721L16.7236 12.1708C16.893 12.2555 17 12.4286 17 12.618V13.4098L11.5822 12.5068C11.3098 12.4614 11.0522 12.6454 11.0068 12.9178L10.5068 15.9178C10.4803 16.0771 10.5323 16.2394 10.6464 16.3536L11.2929 17H8.70711L9.35355 16.3536C9.46773 16.2394 9.51974 16.0771 9.4932 15.9178L8.9932 12.9178C8.9478 12.6454 8.69019 12.4614 8.4178 12.5068L3 13.4098V12.618C3 12.4286 3.107 12.2555 3.27639 12.1708L8.72361 9.44721C8.893 9.36252 9 9.18939 9 9V5Z" fill="#666666"/>
</svg>
