<svg width="20" height="20" viewBox="0 0 20 20" fill="none" xmlns="http://www.w3.org/2000/svg">
<path d="M7 12.5C7 12.2239 7.22386 12 7.5 12H9.5C9.77614 12 10 12.2239 10 12.5C10 12.7761 9.77614 13 9.5 13H7.5C7.22386 13 7 12.7761 7 12.5Z" fill="#666666"/>
<path d="M7 10.5C7 10.2239 7.22386 10 7.5 10H12.5C12.7761 10 13 10.2239 13 10.5C13 10.7761 12.7761 11 12.5 11H7.5C7.22386 11 7 10.7761 7 10.5Z" fill="#666666"/>
<path d="M7 8.5C7 8.22386 7.22386 8 7.5 8H12.5C12.7761 8 13 8.22386 13 8.5C13 8.77614 12.7761 9 12.5 9H7.5C7.22386 9 7 8.77614 7 8.5Z" fill="#666666"/>
<path d="M7 6.5C7 6.22386 7.22386 6 7.5 6H12.5C12.7761 6 13 6.22386 13 6.5C13 6.77614 12.7761 7 12.5 7H7.5C7.22386 7 7 6.77614 7 6.5Z" fill="#666666"/>
<path d="M5 2H15C16.1046 2 17 2.89543 17 4V16C17 17.1046 16.1046 18 15 18H5C3.89543 18 3 17.1046 3 16V15H4V16C4 16.5523 4.44772 17 5 17H15C15.5523 17 16 16.5523 16 16V4C16 3.44772 15.5523 3 15 3H5C4.44772 3 4 3.44772 4 4V5H3V4C3 2.89543 3.89543 2 5 2Z" fill="#666666"/>
<path d="M3 7V6.5C3 6.22386 3.22386 6 3.5 6C3.77614 6 4 6.22386 4 6.5V7H4.5C4.77614 7 5 7.22386 5 7.5C5 7.77614 4.77614 8 4.5 8H2.5C2.22386 8 2 7.77614 2 7.5C2 7.22386 2.22386 7 2.5 7H3Z" fill="#666666"/>
<path d="M3 10V9.5C3 9.22386 3.22386 9 3.5 9C3.77614 9 4 9.22386 4 9.5V10H4.5C4.77614 10 5 10.2239 5 10.5C5 10.7761 4.77614 11 4.5 11H2.5C2.22386 11 2 10.7761 2 10.5C2 10.2239 2.22386 10 2.5 10H3Z" fill="#666666"/>
<path d="M3 13V12.5C3 12.2239 3.22386 12 3.5 12C3.77614 12 4 12.2239 4 12.5V13H4.5C4.77614 13 5 13.2239 5 13.5C5 13.7761 4.77614 14 4.5 14H2.5C2.22386 14 2 13.7761 2 13.5C2 13.2239 2.22386 13 2.5 13H3Z" fill="#666666"/>
</svg>
