<svg width="20" height="20" viewBox="0 0 20 20" fill="none" xmlns="http://www.w3.org/2000/svg">
<path d="M13 10C13 11.6569 11.6569 13 10 13C8.34315 13 7 11.6569 7 10C7 8.34315 8.34315 7 10 7C11.6569 7 13 8.34315 13 10Z" fill="#666666"/>
<path d="M16 16V6.5L11.5 2H6C4.89543 2 4 2.89543 4 4V16C4 17.1046 4.89543 18 6 18H14C15.1046 18 16 17.1046 16 16ZM11.5 5C11.5 5.82843 12.1716 6.5 13 6.5H15V15.7553C15 15.7553 14 14 10 14C6 14 5 15.7554 5 15.7554V4C5 3.44772 5.44772 3 6 3H11.5V5Z" fill="#666666"/>
</svg>
