<svg width="20" height="20" viewBox="0 0 20 20" fill="none" xmlns="http://www.w3.org/2000/svg">
<path d="M5.3335 10.3333C4.87201 10.3333 4.42089 10.4702 4.03717 10.7266C3.65346 10.983 3.35439 11.3474 3.17778 11.7737C3.00118 12.2001 2.95497 12.6693 3.045 13.1219C3.13504 13.5745 3.35727 13.9903 3.68359 14.3166C4.00991 14.6429 4.42567 14.8651 4.87829 14.9552C5.33092 15.0452 5.80007 14.999 6.22643 14.8224C6.65279 14.6458 7.01721 14.3467 7.2736 13.963C7.52999 13.5793 7.66684 13.1282 7.66684 12.6667C7.66609 12.0481 7.42002 11.455 6.98259 11.0176C6.54517 10.5802 5.95211 10.3341 5.3335 10.3333ZM5.3335 14.3333C5.00387 14.3333 4.68164 14.2356 4.40755 14.0525C4.13347 13.8693 3.91985 13.609 3.7937 13.3045C3.66756 12.9999 3.63455 12.6648 3.69886 12.3415C3.76317 12.0182 3.9219 11.7212 4.15499 11.4882C4.38808 11.2551 4.68505 11.0963 5.00835 11.032C5.33166 10.9677 5.66677 11.0007 5.97131 11.1269C6.27585 11.253 6.53615 11.4666 6.71929 11.7407C6.90242 12.0148 7.00017 12.337 7.00017 12.6667C6.99976 13.1086 6.82404 13.5323 6.51156 13.8447C6.19909 14.1572 5.77541 14.3329 5.3335 14.3333ZM6.00017 12.6667C6.00017 12.7985 5.96107 12.9274 5.88782 13.037C5.81456 13.1467 5.71044 13.2321 5.58863 13.2826C5.46681 13.333 5.33276 13.3462 5.20344 13.3205C5.07412 13.2948 4.95533 13.2313 4.8621 13.1381C4.76886 13.0448 4.70537 12.926 4.67965 12.7967C4.65392 12.6674 4.66713 12.5334 4.71758 12.4115C4.76804 12.2897 4.85349 12.1856 4.96312 12.1124C5.07276 12.0391 5.20165 12 5.3335 12C5.51031 12 5.67988 12.0702 5.80491 12.1953C5.92993 12.3203 6.00017 12.4899 6.00017 12.6667ZM13.2931 12.5117C13.1388 12.667 12.9552 12.7902 12.7529 12.874C12.5506 12.9578 12.3337 13.0006 12.1148 13H9.00017C8.95639 13 8.91303 12.9914 8.87258 12.9747C8.83213 12.9579 8.79537 12.9334 8.76441 12.9024C8.73345 12.8715 8.7089 12.8347 8.69216 12.7943C8.67542 12.7538 8.66681 12.7104 8.66684 12.6667C8.66807 12.1382 8.54335 11.6171 8.30301 11.1465C8.06268 10.6758 7.71364 10.2692 7.28484 9.96039C6.85604 9.65155 6.35981 9.44934 5.83727 9.37052C5.31473 9.2917 4.78093 9.33854 4.28011 9.50716C4.19619 9.53503 4.10464 9.52848 4.02555 9.48894C3.94646 9.44939 3.88629 9.38008 3.85824 9.29623L3.0171 6.77213C2.9979 6.71454 2.9948 6.6528 3.00813 6.59358C3.02146 6.53435 3.0507 6.47989 3.09272 6.43607C3.13473 6.39225 3.18791 6.36073 3.24652 6.34492C3.30513 6.32911 3.36695 6.3296 3.4253 6.34635L7.92269 7.63151C8.52891 7.20238 9.25768 6.98084 10.0002 7C11.4546 7 12.8439 8.37239 12.9025 8.43099C12.964 8.4937 12.9982 8.57814 12.9978 8.66596C12.9973 8.75377 12.9622 8.83786 12.9001 8.89995C12.838 8.96204 12.754 8.99713 12.6661 8.99757C12.5783 8.99801 12.4939 8.96378 12.4312 8.90232C12.4188 8.89 11.1772 7.66667 10.0002 7.66667C9.36121 7.63313 8.73232 7.83642 8.23389 8.23763C8.19149 8.27851 8.13917 8.30763 8.08209 8.32213C8.02501 8.33662 7.96513 8.33599 7.90837 8.3203L3.84978 7.16081L4.38949 8.7819C4.69835 8.70547 5.01533 8.66678 5.3335 8.66667C6.33632 8.66794 7.30219 9.04531 8.04026 9.7242C8.77833 10.4031 9.23493 11.3341 9.31983 12.3333H12.1148C12.3798 12.3325 12.6339 12.2273 12.8218 12.0404L15.2554 9.60677C15.288 9.57426 15.3135 9.53534 15.3303 9.49247C15.3471 9.4496 15.3549 9.40371 15.353 9.3577C15.3512 9.31169 15.3398 9.26656 15.3197 9.22516C15.2995 9.18376 15.271 9.147 15.2359 9.11719L11.2105 5.66667H9.3335C9.2451 5.66667 9.16031 5.63155 9.0978 5.56904C9.03529 5.50652 9.00017 5.42174 9.00017 5.33333C9.00017 5.24493 9.03529 5.16014 9.0978 5.09763C9.16031 5.03512 9.2451 5 9.3335 5H11.3335C11.413 5.00015 11.4898 5.02853 11.5503 5.08008L15.6701 8.61133C15.7748 8.70097 15.8599 8.81129 15.9199 8.93537C15.98 9.05945 16.0137 9.19461 16.019 9.33235C16.0244 9.47009 16.0011 9.60744 15.9509 9.73579C15.9006 9.86413 15.8243 9.98068 15.7268 10.0781L13.2931 12.5117ZM17.0002 12.6667C17.001 13.1706 16.8384 13.6611 16.5368 14.0648C16.2352 14.4685 15.8108 14.7635 15.3274 14.9055C14.8439 15.0476 14.3274 15.029 13.8554 14.8527C13.3833 14.6763 12.9812 14.3517 12.7093 13.9274C12.9341 13.8742 13.1509 13.7915 13.354 13.6814C13.4944 13.865 13.6715 14.0173 13.8741 14.1284C14.0768 14.2396 14.3003 14.3073 14.5306 14.3271C14.7608 14.3469 14.9927 14.3185 15.2113 14.2436C15.4299 14.1686 15.6305 14.0489 15.8002 13.892C15.9699 13.7351 16.105 13.5446 16.1968 13.3325C16.2887 13.1204 16.3352 12.8915 16.3335 12.6604C16.3318 12.4293 16.2819 12.2011 16.1869 11.9904C16.092 11.7797 15.9541 11.5912 15.7821 11.4368L16.2531 10.9658C16.4881 11.1825 16.6757 11.4455 16.8043 11.7382C16.9328 12.0309 16.9995 12.347 17.0002 12.6667ZM15.0698 12.1491C15.1506 12.2093 15.2164 12.2873 15.2622 12.377C15.3079 12.4668 15.3323 12.5659 15.3335 12.6667C15.3335 12.8435 15.2633 13.013 15.1382 13.1381C15.0132 13.2631 14.8436 13.3333 14.6668 13.3333C14.5661 13.3322 14.467 13.3078 14.3772 13.262C14.2875 13.2163 14.2095 13.1504 14.1493 13.0696L15.0698 12.1491Z" fill="#666666"/>
</svg>
