<svg width="20" height="20" viewBox="0 0 20 20" fill="none" xmlns="http://www.w3.org/2000/svg">
<path fill-rule="evenodd" clip-rule="evenodd" d="M12.9615 14.3653C13.2394 14.068 13.4276 13.6858 13.483 13.2618L16.5939 14.6444C17.2551 14.9383 18 14.4543 18 13.7306V6.26938C18 5.54572 17.2551 5.06166 16.5939 5.35557L13.483 6.73817C13.3548 5.75732 12.5158 5 11.5 5H6.27193L6.98621 6H11.5C12.0523 6 12.5 6.44772 12.5 7V13C12.5 13.1894 12.4473 13.3665 12.3559 13.5175L12.9615 14.3653ZM3.42788 6.17973C3.1692 6.36048 3 6.66048 3 7V13C3 13.5523 3.44772 14 4 14H9.01379L9.72807 15H4C2.89543 15 2 14.1046 2 13V7C2 6.32499 2.3344 5.72808 2.84658 5.3659L3.42788 6.17973ZM17 13.7306L13.5 12.1751V7.82494L17 6.26938L17 13.7306Z" fill="#666666"/>
<path fill-rule="evenodd" clip-rule="evenodd" d="M12.593 17.2907L2.59302 3.29071L3.40675 2.70947L13.4068 16.7095L12.593 17.2907Z" fill="#666666"/>
</svg>
