<svg width="24" height="24" viewBox="0 0 24 24" fill="none" xmlns="http://www.w3.org/2000/svg">
<mask id="mask0_654_547" style="mask-type:alpha" maskUnits="userSpaceOnUse" x="0" y="0" width="24" height="24">
<path d="M11.9999 10.2036C9.50969 10.2036 6.97241 13.1051 6.97241 15.9527C6.97241 15.979 6.97241 16.0052 6.97497 16.0315C6.97648 16.2732 6.99789 16.5145 7.03897 16.7527L7.04633 16.7889C7.04633 16.7924 7.05497 16.8308 7.05593 16.8347C7.09945 17.0211 7.16252 17.2025 7.24409 17.3758C7.2631 17.4217 7.28446 17.4667 7.30809 17.5105C7.34169 17.5745 7.37561 17.6385 7.41593 17.7025C7.45625 17.7665 7.49689 17.8283 7.53017 17.8724C7.5621 17.9193 7.59706 17.9641 7.63481 18.0065C8.07417 18.5255 8.70297 18.8231 9.35993 18.8231C9.87349 18.823 10.3711 18.6448 10.7679 18.3188C11.0436 18.0819 11.3808 17.928 11.7404 17.875C11.9115 17.8534 12.0846 17.8534 12.2556 17.875C12.621 17.928 12.9636 18.0846 13.2428 18.3262C13.6381 18.6483 14.1325 18.824 14.6425 18.8238C15.3443 18.8238 15.999 18.4926 16.4345 17.9214C16.4556 17.8948 16.4767 17.8647 16.486 17.8503C16.5126 17.8129 16.5391 17.7761 16.5756 17.7204C16.6121 17.6587 16.6489 17.594 16.6857 17.5239C16.702 17.4919 16.7177 17.4571 16.7292 17.4327C16.8247 17.2418 16.8974 17.0403 16.9459 16.8324L16.9551 16.7879L16.965 16.7396C17.0054 16.5053 17.0268 16.2682 17.029 16.0305C17.031 16.0043 17.0316 15.978 17.0316 15.9518C17.0287 13.1051 14.4902 10.2036 11.9999 10.2036ZM16.2467 16.6676C16.2097 16.8244 16.1542 16.9762 16.0812 17.1198L16.0467 17.1934C16.0179 17.2478 15.9871 17.3019 15.9663 17.338C15.9455 17.3742 15.9231 17.4004 15.8934 17.4423L15.8665 17.4795C15.5635 17.8769 15.1167 18.1051 14.6409 18.1051C14.2984 18.1053 13.9662 17.9879 13.6998 17.7726C13.3174 17.4458 12.8499 17.2347 12.3519 17.1639C12.117 17.1319 11.8787 17.1319 11.6438 17.1639C11.1511 17.2349 10.6886 17.4438 10.3097 17.7665C10.0418 17.9855 9.70657 18.1053 9.36057 18.1057C8.91513 18.1057 8.48601 17.9006 8.18169 17.5412C8.15863 17.5155 8.13725 17.4884 8.11769 17.4599C8.08569 17.4164 8.05529 17.371 8.02809 17.3275C7.99609 17.2766 7.97049 17.2254 7.93561 17.1591C7.92868 17.147 7.92269 17.1344 7.91769 17.1214C7.91252 17.1064 7.90654 17.0918 7.89977 17.0775C7.83825 16.9499 7.79072 16.816 7.75801 16.6782L7.74617 16.6206C7.71135 16.4203 7.69369 16.2174 7.69337 16.0142C7.69337 15.9998 7.69337 15.9659 7.69081 15.9521C7.69081 13.5073 9.90585 10.9214 11.9999 10.9214C14.094 10.9214 16.3103 13.5079 16.3103 15.9527V15.9723C16.3087 15.9864 16.3078 16.0006 16.3078 16.0148C16.3078 16.2181 16.2904 16.4209 16.2559 16.6212L16.2467 16.6676Z" fill="#666666"/>
<path d="M6.2527 8.04883C5.2607 8.04883 4.45654 9.01587 4.45654 10.204C4.45654 11.3922 5.2623 12.3595 6.2527 12.3595C7.2431 12.3595 8.04854 11.3925 8.04854 10.204C8.04854 9.01555 7.24278 8.04883 6.2527 8.04883ZM6.2527 11.6408C5.65846 11.6408 5.17494 10.9963 5.17494 10.204C5.17494 9.41171 5.65846 8.76819 6.2527 8.76819C6.84694 8.76819 7.33014 9.41299 7.33014 10.205C7.33014 10.997 6.8479 11.6408 6.2527 11.6408Z" fill="#666666"/>
<path d="M9.84474 5.1748C8.85434 5.1748 8.04858 6.14152 8.04858 7.33C8.04858 8.51849 8.85434 9.48521 9.84474 9.48521C10.8351 9.48521 11.6406 8.51849 11.6406 7.33C11.6406 6.14152 10.8351 5.1748 9.84474 5.1748ZM9.84474 8.7668C9.2505 8.7668 8.76698 8.12232 8.76698 7.33C8.76698 6.53768 9.2505 5.8932 9.84474 5.8932C10.439 5.8932 10.9222 6.538 10.9222 7.33C10.9222 8.122 10.439 8.76776 9.84474 8.76776V8.7668Z" fill="#666666"/>
<path d="M14.1552 5.1748C13.1632 5.1748 12.3594 6.14152 12.3594 7.33C12.3594 8.51849 13.1648 9.48521 14.1552 9.48521C15.1456 9.48521 15.9514 8.51849 15.9514 7.33C15.9514 6.14152 15.1456 5.1748 14.1552 5.1748ZM14.1552 8.7668C13.561 8.7668 13.0778 8.12232 13.0778 7.33C13.0778 6.53768 13.561 5.8932 14.1552 5.8932C14.7495 5.8932 15.232 6.538 15.232 7.33C15.232 8.122 14.7495 8.76776 14.1552 8.76776V8.7668Z" fill="#666666"/>
<path d="M17.7473 8.04883C16.7572 8.04883 15.9514 9.01587 15.9514 10.204C15.9514 11.3922 16.7572 12.3595 17.7473 12.3595C18.7373 12.3595 19.5434 11.3925 19.5434 10.204C19.5434 9.01555 18.7377 8.04883 17.7473 8.04883ZM17.7473 11.6408C17.153 11.6408 16.6698 10.9963 16.6698 10.204C16.6698 9.41171 17.1521 8.76819 17.7473 8.76819C18.3425 8.76819 18.825 9.41299 18.825 10.205C18.825 10.997 18.3415 11.6408 17.7473 11.6408Z" fill="#666666"/>
</mask>
<g mask="url(#mask0_654_547)">
<rect x="4" y="5" width="16" height="19.5188" fill="#666666"/>
</g>
</svg>
