<svg width="12" height="12" viewBox="0 0 12 12" fill="none" xmlns="http://www.w3.org/2000/svg">
<path d="M9 12C10.6569 12 12 10.6569 12 9C12 7.34315 10.6569 6 9 6C7.34315 6 6 7.34315 6 9C6 10.6569 7.34315 12 9 12ZM9.42857 7.71429V8.57143H10.2857C10.5224 8.57143 10.7143 8.76331 10.7143 9C10.7143 9.23669 10.5224 9.42857 10.2857 9.42857H9.42857V10.2857C9.42857 10.5224 9.23669 10.7143 9 10.7143C8.76331 10.7143 8.57143 10.5224 8.57143 10.2857V9.42857H7.71429C7.47759 9.42857 7.28571 9.23669 7.28571 9C7.28571 8.76331 7.47759 8.57143 7.71429 8.57143H8.57143V7.71429C8.57143 7.47759 8.76331 7.28571 9 7.28571C9.23669 7.28571 9.42857 7.47759 9.42857 7.71429Z" fill="black"/>
<path d="M7.71429 2.57143C7.71429 3.99159 6.56302 5.14286 5.14286 5.14286C3.7227 5.14286 2.57143 3.99159 2.57143 2.57143C2.57143 1.15127 3.7227 0 5.14286 0C6.56302 0 7.71429 1.15127 7.71429 2.57143ZM5.14286 4.28571C6.08963 4.28571 6.85714 3.5182 6.85714 2.57143C6.85714 1.62465 6.08963 0.857143 5.14286 0.857143C4.19608 0.857143 3.42857 1.62465 3.42857 2.57143C3.42857 3.5182 4.19608 4.28571 5.14286 4.28571Z" fill="black"/>
<path d="M5.36234 10.2857C5.26555 10.0119 5.19881 9.72385 5.16607 9.42559H0.857143C0.858364 9.21406 0.988932 8.58038 1.57037 7.99895C2.12945 7.43987 3.18076 6.85714 5.14285 6.85714C5.36613 6.85714 5.57762 6.86469 5.77793 6.87889C5.97093 6.58631 6.2027 6.32158 6.46593 6.092C6.06607 6.03272 5.62627 6 5.14286 6C0.857143 6 0 8.57143 0 9.42857C0 10.2857 0.857143 10.2857 0.857143 10.2857H5.36234Z" fill="black"/>
</svg>
