<svg width="16" height="16" viewBox="0 0 16 16" fill="none" xmlns="http://www.w3.org/2000/svg">
<path d="M13.95 7.32023C13.7725 7.07004 13.6358 6.79327 13.545 6.50023C13.4851 6.19911 13.4699 5.89079 13.5 5.58523C13.5365 5.34515 13.5142 5.09979 13.435 4.87023C13.2731 4.68468 13.0691 4.54065 12.84 4.45023C12.5613 4.32293 12.3034 4.15438 12.075 3.95023C11.8708 3.72179 11.7023 3.4639 11.575 3.18523C11.4846 2.95617 11.3405 2.75213 11.155 2.59023C10.9198 2.49844 10.6653 2.46749 10.415 2.50023C10.1094 2.52791 9.80141 2.51277 9.49999 2.45523C9.21219 2.363 8.94058 2.22635 8.69499 2.05023C8.49279 1.89057 8.25388 1.784 7.99999 1.74023C7.75137 1.78636 7.51787 1.89281 7.31999 2.05023C7.0698 2.22776 6.79302 2.36446 6.49999 2.45523C6.19887 2.51517 5.89054 2.53034 5.58499 2.50023C5.34491 2.4637 5.09955 2.48601 4.86999 2.56523C4.68245 2.73138 4.53828 2.94076 4.44999 3.17523C4.32269 3.4539 4.15413 3.71179 3.94999 3.94023C3.72155 4.14438 3.46365 4.31293 3.18499 4.44023C2.95593 4.53065 2.75189 4.67468 2.58999 4.86023C2.5007 5.09079 2.46978 5.33984 2.49999 5.58523C2.53009 5.89079 2.51493 6.19911 2.45499 6.50023C2.36276 6.78803 2.22611 7.05964 2.04999 7.30523C1.89033 7.50743 1.78376 7.74634 1.73999 8.00023C1.78612 8.24885 1.89257 8.48235 2.04999 8.68023C2.22751 8.93043 2.36421 9.2072 2.45499 9.50023C2.51493 9.80136 2.53009 10.1097 2.49999 10.4152C2.46346 10.6553 2.48577 10.9007 2.56499 11.1302C2.72689 11.3158 2.93093 11.4598 3.15999 11.5502C3.43865 11.6775 3.69655 11.8461 3.92499 12.0502C4.12913 12.2787 4.29769 12.5366 4.42499 12.8152C4.5154 13.0443 4.65943 13.2483 4.84499 13.4102C5.07455 13.4895 5.31991 13.5118 5.55999 13.4752H5.88499C6.08866 13.4696 6.29217 13.4915 6.48999 13.5402C6.77779 13.6325 7.0494 13.7691 7.29499 13.9452C7.49287 14.1027 7.72637 14.2091 7.97499 14.2552C8.22361 14.2091 8.45711 14.1027 8.65499 13.9452C8.91317 13.7671 9.19854 13.632 9.49999 13.5452C9.80112 13.4853 10.1094 13.4701 10.415 13.5002C10.6551 13.5368 10.9004 13.5145 11.13 13.4352C11.3155 13.2733 11.4596 13.0693 11.55 12.8402C11.6773 12.5616 11.8458 12.3037 12.05 12.0752C12.2784 11.8711 12.5363 11.7025 12.815 11.5752C13.0441 11.4848 13.2481 11.3408 13.41 11.1552C13.5018 10.9201 13.5327 10.6655 13.5 10.4152C13.4699 10.1097 13.4851 9.80136 13.545 9.50023C13.6372 9.21244 13.7739 8.94083 13.95 8.69523C14.1097 8.49304 14.2162 8.25412 14.26 8.00023C14.2139 7.75162 14.1074 7.51812 13.95 7.32023ZM9.49999 8.77523L9.84499 10.8002L7.99999 9.84523L6.17999 10.8002L6.52499 8.77523L5.05499 7.34023L7.08999 7.04523L7.99999 5.20023L8.90999 7.04523L10.945 7.34023L9.49999 8.77523Z" fill="#0786D0"/>
</svg>
