<svg width="12" height="12" viewBox="0 0 12 12" fill="none" xmlns="http://www.w3.org/2000/svg">
<path d="M10.125 0.75C9.50368 0.75 9 1.25368 9 1.875C9 2.49632 9.50368 3 10.125 3C10.7463 3 11.25 2.49632 11.25 1.875C11.25 1.25368 10.7463 0.75 10.125 0.75ZM8.25 1.875C8.25 0.839466 9.08947 0 10.125 0C11.1605 0 12 0.839466 12 1.875C12 2.91053 11.1605 3.75 10.125 3.75C9.55579 3.75 9.04583 3.49636 8.70196 3.09594L3.66374 5.43615C3.71978 5.61411 3.75 5.80353 3.75 6C3.75 6.19647 3.71978 6.38589 3.66374 6.56385L8.70196 8.90406C9.04583 8.50364 9.5558 8.25 10.125 8.25C11.1605 8.25 12 9.08947 12 10.125C12 11.1605 11.1605 12 10.125 12C9.08947 12 8.25 11.1605 8.25 10.125C8.25 9.92853 8.28022 9.73911 8.33626 9.56115L3.29804 7.22094C2.95417 7.62136 2.44421 7.875 1.875 7.875C0.839466 7.875 0 7.03553 0 6C0 4.96447 0.839466 4.125 1.875 4.125C2.44421 4.125 2.95417 4.37864 3.29804 4.77906L8.33626 2.43885C8.28022 2.26089 8.25 2.07147 8.25 1.875ZM1.875 4.875C1.25368 4.875 0.75 5.37868 0.75 6C0.75 6.62132 1.25368 7.125 1.875 7.125C2.49632 7.125 3 6.62132 3 6C3 5.37868 2.49632 4.875 1.875 4.875ZM10.125 9C9.50368 9 9 9.50368 9 10.125C9 10.7463 9.50368 11.25 10.125 11.25C10.7463 11.25 11.25 10.7463 11.25 10.125C11.25 9.50368 10.7463 9 10.125 9Z" fill="black"/>
</svg>
