<svg width="40" height="40" viewBox="0 0 40 40" fill="none" xmlns="http://www.w3.org/2000/svg">
<g clip-path="url(#clip0_597_3745)">
<path d="M13.253 34.8936C13.2099 34.8427 13.1755 34.7833 13.1669 34.7749C12.685 35.1142 12.2289 35.4706 11.7297 35.759C11.2822 36.022 11.3855 36.5057 11.1789 36.8535C11.1187 36.9553 11.0326 37.0486 10.9638 37.142C10.9294 37.1674 10.895 37.1929 10.8605 37.2268C10.7573 37.2608 10.6454 37.3032 10.5421 37.3371C10.3958 37.2862 10.2581 37.2353 10.1118 37.1844C10.1118 36.7517 10.2237 36.2935 9.71595 35.8269V36.6329C9.75898 37.0232 9.52662 37.2523 9.22542 37.4474C9.09633 37.5323 8.99306 37.651 8.88118 37.7528C8.80373 37.914 8.73488 38.0922 8.65743 38.2619C8.62301 38.2874 8.59719 38.3213 8.56277 38.3467C8.56277 38.3637 8.57137 38.3892 8.57998 38.4061C8.43368 38.4231 8.28738 38.4316 8.14108 38.4486C8.0206 38.3043 7.90872 38.1601 7.75382 37.9734C7.79685 37.8547 7.85709 37.7104 7.85709 37.6935C7.75382 37.3201 7.69358 37.0741 7.62473 36.8281C7.59031 36.7602 7.55588 36.7008 7.52146 36.6329C7.38377 36.599 7.24607 36.5566 7.10838 36.5226C6.93626 36.4378 6.76415 36.3529 6.59203 36.2596C6.53179 36.1748 6.47155 36.0899 6.41131 36.0136C6.4027 35.9796 6.39409 35.9457 6.37688 35.9033C6.34246 35.8269 6.31664 35.759 6.28222 35.6827C6.32525 35.4112 6.35967 35.1397 6.4027 34.8767C6.42852 34.8512 6.45433 34.8173 6.48015 34.7918C6.57482 34.8258 6.67809 34.8512 6.77275 34.8852C6.8502 35.0548 6.92766 35.233 7.00511 35.4027C6.92766 35.776 7.10838 35.9711 7.40098 36.0899C7.36655 35.8099 7.34074 35.5894 7.31492 35.3603C7.46122 35.4112 7.59891 35.4621 7.77964 35.5215C8.08945 35.3094 8.0206 35.1312 7.65915 35.0209C7.52146 34.9785 7.37516 34.9954 7.22886 34.9785C7.16862 34.9361 7.09977 34.9021 7.03953 34.8597C7.06535 34.7664 7.09117 34.673 7.11698 34.5882C7.32353 34.5712 7.53007 34.5628 7.73661 34.5458C7.73661 34.4949 7.73661 34.444 7.73661 34.3931C7.59891 34.3931 7.46122 34.3761 7.32353 34.3761C7.2891 34.2658 7.24607 34.1555 7.21165 34.0452V32.9423C7.34074 32.5944 7.46982 32.255 7.5817 31.9072C7.59891 31.8563 7.49564 31.7714 7.44401 31.7035C7.29771 31.5084 7.16001 31.3218 7.01371 31.1266C6.95347 31.0757 6.88463 31.0333 6.82439 30.9824C6.549 30.8806 6.58342 30.7109 6.68669 30.4988C6.95347 29.9812 7.21165 29.4637 7.46982 28.9377C7.48704 28.8698 7.50425 28.8019 7.53007 28.734C7.71939 28.3438 8.0206 28.1232 8.48532 28.0977C8.64022 28.0892 8.79513 27.928 8.98445 27.8093C8.52834 27.5293 7.84848 28.1062 7.65055 27.385C8.04642 27.0117 8.41647 26.6469 8.79513 26.2906C8.93282 26.1972 9.06191 26.1039 9.1996 26.0021C9.26845 25.9851 9.33729 25.9682 9.41475 25.9512C9.56965 25.8239 9.79341 26.333 9.91389 25.9003C10.0602 25.7306 10.2409 25.5864 10.3356 25.3912C10.413 25.2215 10.4302 25.001 10.3958 24.8143C10.3872 24.7464 10.129 24.6192 10.0774 24.6531C9.9311 24.7549 9.83643 24.9161 9.71595 25.0603C9.61268 25.0943 9.50081 25.1282 9.39754 25.1706C9.22542 25.1622 9.0533 25.1452 8.88118 25.1367C8.80373 25.0094 8.73488 24.8822 8.65743 24.7464C8.51974 24.6955 8.39065 24.6446 8.25296 24.5937L8.27877 24.4834C8.59719 24.424 8.92421 24.3561 9.25124 24.2968C9.18239 24.1356 9.13075 23.9998 9.07051 23.8556C8.94143 23.6689 8.81234 23.4907 8.68325 23.3041C8.4681 23.1599 8.25296 23.0241 8.03781 22.8799C8.03781 22.8629 8.03781 22.8459 8.03781 22.829C8.1669 22.3708 8.36483 21.9042 7.92594 21.4545C8.02921 21.3782 8.13248 21.3103 8.26156 21.2254C8.13248 21.1151 8.02921 21.0303 7.92594 20.9455C7.90012 20.92 7.8743 20.8861 7.84848 20.8606C7.79685 20.2243 7.74521 19.588 7.67637 18.9601C7.67637 18.9347 7.53007 18.9262 7.44401 18.9092C7.39237 18.9092 7.33213 18.9092 7.2805 18.9177C7.24607 18.9177 7.22026 18.9177 7.19444 18.8923C7.10838 18.6377 7.01371 18.3747 6.92766 18.1202C6.87602 18.1202 6.82439 18.1202 6.77275 18.1202C6.77275 18.239 6.75554 18.3662 6.77275 18.485C6.78996 18.6292 6.8416 18.765 6.88463 18.9007C7.01371 19.2401 7.1428 19.588 7.2805 19.9273C7.31492 19.9952 7.34934 20.0546 7.38377 20.1225C7.39237 20.2158 7.40098 20.3176 7.40958 20.411C7.40958 20.4534 7.40958 20.4958 7.40958 20.5382C7.30631 20.8521 7.12559 20.7758 6.96208 20.6146C6.85881 20.5128 6.77275 20.36 6.73833 20.2243C6.63506 19.7152 6.5576 19.1977 6.47155 18.6886C6.44573 18.6208 6.41991 18.5444 6.39409 18.4765L6.36828 18.468C6.29943 18.4087 6.23058 18.3408 6.17034 18.2814C6.15313 18.2475 6.14452 18.222 6.14452 18.1881C6.20476 18.1626 6.26501 18.1287 6.21337 18.1541C5.98101 17.9166 5.74865 17.679 5.5249 17.4414C5.63678 17.3566 5.74865 17.2633 5.87774 17.1615C5.71423 16.7542 5.8175 16.5761 6.26501 16.627C6.36828 16.7033 6.46294 16.7712 6.56621 16.8475C6.57482 16.873 6.58342 16.9069 6.59203 16.9324C6.59203 17.0342 6.59203 17.136 6.59203 17.2293L6.89323 16.9663C7.05674 16.7288 7.22886 16.4997 7.39237 16.2621C7.40958 16.2367 7.4268 16.2197 7.45261 16.1858C7.41819 16.2112 7.40098 16.2282 7.37516 16.2452C7.26328 16.1603 7.12559 16.0924 7.03953 15.9906C6.97069 15.8973 6.95347 15.7616 6.89323 15.5834C7.1428 15.6258 7.4354 15.6682 7.728 15.7107C7.77103 15.804 7.81406 15.8973 7.86569 15.9822C7.90012 15.9482 7.94315 15.9228 7.97757 15.8888C7.89151 15.8294 7.81406 15.77 7.728 15.7107C7.78824 15.5155 7.84848 15.3119 7.88291 15.1846C8.43368 15.3713 8.91561 15.524 9.39754 15.6852C9.61268 15.8464 9.87086 15.9652 10.0344 16.1688C10.1807 16.3555 10.2323 16.6185 10.327 16.8475C10.3098 16.9239 10.2925 17.0003 10.2753 17.0851C10.3098 17.0851 10.3356 17.1021 10.37 17.1021C10.3872 17.0087 10.413 16.9154 10.4302 16.8221C10.5937 16.6779 10.7573 16.5336 10.9294 16.3809C10.8433 16.3215 10.7487 16.2621 10.6454 16.1943C10.5851 16.1349 10.5163 16.067 10.4561 16.0076C10.5335 15.9567 10.697 15.8634 10.6884 15.8549C10.4991 15.4731 10.413 14.981 9.82783 14.9895C9.82783 14.9216 9.82783 14.8537 9.82783 14.7859C10.0602 14.6416 10.2839 14.4974 10.5163 14.3532C10.1807 14.0986 9.85365 13.8356 9.48359 13.5556C9.50941 13.5217 9.60408 13.386 9.69874 13.2587C9.76759 13.2248 9.83643 13.1908 9.90528 13.1569C9.96552 13.0805 10.0946 12.9617 10.0774 12.9278C9.74177 12.3254 9.38893 11.723 9.02748 11.1376C8.98445 11.0697 8.84676 11.0528 8.7607 11.0104C8.70046 11.0104 8.63161 11.0104 8.57137 11.0104C8.57137 10.9085 8.57137 10.8067 8.57137 10.7049C9.15657 10.5607 8.52834 10.1619 8.72628 9.94982C8.98445 10.0347 9.23402 10.1195 9.48359 10.1959C9.55244 10.1959 9.62129 10.1959 9.69013 10.1959C9.76759 10.2553 9.84504 10.3146 9.94831 10.3995C9.98273 9.96679 9.50081 9.17775 9.17378 9.07594L9.15657 9.05897C9.191 8.82141 9.22542 8.58385 9.26845 8.34629C9.30287 8.34629 9.33729 8.34629 9.37172 8.34629C9.42335 8.39719 9.46638 8.4481 9.51802 8.50749C9.56965 8.41416 9.64711 8.32932 9.68153 8.22751C9.76759 7.93056 9.82783 7.62512 9.89668 7.32817C10.0688 7.2603 10.2409 7.20939 10.3958 7.11607C10.4216 7.0991 10.3356 6.92093 10.3098 6.81063C10.3528 6.70882 10.3958 6.60701 10.4388 6.5052C11.0413 6.44581 11.79 5.46163 11.7211 4.82531H11.7383C12.3493 4.87621 12.8313 4.62168 12.9001 4.21444C13.4939 4.18898 14.0877 3.92597 14.6901 4.21444C14.6901 4.25686 14.6901 4.30776 14.6901 4.35019C14.7332 4.452 14.7848 4.54532 14.8278 4.64714C14.9225 4.54532 15.0086 4.452 15.1032 4.35019C15.1032 4.2908 15.1032 4.23141 15.1032 4.17202C15.2151 4.12959 15.3184 4.05324 15.4302 4.05324C15.8433 4.04475 16.2478 4.05324 16.6609 4.06172C16.833 4.55381 17.0998 4.6641 17.3838 4.35867C17.4182 4.30776 17.4526 4.24837 17.487 4.19747C17.5559 4.1805 17.6247 4.15505 17.6936 4.13808C17.9001 4.17202 18.1067 4.20595 18.3132 4.23989C18.5197 4.23989 18.7263 4.23989 18.9328 4.23989C19.2254 4.63865 19.4406 4.16353 19.7073 4.16353C19.9655 4.16353 19.9913 3.93445 19.8623 3.72235C20.0344 3.55266 20.2151 3.38298 20.3872 3.21329C20.4474 3.27268 20.5077 3.33207 20.5593 3.39994C20.6712 3.28116 20.8691 3.17087 20.8691 3.05209C20.8777 2.7212 21.0585 2.59394 21.3425 2.51758C21.4371 2.75514 21.5404 3.00118 21.6351 3.23874C21.6006 3.36601 21.506 3.51024 21.5404 3.62054C21.6265 3.92597 21.7555 4.23141 21.8932 4.51987C22.0137 4.7744 22.16 5.02893 22.3149 5.26649C22.3407 5.30891 22.4956 5.26649 22.5989 5.26649C22.6419 5.43617 22.685 5.60586 22.728 5.78403C22.7452 5.98765 22.7538 6.19128 22.7968 6.38642C22.7968 6.41187 22.9948 6.40338 23.1067 6.41187C23.2099 6.51368 23.3218 6.61549 23.4251 6.72579C23.3734 6.86154 23.2444 7.03971 23.2874 7.13303C23.4595 7.46392 23.6832 7.76087 23.8984 8.06631C24.0189 8.22751 24.1824 8.38022 24.2598 8.02388C24.3287 8.15115 24.4061 8.27841 24.475 8.40568C24.4578 8.8808 25.1204 9.77165 25.5765 9.87346C25.611 9.87346 25.654 9.82255 25.697 9.7971C25.697 9.94982 25.7142 10.0941 25.7142 10.2468C25.6626 10.6031 25.697 10.9001 26.1617 10.917C26.2392 11.0782 26.308 11.2394 26.3855 11.4006C26.0499 11.6127 26.2392 11.8503 26.3855 12.0454C26.8588 12.6818 27.3924 13.2672 27.3838 14.1495C27.3838 14.3701 27.401 14.9131 27.9776 14.718C28.3218 14.9046 28.3304 15.2101 28.2702 15.541C27.7796 15.9228 27.8657 17.2718 28.4079 17.6366C28.4681 17.679 28.5714 17.6705 28.6488 17.679C28.6488 17.7129 28.6488 17.7469 28.6488 17.7808C28.4509 18.0184 28.2271 18.2475 28.0464 18.502C27.8657 18.7565 28.0464 18.8159 28.2702 18.8159C28.2702 18.9517 28.2702 19.0874 28.2702 19.2231C28.2013 19.3419 28.1067 19.4522 28.0808 19.571C27.9431 20.2243 27.8313 20.8861 27.685 21.5309C27.5731 22.006 27.7968 22.6932 28.1411 22.795C28.2185 23.1344 28.7263 23.5332 27.969 23.7453C28.1497 23.9319 28.2874 24.0847 28.4767 24.2798C28.7521 24.0337 29.0017 23.7962 29.2684 23.5501C29.5438 23.8471 29.3545 24.0846 29.2512 24.3901C29.0103 25.1367 28.8812 25.9173 28.6919 26.6893C28.6488 26.859 28.5542 27.0202 28.4853 27.1899C28.1067 27.3766 28.4165 27.5378 28.5025 27.7074C28.4939 27.8093 28.4853 27.9111 28.4767 28.0129C28.3734 28.1232 28.2788 28.2335 28.1755 28.3438C28.0808 28.5898 27.9345 28.8274 27.9087 29.0734C27.8571 29.4722 27.8141 29.7691 27.3752 30.0067C27.1256 30.1424 27.0998 30.643 26.9277 30.9484C26.833 31.1181 26.6351 31.2454 26.4888 31.3896C26.4027 31.4745 26.3339 31.5848 26.2306 31.6442C26.1015 31.712 25.938 31.7375 25.7917 31.7884C25.7659 31.7544 25.7487 31.712 25.7228 31.6781C25.7142 31.7205 25.697 31.7714 25.6884 31.8138C25.6884 31.8478 25.6884 31.8817 25.6712 31.9072C25.4991 31.992 25.3184 32.0684 25.1462 32.1532V32.1362C25.1032 32.0259 25.0516 31.9241 25.0086 31.8138C24.8881 31.8732 24.7676 31.9326 24.6557 31.992C24.4492 31.9496 24.2426 31.9157 24.0361 31.8732C23.9242 31.6357 23.8123 31.6442 23.7263 31.8902C23.5886 31.8223 23.4509 31.7545 23.3132 31.6866C23.0378 31.5508 22.7624 31.4236 22.487 31.2963L22.2891 31.2284C22.2461 31.4151 22.2116 31.6102 22.1686 31.7969C22.0309 31.7969 21.8932 31.7969 21.7555 31.8054C21.6695 31.8478 21.5748 31.8987 21.4888 31.9411C21.549 32.0344 21.6006 32.1278 21.6609 32.2126C21.6953 32.2805 21.7383 32.3484 21.7728 32.4077C21.6265 32.4841 21.4888 32.552 21.3511 32.6368C21.3339 32.6453 21.3855 32.7556 21.4027 32.815C21.4199 33.0186 21.4285 33.2307 21.4457 33.4343C21.3941 33.5446 21.3425 33.6549 21.2994 33.7567C21.1101 33.7143 20.9208 33.6719 20.7314 33.6295C20.7314 33.4598 20.7487 33.2901 20.7573 33.1204C20.611 33.1374 20.4561 33.1628 20.3098 33.1798C20.2065 33.1968 20.1032 33.2053 19.9999 33.2222C19.9311 33.2562 19.8623 33.2986 19.7934 33.3325C19.6557 33.375 19.518 33.4089 19.3803 33.4513C19.3115 33.4089 19.2426 33.3665 19.1738 33.3325C18.907 33.2137 18.6746 33.078 18.7521 32.7301C18.7521 32.6283 18.7521 32.535 18.7521 32.4332C18.6488 32.552 18.5542 32.6792 18.4509 32.798C18.1841 32.8829 17.8055 32.5689 17.7194 33.0356C17.7968 33.2222 17.8141 33.4089 17.8227 33.5955C17.8227 33.7483 17.7452 33.9943 17.8055 34.0367C17.9431 34.1301 18.1583 34.1216 18.339 34.147C18.4165 34.1131 18.4853 34.0791 18.5628 34.0537C18.5972 34.0537 18.623 34.0537 18.6574 34.0537C18.6919 34.0876 18.7263 34.1216 18.7607 34.1555C18.7607 34.2913 18.7779 34.427 18.7779 34.5712C18.7779 34.6391 18.7951 34.707 18.8037 34.7749C18.6316 34.8767 18.4509 35.0548 18.2874 35.0464C18.1755 35.0379 18.0808 34.7664 17.9604 34.5797C17.9259 34.6137 17.8657 34.6646 17.8313 34.724C17.7968 34.7918 17.7796 34.8767 17.7624 34.953C17.7108 34.97 17.6505 34.987 17.5989 35.0039C17.5387 34.8343 17.4698 34.6646 17.4096 34.4949C17.3579 34.4185 17.3063 34.3422 17.2547 34.2573C17.2547 34.0282 17.2375 33.8076 17.2289 33.5786C17.3235 33.4513 17.4182 33.324 17.5559 33.1374H16.79C16.7555 33.0525 16.7297 32.9762 16.6953 32.8913C16.592 33.0016 16.4802 33.1119 16.3769 33.2137C16.1531 33.2986 15.9294 33.3834 15.6626 33.4852C15.611 33.9943 15.7831 34.1216 16.3425 33.8925C16.4543 33.8501 16.5748 33.8416 16.6867 33.8076C16.6867 34.164 16.6867 34.5203 16.6867 34.8767C16.6867 34.9021 16.6867 34.9276 16.6867 34.953C16.4802 34.9191 16.2822 34.8767 16.0068 34.8258C15.9638 34.9785 15.9036 35.1736 15.8433 35.3688C15.7831 35.4366 15.7142 35.5045 15.654 35.5724C15.2237 35.5809 15.37 35.2754 15.3614 35.0548C15.5249 34.9191 15.8003 34.8088 15.4819 34.5628C15.3958 34.4609 15.3184 34.3506 15.2323 34.2488C15.2323 34.2064 15.2323 34.164 15.2237 34.1216C15.1462 34.0198 15.0774 33.9179 15.0516 33.8755C14.7332 33.9519 14.4492 34.0113 14.1652 34.0791C14.1394 34.0791 14.1049 34.0791 14.0791 34.0791C14.1049 34.0961 14.1308 34.1216 14.148 34.1385C14.148 34.3422 14.148 34.5373 14.148 34.7409C13.9931 34.7833 13.8468 34.8173 13.6919 34.8597C13.5456 34.8597 13.3993 34.8597 13.253 34.8597V34.8936ZM21.2908 32.7217L21.4457 32.5944C21.4457 32.5944 21.4199 32.5689 21.4113 32.5605C21.3683 32.6114 21.3252 32.6623 21.2822 32.7132C21.2392 32.7301 21.1962 32.7386 21.1445 32.7556C21.1531 32.7726 21.1703 32.7895 21.1703 32.7895C21.2134 32.7641 21.2478 32.7386 21.2822 32.7132L21.2908 32.7217ZM11.4285 16.05C11.3769 16.0415 11.3252 16.0331 11.2736 16.0161C11.2392 16.1603 11.2048 16.3046 11.1703 16.4488C11.2306 16.4573 11.2908 16.4742 11.3511 16.4827C11.3769 16.3385 11.4027 16.1943 11.4285 16.0415V16.05ZM9.69874 24.3477C9.74177 24.3816 9.7934 24.4155 9.83643 24.4495C9.89668 24.3561 9.96552 24.2628 10.0258 24.161C10.0258 24.1525 9.95692 24.1016 9.91389 24.0677C9.84504 24.161 9.76759 24.2543 9.69874 24.3477ZM8.06363 34.7155C8.06363 34.7155 8.03781 34.7749 8.02921 34.8003C8.05502 34.8088 8.09805 34.8427 8.11526 34.8342C8.13248 34.8342 8.15829 34.7749 8.14969 34.7579C8.14969 34.7409 8.09805 34.7324 8.06363 34.7155ZM22.6419 31.1945C22.6419 31.1945 22.6419 31.2199 22.6419 31.2369H22.7968C22.7968 31.2369 22.7968 31.2115 22.7968 31.1945H22.6419ZM18.5111 32.6283C18.5111 32.6283 18.4595 32.5859 18.4337 32.5689C18.4337 32.5944 18.4165 32.6198 18.4079 32.6538C18.4079 32.6538 18.4423 32.6877 18.4423 32.6792C18.4681 32.6708 18.4853 32.6453 18.5025 32.6283H18.5111ZM18.864 32.3399C18.864 32.3399 18.864 32.3653 18.864 32.3738C18.8726 32.3738 18.8898 32.3738 18.8984 32.3738C18.8984 32.3568 18.8984 32.3399 18.8898 32.3229C18.8812 32.3229 18.864 32.3314 18.8554 32.3399H18.864Z" fill="white"/>
<path d="M7.728 15.7107C7.4354 15.6682 7.1428 15.6258 6.89323 15.5834C6.95347 15.7616 6.97069 15.8973 7.03953 15.9906C7.12559 16.0924 7.26328 16.1603 7.37516 16.2452C7.40098 16.2282 7.41819 16.2112 7.45261 16.1858C7.4268 16.2197 7.40958 16.2367 7.39237 16.2621C7.22886 16.4997 7.05674 16.7288 6.89323 16.9663L6.59203 17.2293C6.59203 17.136 6.59203 17.0342 6.59203 16.9324C6.58342 16.9069 6.57482 16.873 6.56621 16.8475C6.46294 16.7712 6.36828 16.7033 6.26501 16.627C5.8175 16.5761 5.71423 16.7542 5.87774 17.1615C5.74865 17.2633 5.63678 17.3566 5.5249 17.4414C5.74865 17.679 5.98101 17.9166 6.21337 18.1541C6.26501 18.1287 6.20476 18.1626 6.14452 18.1881C6.14452 18.222 6.15313 18.2475 6.17034 18.2814C6.23058 18.3408 6.29943 18.4087 6.36828 18.468L6.39409 18.4765C6.41991 18.5444 6.44573 18.6208 6.47155 18.6886C6.5576 19.1977 6.63506 19.7152 6.73833 20.2243C6.77275 20.36 6.85881 20.5128 6.96208 20.6146C7.12559 20.7758 7.30631 20.8521 7.40958 20.5382C7.40958 20.4958 7.40958 20.4534 7.40958 20.411C7.40098 20.3176 7.39237 20.2158 7.38377 20.1225C7.34934 20.0546 7.31492 19.9952 7.2805 19.9273C7.1428 19.588 7.01371 19.2401 6.88463 18.9007C6.8416 18.765 6.78996 18.6292 6.77275 18.485C6.75554 18.3662 6.77275 18.239 6.77275 18.1202C6.82439 18.1202 6.87602 18.1202 6.92766 18.1202C7.01371 18.3747 7.10838 18.6377 7.19444 18.8923C7.22026 18.9177 7.24607 18.9177 7.2805 18.9177C7.33213 18.9092 7.39237 18.9092 7.44401 18.9092C7.53007 18.9262 7.67637 18.9347 7.67637 18.9601C7.74521 19.588 7.79685 20.2243 7.84848 20.8606C7.8743 20.8861 7.90012 20.92 7.92594 20.9455C8.02921 21.0303 8.13248 21.1151 8.26156 21.2254C8.13248 21.3103 8.02921 21.3782 7.92594 21.4545C8.36483 21.9042 8.1669 22.3708 8.03781 22.829C8.03781 22.8459 8.03781 22.8629 8.03781 22.8799C8.25296 23.0241 8.4681 23.1599 8.68325 23.3041C8.81234 23.4907 8.94143 23.6689 9.07051 23.8556C9.13075 23.9998 9.18239 24.1356 9.25124 24.2968C8.92421 24.3561 8.59719 24.424 8.27877 24.4834L8.25296 24.5937C8.39065 24.6446 8.51974 24.6955 8.65743 24.7464C8.73489 24.8822 8.80373 25.0094 8.88118 25.1367C9.0533 25.1452 9.22542 25.1622 9.39754 25.1706C9.50081 25.1282 9.61268 25.0943 9.71595 25.0603C9.83643 24.9161 9.9311 24.7549 10.0774 24.6531C10.129 24.6192 10.3872 24.7464 10.3958 24.8143C10.4302 25.001 10.413 25.2215 10.3356 25.3912C10.2409 25.5864 10.0602 25.7306 9.91389 25.9003C9.7934 26.333 9.56965 25.8239 9.41475 25.9512C9.33729 25.9682 9.26845 25.9851 9.1996 26.0021C9.06191 26.1039 8.93282 26.1972 8.79513 26.2906C8.41647 26.6469 8.04642 27.0117 7.65055 27.385C7.84848 28.1062 8.52834 27.5293 8.98445 27.8093C8.79513 27.928 8.64022 28.0892 8.48532 28.0977C8.0206 28.1232 7.71939 28.3438 7.53007 28.734C7.50425 28.8019 7.48704 28.8698 7.46982 28.9377C7.21165 29.4637 6.95347 29.9812 6.68669 30.4988C6.58342 30.7109 6.549 30.8806 6.82439 30.9824C6.88463 31.0333 6.95347 31.0757 7.01371 31.1266C7.16001 31.3218 7.29771 31.5084 7.44401 31.7035C7.49564 31.7714 7.59891 31.8563 7.5817 31.9072C7.46982 32.255 7.34074 32.5944 7.21165 32.9423V34.0452C7.24607 34.1555 7.2891 34.2658 7.32353 34.3761C7.46122 34.3761 7.59891 34.3931 7.73661 34.3931C7.73661 34.444 7.73661 34.4949 7.73661 34.5458C7.53007 34.5628 7.32353 34.5712 7.11699 34.5882C7.09117 34.673 7.06535 34.7664 7.03953 34.8597C7.09977 34.9021 7.16862 34.9361 7.22886 34.9785C7.37516 34.9954 7.52146 34.9785 7.65915 35.0209C8.0206 35.1312 8.08945 35.3094 7.77964 35.5215C7.59891 35.4621 7.46122 35.4112 7.31492 35.3603C7.34074 35.5894 7.36655 35.8099 7.40098 36.0899C7.10838 35.9711 6.92766 35.776 7.00511 35.4027C6.92766 35.233 6.8502 35.0548 6.77275 34.8852C6.67809 34.8512 6.57482 34.8258 6.48015 34.7918C6.45433 34.8173 6.42852 34.8512 6.4027 34.8767C6.35967 35.1397 6.32525 35.4112 6.28222 35.6827C6.31664 35.759 6.34246 35.8269 6.37688 35.9033C6.39409 35.9457 6.4027 35.9796 6.41131 36.0136C6.47155 36.0899 6.53179 36.1748 6.59203 36.2596C6.76415 36.3529 6.93626 36.4378 7.10838 36.5226C7.24607 36.5566 7.38377 36.599 7.52146 36.6329C7.55588 36.7008 7.59031 36.7602 7.62473 36.8281C7.69358 37.0741 7.75382 37.3201 7.85709 37.6935C7.85709 37.7104 7.79685 37.8547 7.75382 37.9734C7.90872 38.1601 8.0206 38.3043 8.14108 38.4486C8.28738 38.4316 8.43368 38.4231 8.57998 38.4061C8.57137 38.3892 8.56277 38.3637 8.56277 38.3467C8.59719 38.3213 8.62301 38.2874 8.65743 38.2619C8.73489 38.0922 8.80373 37.914 8.88118 37.7528C8.99306 37.651 9.09633 37.5323 9.22542 37.4474C9.52662 37.2523 9.75898 37.0232 9.71595 36.6329V35.8269C10.2237 36.2935 10.1118 36.7517 10.1118 37.1844C10.2581 37.2353 10.3958 37.2862 10.5421 37.3371C10.6454 37.3032 10.7573 37.2608 10.8605 37.2268C10.895 37.1929 10.9294 37.1674 10.9638 37.142C11.0326 37.0486 11.1187 36.9553 11.1789 36.8535C11.3855 36.5057 11.2822 36.022 11.7297 35.759C12.2289 35.4706 12.685 35.1142 13.1669 34.7749C13.1755 34.7833 13.2099 34.8427 13.253 34.8936V34.8597C13.3993 34.8597 13.5456 34.8597 13.6919 34.8597C13.8468 34.8173 13.9931 34.7833 14.148 34.7409C14.148 34.5373 14.148 34.3422 14.148 34.1385C14.1308 34.1216 14.1049 34.0961 14.0791 34.0791C14.1049 34.0791 14.1394 34.0791 14.1652 34.0791C14.4492 34.0113 14.7332 33.9519 15.0516 33.8755C15.0774 33.9179 15.1462 34.0198 15.2237 34.1216C15.2323 34.164 15.2323 34.2064 15.2323 34.2488C15.3184 34.3506 15.3958 34.4609 15.4819 34.5628C15.8003 34.8088 15.5249 34.9191 15.3614 35.0548C15.37 35.2754 15.2237 35.5809 15.654 35.5724C15.7142 35.5045 15.7831 35.4366 15.8433 35.3688C15.9036 35.1736 15.9638 34.9785 16.0068 34.8258C16.2822 34.8767 16.4802 34.9191 16.6867 34.953C16.6867 34.9276 16.6867 34.9021 16.6867 34.8767C16.6867 34.5203 16.6867 34.164 16.6867 33.8077C16.5748 33.8416 16.4543 33.8501 16.3425 33.8925C15.7831 34.1216 15.611 33.9943 15.6626 33.4852C15.9294 33.3834 16.1531 33.2986 16.3769 33.2137C16.4802 33.1119 16.592 33.0016 16.6953 32.8913C16.7297 32.9762 16.7555 33.0525 16.79 33.1374H17.5559C17.4182 33.324 17.3235 33.4513 17.2289 33.5786C17.2375 33.8076 17.2547 34.0282 17.2547 34.2573C17.3063 34.3422 17.3579 34.4185 17.4096 34.4949C17.4698 34.6646 17.5387 34.8342 17.5989 35.0039C17.6505 34.987 17.7108 34.97 17.7624 34.953C17.7796 34.8767 17.7968 34.7918 17.8313 34.724C17.8657 34.6646 17.9259 34.6137 17.9604 34.5797C18.0808 34.7664 18.1755 35.0379 18.2874 35.0464C18.4509 35.0548 18.6316 34.8767 18.8037 34.7749C18.7951 34.707 18.7779 34.6391 18.7779 34.5712C18.7779 34.427 18.7607 34.2913 18.7607 34.1555C18.7263 34.1216 18.6919 34.0876 18.6574 34.0537C18.623 34.0537 18.5972 34.0537 18.5628 34.0537C18.4853 34.0791 18.4165 34.1131 18.339 34.147C18.1583 34.1216 17.9431 34.1301 17.8055 34.0367C17.7452 33.9943 17.8227 33.7483 17.8227 33.5955C17.8141 33.4089 17.7968 33.2222 17.7194 33.0356C17.8055 32.5689 18.1841 32.8829 18.4509 32.798C18.5542 32.6792 18.6488 32.552 18.7521 32.4332C18.7521 32.535 18.7521 32.6283 18.7521 32.7301C18.6746 33.078 18.907 33.2137 19.1738 33.3325C19.2426 33.3665 19.3115 33.4089 19.3803 33.4513C19.518 33.4089 19.6557 33.375 19.7934 33.3325C19.8623 33.2986 19.9311 33.2562 19.9999 33.2222C20.1032 33.2053 20.2065 33.1968 20.3098 33.1798C20.4561 33.1628 20.611 33.1374 20.7573 33.1204C20.7487 33.2901 20.7314 33.4598 20.7314 33.6295C20.9208 33.6719 21.1101 33.7143 21.2994 33.7567C21.3425 33.6549 21.3941 33.5446 21.4457 33.4343C21.4285 33.2307 21.4199 33.0186 21.4027 32.815C21.3855 32.7556 21.3339 32.6453 21.3511 32.6368C21.4888 32.552 21.6265 32.4841 21.7728 32.4077C21.7383 32.3484 21.6953 32.2805 21.6609 32.2126C21.6006 32.1278 21.549 32.0344 21.4888 31.9411C21.5748 31.8987 21.6695 31.8478 21.7555 31.8054C21.8932 31.7969 22.0309 31.7969 22.1686 31.7969C22.2116 31.6102 22.2461 31.4151 22.2891 31.2284L22.487 31.2963C22.7624 31.4236 23.0378 31.5508 23.3132 31.6866C23.4509 31.7545 23.5886 31.8223 23.7263 31.8902C23.8123 31.6442 23.9242 31.6357 24.0361 31.8732C24.2426 31.9157 24.4492 31.9496 24.6557 31.992C24.7676 31.9326 24.8881 31.8732 25.0086 31.8138C25.0516 31.9241 25.1032 32.0259 25.1462 32.1362V32.1532C25.3184 32.0684 25.4991 31.992 25.6712 31.9072C25.6884 31.8817 25.6884 31.8478 25.6884 31.8138C25.697 31.7714 25.7142 31.7205 25.7228 31.6781C25.7487 31.712 25.7659 31.7545 25.7917 31.7884C25.938 31.7375 26.1015 31.712 26.2306 31.6442C26.3339 31.5848 26.4027 31.4745 26.4888 31.3896C26.6351 31.2454 26.833 31.1181 26.9277 30.9484C27.0998 30.643 27.1256 30.1424 27.3752 30.0067C27.8141 29.7691 27.8571 29.4722 27.9087 29.0734C27.9345 28.8274 28.0808 28.5898 28.1755 28.3438C28.2788 28.2335 28.3734 28.1232 28.4767 28.0129C28.4853 27.9111 28.4939 27.8093 28.5025 27.7074C28.4165 27.5378 28.1067 27.3766 28.4853 27.1899C28.5542 27.0202 28.6488 26.859 28.6919 26.6893C28.8812 25.9173 29.0103 25.1367 29.2512 24.3901C29.3545 24.0846 29.5438 23.8471 29.2684 23.5501C29.0017 23.7962 28.7521 24.0337 28.4767 24.2798C28.2874 24.0846 28.1497 23.9319 27.969 23.7453C28.7263 23.5332 28.2185 23.1344 28.1411 22.795C27.7968 22.6932 27.5731 22.006 27.685 21.5309C27.8313 20.8861 27.9431 20.2243 28.0808 19.571C28.1067 19.4522 28.2013 19.3419 28.2702 19.2231C28.2702 19.0874 28.2702 18.9517 28.2702 18.8159C28.0464 18.8159 27.8657 18.7565 28.0464 18.502C28.2271 18.2475 28.4509 18.0184 28.6488 17.7808C28.6488 17.7469 28.6488 17.7129 28.6488 17.679C28.5714 17.6705 28.4681 17.679 28.4079 17.6366C27.8657 17.2718 27.7796 15.9228 28.2702 15.541C28.3304 15.2101 28.3218 14.9046 27.9776 14.718C27.401 14.9131 27.3838 14.3701 27.3838 14.1495C27.3924 13.2672 26.8588 12.6818 26.3855 12.0454C26.2392 11.8503 26.0499 11.6127 26.3855 11.4006C26.308 11.2394 26.2392 11.0782 26.1617 10.917C25.697 10.9001 25.6626 10.6031 25.7142 10.2468C25.7142 10.0941 25.697 9.94982 25.697 9.7971C25.654 9.82255 25.611 9.87346 25.5765 9.87346C25.1204 9.77165 24.4578 8.8808 24.475 8.40568C24.4061 8.27841 24.3287 8.15115 24.2598 8.02388C24.1824 8.38022 24.0189 8.22751 23.8984 8.06631C23.6832 7.76087 23.4595 7.46392 23.2874 7.13303C23.2444 7.03971 23.3734 6.86154 23.4251 6.72579C23.3218 6.61549 23.2099 6.51368 23.1067 6.41187C22.9948 6.40338 22.7968 6.41187 22.7968 6.38642C22.7538 6.19128 22.7452 5.98765 22.728 5.78403C22.685 5.60586 22.6419 5.43617 22.5989 5.26649C22.4956 5.26649 22.3407 5.30891 22.3149 5.26649C22.16 5.02893 22.0137 4.7744 21.8932 4.51987C21.7555 4.23141 21.6265 3.92597 21.5404 3.62054C21.506 3.51024 21.6006 3.36601 21.6351 3.23874C21.5404 3.00118 21.4371 2.75514 21.3425 2.51758C21.0585 2.59394 20.8777 2.7212 20.8691 3.05209C20.8691 3.17087 20.6712 3.28116 20.5593 3.39994C20.5077 3.33207 20.4474 3.27268 20.3872 3.21329C20.2151 3.38298 20.0344 3.55266 19.8623 3.72235C19.9913 3.93445 19.9655 4.16353 19.7073 4.16353C19.4406 4.16353 19.2254 4.63865 18.9328 4.23989C18.7263 4.23989 18.5197 4.23989 18.3132 4.23989C18.1067 4.20595 17.9001 4.17202 17.6936 4.13808C17.6247 4.15505 17.5559 4.1805 17.487 4.19747C17.4526 4.24837 17.4182 4.30776 17.3838 4.35867C17.0998 4.6641 16.833 4.55381 16.6609 4.06172C16.2478 4.05324 15.8433 4.04475 15.4302 4.05324C15.3184 4.05324 15.2151 4.12959 15.1032 4.17202C15.1032 4.23141 15.1032 4.2908 15.1032 4.35019C15.0086 4.452 14.9225 4.54532 14.8278 4.64714C14.7848 4.54532 14.7332 4.452 14.6901 4.35019C14.6901 4.30776 14.6901 4.25686 14.6901 4.21444C14.0877 3.92597 13.4939 4.18898 12.9001 4.21444C12.8313 4.62168 12.3493 4.87621 11.7383 4.82531H11.7211C11.79 5.46163 11.0413 6.44581 10.4388 6.5052C10.3958 6.60701 10.3528 6.70882 10.3098 6.81063C10.3356 6.92093 10.4216 7.0991 10.3958 7.11606C10.2409 7.20939 10.0688 7.2603 9.89668 7.32817C9.82783 7.62512 9.76759 7.93056 9.68153 8.22751C9.64711 8.32932 9.56965 8.41416 9.51802 8.50749C9.46638 8.4481 9.42335 8.39719 9.37172 8.34629C9.33729 8.34629 9.30287 8.34629 9.26845 8.34629C9.22542 8.58385 9.191 8.82141 9.15657 9.05897L9.17378 9.07594C9.50081 9.17775 9.98273 9.96679 9.94831 10.3995C9.84504 10.3146 9.76759 10.2553 9.69013 10.1959C9.62129 10.1959 9.55244 10.1959 9.48359 10.1959C9.23402 10.1195 8.98445 10.0347 8.72628 9.94982C8.52834 10.1619 9.15657 10.5607 8.57137 10.7049C8.57137 10.8067 8.57137 10.9085 8.57137 11.0104C8.63161 11.0104 8.70046 11.0104 8.7607 11.0104C8.84676 11.0528 8.98445 11.0697 9.02748 11.1376C9.38893 11.723 9.74177 12.3254 10.0774 12.9278C10.0946 12.9617 9.96552 13.0805 9.90528 13.1569C9.83643 13.1908 9.76759 13.2248 9.69874 13.2587C9.60408 13.386 9.50941 13.5217 9.48359 13.5556C9.85365 13.8356 10.1807 14.0986 10.5163 14.3532C10.2839 14.4974 10.0602 14.6416 9.82783 14.7859C9.82783 14.8537 9.82783 14.9216 9.82783 14.9895C10.413 14.981 10.4991 15.4731 10.6884 15.8549C10.697 15.8634 10.5335 15.9567 10.4561 16.0076C10.5163 16.067 10.5851 16.1349 10.6454 16.1943C10.7487 16.2621 10.8433 16.3215 10.9294 16.3809C10.7573 16.5336 10.5937 16.6779 10.4302 16.8221C10.413 16.9154 10.3872 17.0087 10.37 17.1021C10.3356 17.1021 10.3098 17.0851 10.2753 17.0851C10.2925 17.0003 10.3098 16.9239 10.327 16.8475C10.2323 16.6185 10.1807 16.3555 10.0344 16.1688C9.87086 15.9652 9.61268 15.8464 9.39754 15.6852C8.91561 15.524 8.43368 15.3713 7.88291 15.1846C7.84848 15.3119 7.78824 15.5155 7.728 15.7107ZM7.728 15.7107C7.77103 15.804 7.81406 15.8973 7.86569 15.9822C7.90012 15.9482 7.94315 15.9228 7.97757 15.8888C7.89151 15.8294 7.81406 15.77 7.728 15.7107ZM21.2822 32.7132C21.3252 32.6623 21.3683 32.6114 21.4113 32.5605C21.4199 32.5689 21.4457 32.5944 21.4457 32.5944L21.2908 32.7217L21.2822 32.7132ZM21.2822 32.7132C21.2392 32.7301 21.1962 32.7386 21.1445 32.7556C21.1531 32.7726 21.1703 32.7895 21.1703 32.7895C21.2134 32.7641 21.2478 32.7386 21.2822 32.7132ZM11.4285 16.05C11.3769 16.0415 11.3252 16.0331 11.2736 16.0161C11.2392 16.1603 11.2048 16.3046 11.1703 16.4488C11.2306 16.4573 11.2908 16.4742 11.3511 16.4827C11.3769 16.3385 11.4027 16.1943 11.4285 16.0415V16.05ZM9.69874 24.3477C9.74177 24.3816 9.7934 24.4155 9.83643 24.4495C9.89668 24.3561 9.96552 24.2628 10.0258 24.161C10.0258 24.1525 9.95692 24.1016 9.91389 24.0677C9.84504 24.161 9.76759 24.2543 9.69874 24.3477ZM8.06363 34.7155C8.06363 34.7155 8.03781 34.7749 8.02921 34.8003C8.05502 34.8088 8.09805 34.8427 8.11526 34.8342C8.13248 34.8342 8.15829 34.7749 8.14969 34.7579C8.14969 34.7409 8.09805 34.7324 8.06363 34.7155ZM22.6419 31.1945C22.6419 31.1945 22.6419 31.2199 22.6419 31.2369H22.7968C22.7968 31.2369 22.7968 31.2115 22.7968 31.1945H22.6419ZM18.5111 32.6283C18.5111 32.6283 18.4595 32.5859 18.4337 32.5689C18.4337 32.5944 18.4165 32.6198 18.4079 32.6538C18.4079 32.6538 18.4423 32.6877 18.4423 32.6792C18.4681 32.6708 18.4853 32.6453 18.5025 32.6283H18.5111ZM18.864 32.3399C18.864 32.3399 18.864 32.3653 18.864 32.3738C18.8726 32.3738 18.8898 32.3738 18.8984 32.3738C18.8984 32.3568 18.8984 32.3399 18.8898 32.3229C18.8812 32.3229 18.864 32.3314 18.8554 32.3399H18.864Z" stroke="#333333" stroke-width="1.3" stroke-linecap="round" stroke-linejoin="round"/>
</g>
<circle cx="28.8125" cy="23.4375" r="3.93751" fill="white"/>
<path d="M29 36C29 36 36.5 28.8921 36.5 23.5C36.5 19.3579 33.1421 16 29 16C24.8579 16 21.5 19.3579 21.5 23.5C21.5 28.8921 29 36 29 36ZM29 27.25C26.9289 27.25 25.25 25.5711 25.25 23.5C25.25 21.4289 26.9289 19.75 29 19.75C31.0711 19.75 32.75 21.4289 32.75 23.5C32.75 25.5711 31.0711 27.25 29 27.25Z" fill="white"/>
<path d="M34.2072 27.1747C33.5522 28.5019 32.6656 29.8251 31.7572 31.0126C30.8516 32.1963 29.943 33.221 29.2596 33.9506C29.1688 34.0475 29.0821 34.1391 29 34.2251C28.9179 34.1391 28.8312 34.0475 28.7404 33.9506C28.057 33.221 27.1483 32.1963 26.2428 31.0126C25.3344 29.8251 24.4478 28.5019 23.7928 27.1747C23.131 25.8338 22.75 24.5774 22.75 23.5C22.75 20.0482 25.5482 17.25 29 17.25C32.4518 17.25 35.25 20.0482 35.25 23.5C35.25 24.5774 34.869 25.8338 34.2072 27.1747ZM29 36C29 36 36.5 28.8921 36.5 23.5C36.5 19.3579 33.1421 16 29 16C24.8579 16 21.5 19.3579 21.5 23.5C21.5 28.8921 29 36 29 36Z" fill="#333333"/>
<path d="M29 26C27.6193 26 26.5 24.8807 26.5 23.5C26.5 22.1193 27.6193 21 29 21C30.3807 21 31.5 22.1193 31.5 23.5C31.5 24.8807 30.3807 26 29 26ZM29 27.25C31.0711 27.25 32.75 25.5711 32.75 23.5C32.75 21.4289 31.0711 19.75 29 19.75C26.9289 19.75 25.25 21.4289 25.25 23.5C25.25 25.5711 26.9289 27.25 29 27.25Z" fill="#333333"/>
<defs>
<clipPath id="clip0_597_3745">
<rect width="25" height="37" fill="white" transform="translate(5 2)"/>
</clipPath>
</defs>
</svg>
