<svg width="40" height="40" viewBox="0 0 40 40" fill="none" xmlns="http://www.w3.org/2000/svg">
<g clip-path="url(#clip0_597_3677)">
<path d="M3.94247 13.9572C3.87351 13.9121 3.81604 13.8782 3.74707 13.833C3.74707 13.7991 3.74707 13.7653 3.74707 13.7314C3.74707 12.2297 3.74707 12.241 5.20684 11.6652C5.51719 11.541 5.80454 11.3152 6.0804 11.1119C6.17236 11.0442 6.27581 10.8748 6.25282 10.7845C6.12638 10.2538 6.4827 10.0958 6.86201 10.028C7.44822 9.91511 7.75856 9.51993 8.0919 9.10217C8.25282 8.89893 8.52868 8.65053 8.75856 8.65053C9.47121 8.65053 9.98845 8.37955 10.5057 7.93921C10.862 7.64565 11.3218 7.44242 11.7586 7.26176C12.2758 7.04724 12.4827 6.74239 12.3563 6.20043C12.3333 6.08752 12.2528 5.9859 12.2528 5.87299C12.2528 5.68105 12.2988 5.48911 12.3333 5.28587C12.4827 5.3762 12.6206 5.48911 12.793 5.55685C12.977 5.63589 13.2068 5.74879 13.3678 5.69234C13.8275 5.54556 14.1494 5.22942 14.2183 4.71004C14.2528 4.46164 14.3907 4.22453 14.5402 3.82936C14.7356 4.13421 14.9425 4.31486 14.9885 4.52939C15.3333 5.97461 16.4712 6.09881 17.8505 5.85041C19.0229 5.63589 19.6321 4.90198 19.7356 3.75032C19.7356 3.6487 19.7701 3.55838 19.793 3.46805C20.0459 2.65511 20.5517 2.51962 21.1839 3.08416C21.6206 3.46805 22.0689 3.82936 22.5172 4.20195C22.8275 4.46164 23.1149 4.3939 23.3333 4.10034C23.6781 3.62612 24.1034 3.42289 24.7126 3.49063C24.9425 3.51321 25.2298 3.38901 25.4482 3.26482C25.977 2.98254 26.3907 3.039 26.7586 3.51321C27.2413 4.11163 27.2298 4.11163 28.2988 3.53579C28.4022 3.47934 28.5517 3.50192 28.6896 3.49063C28.6896 3.6487 28.7241 3.82936 28.6666 3.96485C28.6091 4.10034 28.4252 4.19066 28.3333 4.32615C28.1953 4.52939 28.0574 4.73262 27.977 4.95844C27.839 5.35362 27.977 5.55685 28.4137 5.56814C28.885 5.57943 29.3563 5.59072 29.816 5.55685C30.3218 5.51169 30.6781 5.71492 30.977 6.08752C31.4367 6.66335 31.954 6.83271 32.6551 6.57302C33.1034 6.41495 33.4597 6.42624 33.816 6.74239C34.3678 7.23918 34.9999 7.51016 35.7471 7.56662C35.9195 7.57791 36.0919 7.67952 36.2643 7.73598C36.0804 7.80372 35.8965 7.88276 35.7126 7.93921C35.0919 8.08599 34.7126 8.59408 34.4942 9.1812C34.3563 9.57638 34.0114 9.97156 33.6666 10.22C33.0459 10.6603 32.3448 10.9764 31.6896 11.349C31.1034 11.6878 31.0229 12.2636 31.0229 12.8394C31.0229 13.212 31.1264 13.5846 31.1953 13.9459C31.2988 14.4879 31.1034 14.8492 30.5632 15.075C30.4597 15.1202 30.3563 15.1766 30.2413 15.2218C29.4022 15.5944 28.8505 15.4137 28.4252 14.6121C28.1379 14.0588 27.7471 13.6524 27.0919 13.6637C26.862 13.6637 26.5862 13.754 26.4137 13.9008C25.6551 14.533 24.7356 14.6572 23.8045 14.725C23.7356 14.2959 23.6781 13.8782 23.5976 13.3362C23.1839 13.3927 22.7356 13.3927 22.3333 13.5282C22.1264 13.5959 22.2413 14.533 22.4367 14.8605C22.3333 14.9847 22.2413 15.1089 22.1379 15.2331C21.5402 15.8202 21.5057 16.2944 21.9655 16.9832C22.0804 17.1525 22.1839 17.5025 22.1034 17.5816C21.954 17.7283 21.6551 17.8187 21.4367 17.7848C21.0689 17.7283 20.7126 17.559 20.3448 17.4348C19.8735 17.2654 19.5402 17.4009 19.4712 17.8977C19.4137 18.259 19.2183 18.2929 18.931 18.3268C18.0459 18.4171 17.5287 18.9026 17.4597 19.772C17.4252 20.2914 17.1494 20.4607 16.7011 20.5059C16.0919 20.5623 15.7816 21.0253 16.1149 21.5108C16.3793 21.906 16.7471 22.2785 17.1609 22.5157C18.1839 23.1141 18.4137 23.577 18.1609 24.7399C17.9999 25.4738 17.9885 26.2303 17.839 26.9642C17.6781 27.7433 17.7011 28.5788 17.1609 29.2901C16.9425 29.5724 16.9885 30.1031 17.0459 30.4983C17.1034 30.8709 17.5976 30.9725 18.0574 30.7692C18.8505 30.4192 18.8735 30.4079 19.4022 31.0741C19.8045 31.5709 20.2988 31.7403 20.8965 31.6386C21.4367 31.5483 21.6551 31.8757 21.8045 32.2709C21.839 32.3612 21.7241 32.5871 21.6206 32.6209C21.3103 32.7451 20.8275 32.7113 20.6896 32.9258C20.4367 33.2984 20.3103 33.8065 20.2873 34.2581C20.1609 36.0759 19.0804 37.1937 17.5517 38.0067C17.5057 38.0292 17.4712 38.1083 17.4367 38.1647C16.6436 38.0744 15.816 38.5486 15.0459 38.0631C15.0229 38.0067 14.9999 37.9163 14.954 37.905C14.1839 37.6792 13.4252 37.4647 12.6551 37.2502C12.1953 36.4711 11.7356 35.692 11.2988 34.913C11.2413 34.8001 11.2643 34.6307 11.2873 34.4839C11.4252 33.671 11.4137 32.9145 10.6206 32.3725C10.4482 32.2596 10.2643 32.079 10.2068 31.887C10.0689 31.4128 9.71259 31.1644 9.33328 30.9386C8.93098 30.7015 8.90799 30.4079 9.12638 30.0466C9.51718 30.1144 9.63213 29.7982 9.6896 29.5498C9.78155 29.1434 9.77006 28.7143 9.79305 28.2966C9.81604 28.1046 9.75856 27.8562 9.86201 27.7207C10.2183 27.2578 10.0804 26.7497 10.1149 26.2529C10.1379 25.9706 10.0114 25.7787 9.71259 25.8464C9.44822 25.9142 9.19535 26.061 8.95397 26.1965C8.79305 26.2868 8.65512 26.411 8.50569 26.5126C8.40224 26.3545 8.22983 26.2078 8.20684 26.0497C8.13788 25.3835 7.64362 25.2142 7.11489 25.0787C6.75856 24.9883 6.39075 24.9319 6.02293 24.8641C5.94247 24.6383 5.87351 24.4125 5.79305 24.1754C6.41374 23.7802 6.4827 23.6109 6.32178 22.956C6.32178 22.8995 6.32178 22.8431 6.32178 22.7866C6.42523 22.8092 6.52868 22.8205 6.63213 22.8431C6.74707 22.956 6.86201 23.0802 6.99994 23.1818C7.37925 23.4754 7.93098 23.4641 8.16086 23.0125C8.29879 22.7528 8.25282 22.256 8.06891 22.0076C7.78155 21.5898 7.25282 21.6237 6.90799 21.9624C6.81604 22.0527 6.70109 22.1205 6.59765 22.2108C6.54017 22.1656 6.47121 22.1318 6.41374 22.0866C6.41374 21.8269 6.41374 21.5672 6.39075 21.3075C6.39075 21.2285 6.31029 21.1043 6.22983 21.0817C6.16086 21.0591 6.02293 21.1043 5.97696 21.172C5.94247 21.2285 5.98845 21.3414 5.98845 21.4317C5.98845 21.6237 5.98845 21.8043 5.98845 21.9963C5.8965 22.0753 5.79305 22.1431 5.70109 22.2221C5.37925 21.6688 4.83902 21.6801 4.29879 21.7253C4.17236 21.4882 4.04592 21.2624 3.90799 21.0253C3.91948 20.4946 3.60914 19.9639 3.95397 19.4446C4.0919 19.2865 4.2873 19.151 4.36776 18.9703C4.60914 18.451 4.79305 17.909 5.01144 17.3783C5.14937 17.0396 5.35627 17.0396 5.6896 17.1864C6.0804 17.3558 6.51719 17.4122 6.94247 17.5138C7.21833 16.3283 6.54017 15.7412 5.83902 15.1766C5.91948 14.9395 5.99994 14.7137 6.11489 14.3863C5.94247 14.4088 5.6781 14.3637 5.51719 14.4766C5.17236 14.7024 4.95397 14.5669 4.75856 14.3072C4.56316 14.0588 4.45971 13.7766 4.71259 13.5056C4.93098 13.2572 5.16086 13.0652 5.52868 13.2911C5.73558 13.4153 5.97696 13.4717 6.33328 13.6072C5.57466 12.5459 4.72408 12.5684 4.18385 13.5507C4.10339 13.6975 4.04592 13.8443 3.96546 13.9911L3.94247 13.9572Z" fill="#FAFAFA" stroke="#333333" stroke-width="1.3" stroke-linecap="round" stroke-linejoin="round"/>
</g>
<circle cx="26.8125" cy="25.4375" r="3.93751" fill="#FAFAFA"/>
<path d="M27 38C27 38 34.5 30.8921 34.5 25.5C34.5 21.3579 31.1421 18 27 18C22.8579 18 19.5 21.3579 19.5 25.5C19.5 30.8921 27 38 27 38ZM27 29.25C24.9289 29.25 23.25 27.5711 23.25 25.5C23.25 23.4289 24.9289 21.75 27 21.75C29.0711 21.75 30.75 23.4289 30.75 25.5C30.75 27.5711 29.0711 29.25 27 29.25Z" fill="#FAFAFA"/>
<path d="M32.2072 29.1747C31.5522 30.5019 30.6656 31.8251 29.7572 33.0126C28.8516 34.1963 27.943 35.221 27.2596 35.9506C27.1688 36.0475 27.0821 36.1391 27 36.2251C26.9179 36.1391 26.8312 36.0475 26.7404 35.9506C26.057 35.221 25.1483 34.1963 24.2428 33.0126C23.3344 31.8251 22.4478 30.5019 21.7928 29.1747C21.131 27.8338 20.75 26.5774 20.75 25.5C20.75 22.0482 23.5482 19.25 27 19.25C30.4518 19.25 33.25 22.0482 33.25 25.5C33.25 26.5774 32.869 27.8338 32.2072 29.1747ZM27 38C27 38 34.5 30.8921 34.5 25.5C34.5 21.3579 31.1421 18 27 18C22.8579 18 19.5 21.3579 19.5 25.5C19.5 30.8921 27 38 27 38Z" fill="#333333"/>
<path d="M27 28C25.6193 28 24.5 26.8807 24.5 25.5C24.5 24.1193 25.6193 23 27 23C28.3807 23 29.5 24.1193 29.5 25.5C29.5 26.8807 28.3807 28 27 28ZM27 29.25C29.0711 29.25 30.75 27.5711 30.75 25.5C30.75 23.4289 29.0711 21.75 27 21.75C24.9289 21.75 23.25 23.4289 23.25 25.5C23.25 27.5711 24.9289 29.25 27 29.25Z" fill="#333333"/>
<defs>
<clipPath id="clip0_597_3677">
<rect width="34" height="37" fill="white" transform="translate(3 2)"/>
</clipPath>
</defs>
</svg>
