<svg width="40" height="40" viewBox="0 0 40 40" fill="none" xmlns="http://www.w3.org/2000/svg">
<g clip-path="url(#clip0_597_3586)">
<path d="M15.5321 36.2552L15.3331 36.2793C14.268 35.2339 13.2029 34.2005 12.1378 33.1551C11.6345 31.0042 10.3235 29.6704 8.2518 29.1177C7.06963 28.5409 5.92257 27.5917 4.68187 27.4595C0.222387 26.9668 0.210683 27.063 1.31092 22.581C1.41626 22.1484 1.48649 21.7038 1.62695 21.2953C2.92617 17.6424 4.85744 14.5543 8.97749 14.0136C10.663 13.7853 12.4421 13.9174 14.1275 14.2178C18.3881 14.9508 20.5183 14.2299 22.1453 11.2379C22.4613 11.1898 22.7773 11.1538 23.0816 11.1057C25.6801 10.2526 27.9508 10.8534 29.7299 12.9562C30.9121 14.338 31.8718 15.9121 33.0423 17.306C33.8031 18.2072 34.7629 18.9401 35.6291 19.7572L35.6056 19.7332C36.4133 21.2232 38.7776 21.7639 38.169 24.1311C37.057 24.1911 35.9451 24.2632 34.8331 24.3233C34.7629 24.5997 34.681 24.864 34.6107 25.1404C35.2077 25.3687 35.8748 25.8974 36.3782 25.7652C37.8646 25.3927 38.4382 25.8013 38.1924 27.3634C37.2092 27.4355 36.226 27.4955 35.2428 27.5676C33.5573 28.4688 32.7848 29.5383 34.4937 31.2085C34.8214 31.5329 34.9385 32.0977 35.1609 32.5423C34.88 32.6264 34.5873 32.6985 34.3064 32.7826C29.4256 32.5062 24.7437 33.119 20.2608 35.354C18.8679 36.051 17.1122 35.9909 15.5321 36.2793V36.2552Z" fill="#FAFAFA" stroke="#333333" stroke-width="1.2" stroke-linecap="round" stroke-linejoin="round"/>
</g>
<ellipse cx="21.5" cy="12.5217" rx="3.5" ry="3.51" fill="#FAFAFA"/>
<path d="M21 25.0571C21 25.0571 28.5 17.929 28.5 12.5214C28.5 8.36746 25.1421 5 21 5C16.8579 5 13.5 8.36746 13.5 12.5214C13.5 17.929 21 25.0571 21 25.0571ZM21 16.2821C18.9289 16.2821 17.25 14.5984 17.25 12.5214C17.25 10.4444 18.9289 8.76071 21 8.76071C23.0711 8.76071 24.75 10.4444 24.75 12.5214C24.75 14.5984 23.0711 16.2821 21 16.2821Z" fill="#FAFAFA"/>
<path d="M26.2072 16.2066C25.5522 17.5376 24.6656 18.8646 23.7572 20.0554C22.8516 21.2425 21.943 22.2702 21.2596 23.0019C21.1688 23.0991 21.0821 23.191 21 23.2772C20.9179 23.191 20.8312 23.0991 20.7404 23.0019C20.057 22.2702 19.1484 21.2425 18.2428 20.0554C17.3344 18.8646 16.4478 17.5376 15.7928 16.2066C15.131 14.8619 14.75 13.6019 14.75 12.5214C14.75 9.05979 17.5482 6.25357 21 6.25357C24.4518 6.25357 27.25 9.05979 27.25 12.5214C27.25 13.6019 26.869 14.8619 26.2072 16.2066ZM21 25.0571C21 25.0571 28.5 17.929 28.5 12.5214C28.5 8.36746 25.1421 5 21 5C16.8579 5 13.5 8.36746 13.5 12.5214C13.5 17.929 21 25.0571 21 25.0571Z" fill="#333333"/>
<path d="M21 15.0286C19.6193 15.0286 18.5 13.9061 18.5 12.5214C18.5 11.1368 19.6193 10.0143 21 10.0143C22.3807 10.0143 23.5 11.1368 23.5 12.5214C23.5 13.9061 22.3807 15.0286 21 15.0286ZM21 16.2821C23.0711 16.2821 24.75 14.5984 24.75 12.5214C24.75 10.4444 23.0711 8.76071 21 8.76071C18.9289 8.76071 17.25 10.4444 17.25 12.5214C17.25 14.5984 18.9289 16.2821 21 16.2821Z" fill="#333333"/>
<defs>
<clipPath id="clip0_597_3586">
<rect width="39" height="27" fill="white" transform="translate(0 10)"/>
</clipPath>
</defs>
</svg>
