<svg width="40" height="40" viewBox="0 0 40 40" fill="none" xmlns="http://www.w3.org/2000/svg">
<g clip-path="url(#clip0_597_3687)">
<path d="M26.9842 5.98748C26.9842 5.98748 27.0533 6.06791 27.0993 6.11388C27.0533 6.56201 27.3181 6.41263 27.5368 6.3322C28.0434 6.17133 28.2276 6.28623 28.2391 6.8148C28.2391 7.01014 28.2391 7.19399 28.2391 7.38933C28.2391 8.21665 28.7917 8.84863 29.6206 8.90609C30.0465 8.92907 30.2653 9.0095 30.1962 9.48062C30.1962 9.56105 30.2538 9.68745 30.3344 9.7449C30.6567 9.9862 30.9675 10.262 31.3244 10.4458C31.9806 10.7676 31.8885 11.2731 31.428 11.6638C31.0712 11.9626 30.6452 12.1809 30.2423 12.4107C29.9084 12.5946 29.7012 12.8129 29.7357 13.238C29.7817 13.7321 29.7587 14.2377 29.7472 14.7433C29.7472 14.8697 29.7472 15.0306 29.6781 15.1225C29.114 15.9498 29.2752 16.306 30.1156 16.5358C30.1617 16.5358 30.1962 16.5703 30.2307 16.5933C30.461 16.6967 30.4725 16.8346 30.3459 17.0529C30.1962 17.3287 30.0696 17.6389 29.9544 17.9377C29.8048 18.3513 30.012 18.6386 30.438 18.6501C30.8524 18.6501 31.2669 18.6616 31.6813 18.6501C32.1764 18.6271 32.5678 18.811 32.9477 19.1442C33.3161 19.4544 33.7651 19.7302 34.2256 19.8681C34.7321 20.0175 35.2962 19.9945 35.8373 20.0634C35.987 20.0864 36.2288 20.1669 36.2403 20.2473C36.2518 20.3852 36.1482 20.5575 36.0561 20.6954C36.01 20.7759 35.8949 20.8218 35.8028 20.8678C35.0199 21.2355 34.8588 21.6836 35.2041 22.465C35.2962 22.6603 35.3768 22.8671 35.4804 23.0625C35.7683 23.6025 35.6301 24.0851 35.3078 24.5448C35.2041 24.6942 35.112 24.832 35.0084 24.9814C34.64 25.5559 34.3407 26.1305 34.6055 26.8544C34.7782 27.3485 34.6976 27.8311 34.3177 28.2447C34.191 28.3826 34.0874 28.5895 34.0529 28.7733C33.9723 29.187 33.9608 29.6236 33.8687 30.0373C33.6615 30.922 33.4427 31.0255 32.6369 30.7267C32.4527 30.6578 32.1879 30.6693 32.0267 30.7497C31.9461 30.7957 31.9576 31.0944 31.9806 31.2668C32.0037 31.4161 32.0842 31.5655 32.1418 31.7034C32.2454 32.0022 32.2454 32.232 31.877 32.3699C31.5547 32.4848 31.2438 32.6686 30.933 32.8295C30.4265 33.0938 29.9314 33.4155 29.4018 33.6108C28.9529 33.7717 28.5614 33.9441 28.3081 34.3577C28.1009 34.7024 27.8131 34.9323 27.3641 34.8978C26.9727 34.8633 26.8 35.1276 26.823 35.4378C26.8576 35.886 26.6273 36.0583 26.2704 36.2192C25.6488 36.4835 24.981 36.6444 24.5205 37.1959C24.463 37.2649 24.2903 37.2763 24.1982 37.2419C23.9679 37.1499 23.7377 37.035 23.5535 36.8857C22.5864 36.1273 21.6194 35.6332 20.3415 36.2192C19.6968 36.518 18.9255 36.5639 18.2117 36.7363C18.2462 36.5065 18.3153 36.2767 18.3038 36.0468C18.3038 35.9205 18.1541 35.8055 18.0735 35.6791C18.0045 35.7826 17.8778 35.886 17.8778 36.0009C17.8433 36.4375 17.6591 36.7248 17.2101 36.7937C17.0259 36.8167 16.8302 36.8167 16.6345 36.8282C16.197 36.495 15.6674 36.2307 15.3681 35.7941C15.1378 35.4608 14.9536 35.1965 14.5622 35.0701C14.401 35.0127 14.2629 34.8748 14.1132 34.7599C14.332 34.5761 14.4701 34.4611 14.6083 34.3462C14.6083 34.3003 14.5852 34.2543 14.5737 34.2084C14.3895 34.1969 14.1938 34.1854 14.0096 34.1624C13.7679 34.1279 13.5261 34.082 13.2843 34.0475C13.3879 33.7947 13.4916 33.5534 13.5837 33.2891C13.6412 33.1167 13.7218 32.9214 13.6758 32.7605C13.48 32.0022 13.4685 32.0022 14.1017 31.5655C14.5277 31.2783 14.6198 30.968 14.3895 30.6578C14.1017 30.2786 13.5491 30.1866 13.2498 30.5314C12.962 30.8646 12.7432 31.2668 12.5245 31.6574C12.3748 31.9217 12.2482 32.1745 11.7877 32.0596C11.8798 31.8413 11.9374 31.646 12.0295 31.4621C12.2827 30.922 12.2252 30.8071 11.6496 30.7957C11.5344 30.7957 11.4193 30.7497 11.3157 30.7267C11.2236 30.382 11.166 30.0258 11.0394 29.6811C10.9588 29.4627 10.8437 29.2099 10.671 29.0836C10.5674 29.0146 10.3026 29.187 10.1184 29.2789C9.99176 29.3478 9.88814 29.4627 9.76151 29.5317C9.35857 29.7845 8.99017 29.6926 8.71387 29.3019C8.86353 28.8193 9.0247 28.3367 9.17437 27.8426C9.301 27.4519 9.57731 27.3025 9.94571 27.4174C10.2565 27.5093 10.5559 27.6817 10.8552 27.8196C10.9012 28.0724 10.9588 28.3137 11.0164 28.5665C11.2812 28.6354 11.3963 28.5205 11.3963 28.2562C11.3963 28.1413 11.3963 28.0264 11.3963 27.9C11.3733 27.2566 11.5459 27.1531 12.1561 27.3255C12.5475 27.4404 12.962 27.4864 13.3649 27.4979C13.5031 27.4979 13.6412 27.3025 13.7794 27.1876C13.6758 27.0842 13.5721 26.9693 13.457 26.8889C13.3764 26.8314 13.2613 26.8314 13.1692 26.8199C12.6281 26.705 12.0755 26.5786 11.6496 26.0845C11.8222 25.8892 12.0064 25.6938 12.1791 25.4755C12.3058 25.3261 12.4094 25.1538 12.5245 24.9929C13.2037 24.6022 13.7333 24.0851 14.1017 23.3842C14.3895 22.8212 14.4356 22.419 14.0326 22.0743C13.5031 21.6147 13.5491 21.0516 13.6988 20.5001C13.929 19.6498 13.3649 18.9259 12.536 19.0638C11.6265 19.2131 10.9588 19.8107 10.3371 20.4541C10.2565 20.4541 10.176 20.4541 10.0954 20.4541C9.1168 18.9948 8.87504 17.3517 8.87504 15.6511C8.87504 15.4557 9.03622 15.2489 9.1168 15.0536C9.301 15.0306 9.50823 14.9272 9.64638 14.9961C10.176 15.2489 10.6249 15.088 11.0739 14.8237C11.2006 14.9386 11.3733 15.0306 11.4308 15.1685C11.5229 15.3868 11.5344 15.6281 11.5805 15.8694C11.5805 16.4209 11.615 16.9725 11.9489 17.4436C12.2022 17.9262 12.6166 18.179 13.1577 18.3169C13.1577 18.156 13.1232 17.9951 13.0195 17.9147C12.7432 17.6849 12.4324 17.4896 12.1331 17.2712C12.064 16.8001 11.9949 16.329 11.9143 15.8579C11.9143 15.8004 11.9143 15.743 11.9143 15.6855C11.9143 15.6281 11.9143 15.5706 11.9143 15.5132C11.9143 15.3293 11.9143 15.157 11.9143 14.9731L11.8798 14.8467C11.8798 14.3641 11.8798 13.8815 11.8913 13.3989C11.9489 13.3529 11.9949 13.2955 12.0525 13.2495C12.5245 12.9048 12.513 12.9163 12.1906 12.4337C12.0985 12.3073 11.9949 12.1464 11.9949 11.9971C11.9604 11.457 11.9143 10.9054 11.9949 10.3769C12.0295 10.1586 12.3173 9.96322 12.536 9.81384C12.6627 9.72192 12.8699 9.71043 13.0426 9.67596C13.8715 9.5036 14.6658 9.27379 15.1724 8.50392C15.5638 8.07876 15.8746 7.59616 15.9322 7.01014C15.9898 6.48157 16.174 6.04493 16.5999 5.7232C16.8993 5.5968 17.1986 5.48189 17.4864 5.34401C17.9814 5.11419 18.0966 4.8614 17.8893 4.35582C17.7282 3.95365 17.8203 3.65489 18.1196 3.37912C18.2577 3.25272 18.3844 3.11483 18.5225 2.97695C18.6952 2.88502 18.8679 2.7931 19.0291 2.70117C19.0866 2.78161 19.1672 2.85055 19.2133 2.94247C19.455 3.4021 19.5817 3.97663 19.9386 4.30985C20.4681 4.79246 21.0092 5.24059 21.4812 5.76916C21.6654 5.97599 21.9648 6.27474 22.3332 6.10239C22.69 5.93003 22.6555 5.57382 22.6325 5.25208C22.621 4.99929 22.5749 4.7465 22.5519 4.50519C22.5864 4.48221 22.6325 4.45923 22.667 4.43625C22.8052 4.56265 22.9779 4.67755 23.093 4.81544C23.4614 5.26357 23.8758 5.26357 24.1521 4.76948C24.3133 4.48221 24.509 4.4937 24.7278 4.57414C24.6587 4.88438 24.509 5.17165 24.5436 5.43593C24.6472 6.15984 25.5682 6.64244 26.2474 6.35518C26.5007 6.25176 26.7309 6.0794 26.9612 5.94152L26.9842 5.98748ZM23.0584 20.6035C23.1045 20.8103 22.5634 20.2358 22.5749 20.5001C22.1605 20.2818 21.8381 20.1324 21.5158 19.96C21.4006 19.9026 21.274 19.8336 21.1819 19.7417C21.1589 19.7187 21.274 19.5004 21.3201 19.5004C21.4467 19.5004 21.5733 19.5923 21.7 19.6268C21.8151 19.6613 21.9417 19.6613 22.0569 19.6843C22.0338 19.5694 22.0569 19.42 21.9878 19.328C21.7345 18.9489 21.3316 19.0867 20.9747 19.0867C20.9401 18.6156 20.9171 18.1445 20.8826 17.6734C20.9056 17.6045 20.9286 17.5355 20.9401 17.4551C21.0092 17.0184 20.4796 16.3175 20.1228 16.4439C19.6853 16.5933 19.2018 16.6163 18.8679 17.0529C18.4765 17.547 17.9584 17.9377 17.544 18.4088C17.0259 19.0178 16.4157 19.1442 15.6559 19.0063C15.322 18.9489 14.9536 19.1097 14.6083 19.1672C14.5047 19.2131 14.3205 19.2591 14.3205 19.3051C14.2859 20.0405 14.378 20.7414 14.9882 21.27C15.2184 21.5572 15.4487 21.833 15.6789 22.1203C15.9322 22.7408 16.5654 22.8786 17.0604 23.1889C17.3828 23.3957 17.6936 23.4991 17.9814 23.1199C18.039 23.0395 18.1887 23.028 18.2923 22.9821C18.4074 22.9361 18.534 22.8901 18.6492 22.8442C19.2018 22.9591 19.6507 23.4072 20.2724 23.2808C20.4796 23.2004 20.6869 23.051 20.8826 23.0625C21.6769 23.1084 22.0338 22.5454 22.4483 22.0283L22.8627 21.3619C23.1736 21.3619 23.4844 21.3619 23.7837 21.3389C23.9104 21.3389 24.037 21.2585 24.1636 21.2125C24.06 21.0861 23.9679 20.9252 23.8413 20.8563C23.7262 20.7988 23.542 20.8563 23.4153 20.8218C23.3002 20.7874 23.1966 20.6724 23.093 20.592" fill="#FAFAFA"/>
<path d="M23.0584 20.6035C23.1045 20.8103 22.5634 20.2358 22.5749 20.5001C22.1605 20.2818 21.8381 20.1324 21.5158 19.96C21.4006 19.9026 21.274 19.8336 21.1819 19.7417C21.1589 19.7187 21.274 19.5004 21.3201 19.5004C21.4467 19.5004 21.5733 19.5923 21.7 19.6268C21.8151 19.6613 21.9417 19.6613 22.0569 19.6843C22.0338 19.5694 22.0569 19.42 21.9878 19.328C21.7345 18.9489 21.3316 19.0867 20.9747 19.0867C20.9401 18.6156 20.9171 18.1445 20.8826 17.6734C20.9056 17.6045 20.9286 17.5355 20.9401 17.4551C21.0092 17.0184 20.4796 16.3175 20.1228 16.4439C19.6853 16.5933 19.2018 16.6163 18.8679 17.0529C18.4765 17.547 17.9584 17.9377 17.544 18.4088C17.0259 19.0178 16.4157 19.1442 15.6559 19.0063C15.322 18.9489 14.9536 19.1097 14.6083 19.1672C14.5047 19.2131 14.3205 19.2591 14.3205 19.3051C14.2859 20.0405 14.378 20.7414 14.9882 21.27C15.2184 21.5572 15.4487 21.833 15.6789 22.1203C15.9322 22.7408 16.5654 22.8786 17.0604 23.1889C17.3828 23.3957 17.6936 23.4991 17.9814 23.1199C18.039 23.0395 18.1887 23.028 18.2923 22.9821C18.4074 22.9361 18.534 22.8901 18.6492 22.8442C19.2018 22.9591 19.6507 23.4072 20.2724 23.2808C20.4796 23.2004 20.6869 23.051 20.8826 23.0625C21.6769 23.1084 22.0338 22.5454 22.4483 22.0283L22.8627 21.3619C23.1736 21.3619 23.4844 21.3619 23.7837 21.3389C23.9104 21.3389 24.037 21.2585 24.1636 21.2125C24.06 21.0861 23.9679 20.9252 23.8413 20.8563C23.7262 20.7988 23.542 20.8563 23.4153 20.8218C23.3002 20.7874 23.1966 20.6724 23.093 20.592M26.9842 5.98748C26.9842 5.98748 27.0533 6.06791 27.0993 6.11388C27.0533 6.56201 27.3181 6.41263 27.5368 6.3322C28.0434 6.17133 28.2276 6.28623 28.2391 6.8148C28.2391 7.01014 28.2391 7.19399 28.2391 7.38933C28.2391 8.21665 28.7917 8.84863 29.6206 8.90609C30.0465 8.92907 30.2653 9.0095 30.1962 9.48062C30.1962 9.56105 30.2538 9.68745 30.3343 9.7449C30.6567 9.9862 30.9675 10.262 31.3244 10.4458C31.9806 10.7676 31.8885 11.2731 31.428 11.6638C31.0712 11.9626 30.6452 12.1809 30.2422 12.4107C29.9084 12.5946 29.7012 12.8129 29.7357 13.238C29.7817 13.7321 29.7587 14.2377 29.7472 14.7433C29.7472 14.8697 29.7472 15.0306 29.6781 15.1225C29.114 15.9498 29.2752 16.306 30.1156 16.5358C30.1617 16.5358 30.1962 16.5703 30.2307 16.5933C30.461 16.6967 30.4725 16.8346 30.3459 17.0529C30.1962 17.3287 30.0696 17.6389 29.9544 17.9377C29.8048 18.3513 30.012 18.6386 30.438 18.6501C30.8524 18.6501 31.2669 18.6616 31.6813 18.6501C32.1764 18.6271 32.5678 18.811 32.9477 19.1442C33.3161 19.4544 33.7651 19.7302 34.2256 19.8681C34.7321 20.0175 35.2962 19.9945 35.8373 20.0634C35.987 20.0864 36.2288 20.1669 36.2403 20.2473C36.2518 20.3852 36.1482 20.5575 36.0561 20.6954C36.01 20.7759 35.8949 20.8218 35.8028 20.8678C35.0199 21.2355 34.8588 21.6836 35.2041 22.465C35.2962 22.6603 35.3768 22.8671 35.4804 23.0625C35.7683 23.6025 35.6301 24.0852 35.3078 24.5448C35.2041 24.6942 35.112 24.832 35.0084 24.9814C34.64 25.5559 34.3407 26.1305 34.6055 26.8544C34.7782 27.3485 34.6976 27.8311 34.3177 28.2447C34.191 28.3826 34.0874 28.5895 34.0529 28.7733C33.9723 29.187 33.9608 29.6236 33.8687 30.0373C33.6615 30.922 33.4427 31.0255 32.6369 30.7267C32.4527 30.6578 32.1879 30.6693 32.0267 30.7497C31.9461 30.7957 31.9576 31.0944 31.9806 31.2668C32.0037 31.4161 32.0843 31.5655 32.1418 31.7034C32.2454 32.0022 32.2454 32.232 31.877 32.3699C31.5547 32.4848 31.2438 32.6686 30.933 32.8295C30.4265 33.0938 29.9314 33.4155 29.4018 33.6108C28.9528 33.7717 28.5614 33.9441 28.3081 34.3577C28.1009 34.7024 27.8131 34.9323 27.3641 34.8978C26.9727 34.8633 26.8 35.1276 26.823 35.4378C26.8576 35.886 26.6273 36.0583 26.2704 36.2192C25.6488 36.4835 24.981 36.6444 24.5205 37.1959C24.463 37.2648 24.2903 37.2763 24.1982 37.2419C23.9679 37.1499 23.7377 37.035 23.5535 36.8857C22.5864 36.1273 21.6194 35.6332 20.3415 36.2192C19.6968 36.518 18.9255 36.5639 18.2117 36.7363C18.2462 36.5065 18.3153 36.2767 18.3038 36.0468C18.3038 35.9205 18.1541 35.8055 18.0735 35.6791C18.0045 35.7826 17.8778 35.886 17.8778 36.0009C17.8433 36.4375 17.6591 36.7248 17.2101 36.7937C17.0259 36.8167 16.8302 36.8167 16.6345 36.8282C16.197 36.495 15.6674 36.2307 15.3681 35.7941C15.1378 35.4608 14.9536 35.1965 14.5622 35.0701C14.401 35.0127 14.2629 34.8748 14.1132 34.7599C14.332 34.5761 14.4701 34.4611 14.6083 34.3462C14.6083 34.3003 14.5852 34.2543 14.5737 34.2084C14.3895 34.1969 14.1938 34.1854 14.0096 34.1624C13.7679 34.1279 13.5261 34.082 13.2843 34.0475C13.3879 33.7947 13.4916 33.5534 13.5837 33.2891C13.6412 33.1167 13.7218 32.9214 13.6758 32.7605C13.48 32.0022 13.4685 32.0022 14.1017 31.5655C14.5277 31.2783 14.6198 30.968 14.3895 30.6578C14.1017 30.2786 13.5491 30.1866 13.2498 30.5314C12.962 30.8646 12.7432 31.2668 12.5245 31.6574C12.3748 31.9217 12.2482 32.1745 11.7877 32.0596C11.8798 31.8413 11.9374 31.646 12.0295 31.4621C12.2827 30.922 12.2252 30.8071 11.6496 30.7956C11.5344 30.7956 11.4193 30.7497 11.3157 30.7267C11.2236 30.382 11.166 30.0258 11.0394 29.6811C10.9588 29.4627 10.8437 29.2099 10.671 29.0836C10.5674 29.0146 10.3026 29.187 10.1184 29.2789C9.99176 29.3478 9.88814 29.4627 9.76151 29.5317C9.35857 29.7845 8.99017 29.6926 8.71387 29.3019C8.86353 28.8193 9.0247 28.3367 9.17437 27.8426C9.301 27.4519 9.57731 27.3025 9.94571 27.4174C10.2565 27.5093 10.5559 27.6817 10.8552 27.8196C10.9012 28.0724 10.9588 28.3137 11.0164 28.5665C11.2812 28.6354 11.3963 28.5205 11.3963 28.2562C11.3963 28.1413 11.3963 28.0264 11.3963 27.9C11.3733 27.2566 11.5459 27.1531 12.1561 27.3255C12.5475 27.4404 12.962 27.4864 13.3649 27.4979C13.5031 27.4979 13.6412 27.3025 13.7794 27.1876C13.6758 27.0842 13.5721 26.9693 13.457 26.8889C13.3764 26.8314 13.2613 26.8314 13.1692 26.8199C12.6281 26.705 12.0755 26.5786 11.6496 26.0845C11.8222 25.8892 12.0064 25.6938 12.1791 25.4755C12.3058 25.3261 12.4094 25.1538 12.5245 24.9929C13.2037 24.6022 13.7333 24.0851 14.1017 23.3842C14.3895 22.8212 14.4356 22.419 14.0326 22.0743C13.5031 21.6147 13.5491 21.0516 13.6988 20.5001C13.929 19.6498 13.3649 18.9259 12.536 19.0638C11.6265 19.2131 10.9588 19.8107 10.3371 20.4541C10.2565 20.4541 10.176 20.4541 10.0954 20.4541C9.1168 18.9948 8.87504 17.3517 8.87504 15.6511C8.87504 15.4557 9.03622 15.2489 9.1168 15.0536C9.301 15.0306 9.50823 14.9272 9.64638 14.9961C10.176 15.2489 10.6249 15.088 11.0739 14.8237C11.2006 14.9386 11.3733 15.0306 11.4308 15.1685C11.5229 15.3868 11.5344 15.6281 11.5805 15.8694C11.5805 16.4209 11.615 16.9725 11.9489 17.4436C12.2022 17.9262 12.6166 18.179 13.1577 18.3169C13.1577 18.156 13.1232 17.9951 13.0195 17.9147C12.7432 17.6849 12.4324 17.4896 12.1331 17.2712C12.064 16.8001 11.9949 16.329 11.9143 15.8579C11.9143 15.8004 11.9143 15.743 11.9143 15.6855C11.9143 15.6281 11.9143 15.5706 11.9143 15.5132C11.9143 15.3293 11.9143 15.157 11.9143 14.9731L11.8798 14.8467C11.8798 14.3641 11.8798 13.8815 11.8913 13.3989C11.9489 13.3529 11.9949 13.2955 12.0525 13.2495C12.5245 12.9048 12.513 12.9163 12.1906 12.4337C12.0985 12.3073 11.9949 12.1464 11.9949 11.9971C11.9604 11.457 11.9143 10.9054 11.9949 10.3769C12.0295 10.1586 12.3173 9.96322 12.536 9.81384C12.6627 9.72192 12.8699 9.71043 13.0426 9.67596C13.8715 9.5036 14.6658 9.27379 15.1724 8.50392C15.5638 8.07877 15.8746 7.59616 15.9322 7.01014C15.9898 6.48157 16.174 6.04493 16.5999 5.7232C16.8993 5.5968 17.1986 5.48189 17.4864 5.34401C17.9814 5.11419 18.0966 4.8614 17.8893 4.35582C17.7282 3.95365 17.8203 3.65489 18.1196 3.37912C18.2577 3.25272 18.3844 3.11483 18.5225 2.97695C18.6952 2.88502 18.8679 2.7931 19.0291 2.70117C19.0866 2.78161 19.1672 2.85055 19.2133 2.94247C19.455 3.4021 19.5817 3.97663 19.9386 4.30985C20.4681 4.79246 21.0092 5.24059 21.4812 5.76916C21.6654 5.97599 21.9648 6.27474 22.3332 6.10238C22.69 5.93003 22.6555 5.57382 22.6325 5.25208C22.621 4.99929 22.5749 4.7465 22.5519 4.50519C22.5864 4.48221 22.6325 4.45923 22.667 4.43625C22.8052 4.56265 22.9779 4.67755 23.093 4.81544C23.4614 5.26357 23.8758 5.26357 24.1521 4.76948C24.3133 4.48221 24.509 4.4937 24.7278 4.57414C24.6587 4.88438 24.509 5.17165 24.5436 5.43593C24.6472 6.15984 25.5682 6.64244 26.2474 6.35518C26.5007 6.25176 26.7309 6.0794 26.9612 5.94152L26.9842 5.98748Z" stroke="#333333" stroke-width="1.3" stroke-linecap="round" stroke-linejoin="round"/>
</g>
<circle cx="10.8125" cy="17.4375" r="3.93751" fill="#FAFAFA"/>
<path d="M11 30C11 30 18.5 22.8921 18.5 17.5C18.5 13.3579 15.1421 10 11 10C6.85786 10 3.5 13.3579 3.5 17.5C3.5 22.8921 11 30 11 30ZM11 21.25C8.92893 21.25 7.25 19.5711 7.25 17.5C7.25 15.4289 8.92893 13.75 11 13.75C13.0711 13.75 14.75 15.4289 14.75 17.5C14.75 19.5711 13.0711 21.25 11 21.25Z" fill="#FAFAFA"/>
<path d="M16.2072 21.1747C15.5522 22.5019 14.6656 23.8251 13.7572 25.0126C12.8516 26.1963 11.943 27.221 11.2596 27.9506C11.1688 28.0475 11.0821 28.1391 11 28.2251C10.9179 28.1391 10.8312 28.0475 10.7404 27.9506C10.057 27.221 9.14835 26.1963 8.24281 25.0126C7.33443 23.8251 6.44781 22.5019 5.79279 21.1747C5.13101 19.8338 4.75 18.5774 4.75 17.5C4.75 14.0482 7.54822 11.25 11 11.25C14.4518 11.25 17.25 14.0482 17.25 17.5C17.25 18.5774 16.869 19.8338 16.2072 21.1747ZM11 30C11 30 18.5 22.8921 18.5 17.5C18.5 13.3579 15.1421 10 11 10C6.85786 10 3.5 13.3579 3.5 17.5C3.5 22.8921 11 30 11 30Z" fill="#333333"/>
<path d="M11 20C9.61929 20 8.5 18.8807 8.5 17.5C8.5 16.1193 9.61929 15 11 15C12.3807 15 13.5 16.1193 13.5 17.5C13.5 18.8807 12.3807 20 11 20ZM11 21.25C13.0711 21.25 14.75 19.5711 14.75 17.5C14.75 15.4289 13.0711 13.75 11 13.75C8.92893 13.75 7.25 15.4289 7.25 17.5C7.25 19.5711 8.92893 21.25 11 21.25Z" fill="#333333"/>
<defs>
<clipPath id="clip0_597_3687">
<rect width="29" height="36" fill="white" transform="translate(8 2)"/>
</clipPath>
</defs>
</svg>
