<svg width="40" height="40" viewBox="0 0 40 40" fill="none" xmlns="http://www.w3.org/2000/svg">
<g clip-path="url(#clip0_597_3647)">
<path d="M23.4889 4.85597C23.5644 4.85597 23.6476 4.85597 23.7232 4.85597C23.7459 5.01438 23.761 5.16524 23.7837 5.30856C24.2448 5.30856 24.7211 5.2105 25.1369 5.33119C25.787 5.51977 26.2784 5.21804 26.7773 4.94649C27.6996 4.4411 27.7903 4.44865 28.3195 5.35382C28.5916 5.82149 28.8108 5.91201 29.3173 5.79132C29.3778 5.64046 29.4232 5.51222 29.4761 5.38399C29.5215 5.35382 29.5744 5.32365 29.6197 5.28593C29.65 5.29347 29.6802 5.30102 29.7104 5.30856C29.6953 5.41416 29.6802 5.51977 29.6575 5.69326C29.839 5.56503 30.2321 5.5952 29.8465 5.27839C30.0204 5.02192 30.2018 4.773 30.3757 4.51653C30.5269 4.52408 30.6781 4.53916 30.8973 4.54671C30.9049 4.41093 30.92 4.25253 30.9351 4.07903C30.7612 4.07149 30.6554 4.06395 30.542 4.0564C30.7159 3.86028 30.8973 3.67171 31.0712 3.47559C31.0636 3.63399 31.0485 3.78485 31.0409 3.86783C31.3433 3.85274 31.6835 3.72451 31.8649 3.8452C32.2883 4.13184 32.5378 4.62968 32.5302 5.11244C32.5075 6.28916 32.6965 7.43571 32.8628 8.58981C32.8855 8.74067 32.9913 8.87645 33.0367 9.02731C33.1425 9.39692 33.1803 9.80425 33.5432 10.0532C33.5734 10.0758 33.5432 10.1739 33.5432 10.2417C33.5885 10.6415 33.6339 11.0413 33.6868 11.4411C33.7473 11.856 33.8229 12.2633 33.8909 12.6706C33.8985 12.731 33.8683 12.7913 33.8607 12.8517C33.8002 13.1986 33.5583 13.4023 33.3164 13.6361C32.9687 13.9756 32.757 14.3678 32.9006 14.9486C33.014 15.4088 32.7872 15.9292 32.9157 16.4346C32.9535 16.578 32.8175 16.7967 32.7192 16.9476C32.4924 17.287 32.5302 17.4002 32.8553 17.6189C32.9989 17.717 33.1576 17.9282 33.1501 18.079C33.0972 18.7353 32.946 19.3689 32.5831 19.9422C32.3941 20.2439 32.2429 20.606 32.19 20.953C32.1371 21.2698 32.1371 21.5413 31.8271 21.5564C31.6684 21.9411 31.5096 22.2579 31.4189 22.5898C31.3736 22.7558 31.3962 23.0952 31.4794 23.1254C31.8498 23.2611 31.8649 23.5402 31.8952 23.857C31.9103 24.0305 32.001 24.1965 32.0539 24.3624C32.1673 24.717 32.3563 25.0489 32.2656 25.4562C32.2354 25.592 32.3714 25.7655 32.4546 25.9163C32.4924 25.9917 32.6133 26.037 32.6209 26.1049C32.6738 26.5726 32.6058 27.0252 32.2958 27.3948C32.001 27.7493 32.0539 28.3678 32.447 28.5941C32.9535 28.8808 33.4676 29.1749 34.0875 29.0316C34.2538 28.9939 34.4201 28.8958 34.5562 28.7827C34.7678 28.5941 34.9493 28.3754 35.1458 28.1717C35.4558 28.4206 35.6448 28.6318 35.4255 28.9864C35.3046 29.1825 35.2214 29.4012 35.108 29.6049C34.9568 29.8689 34.7225 30.1103 34.662 30.3969C34.5411 30.9777 34.5184 31.5586 34.3521 32.1469C34.148 32.8409 34.1858 33.6027 34.0799 34.3269C34.027 34.6739 34.0799 35.1038 33.6793 35.2924C33.4071 35.4131 33.1123 35.4961 32.8175 35.5338C32.5756 35.5639 32.4697 35.6469 32.4773 35.8808C32.1371 35.9637 31.7667 35.9939 31.4567 36.1523C30.9729 36.3937 30.6327 36.2277 30.3152 35.8883C30.1716 35.7299 30.0582 35.5262 29.8919 35.4055C29.597 35.1792 29.2871 34.9228 28.9469 34.8172C28.6219 34.7191 28.2288 34.7417 27.8886 34.8096C27.4123 34.9002 26.8831 35.0661 26.7924 35.6092C26.6866 36.2353 26.4296 36.6879 25.8323 36.9292C25.2956 36.7935 24.7513 36.6728 24.2146 36.5295C23.7081 36.3937 23.2847 36.5445 22.9219 36.884C22.5741 37.2083 22.2642 37.6006 21.6972 37.4648C21.6519 37.4573 21.5989 37.495 21.546 37.495C21.0168 37.5025 20.4952 37.5176 19.9661 37.5176C19.7393 37.5176 19.5125 37.4799 19.2857 37.4874C19.0362 37.4874 18.7792 37.5478 18.5297 37.5327C18.2878 37.5252 18.1215 37.4346 17.9552 37.2008C17.6679 36.8086 17.3882 36.3409 16.8288 36.2353C16.9573 36.0316 17.0783 35.828 17.2068 35.6167C17.5999 35.6167 17.993 35.6243 18.3861 35.6243C18.5826 35.6243 18.7716 35.5941 18.7641 35.3226C18.9153 35.2622 19.074 35.217 19.2101 35.1264C19.5427 34.9077 19.8753 34.6814 20.1853 34.4249C20.3062 34.3269 20.3592 34.1458 20.4499 34.0025C20.4726 33.7989 20.5028 33.6027 20.5255 33.3991C20.5935 33.3086 20.6615 33.2256 20.722 33.1351C20.8052 33.0144 20.8883 32.8937 20.979 32.773C20.979 32.69 20.9866 32.607 20.9942 32.5241C21.1302 32.245 21.1 31.9734 20.911 31.732C20.9488 31.7019 20.9942 31.6717 21.032 31.6415C21.0924 31.551 21.1983 31.4605 21.2058 31.3624C21.3041 30.5025 20.979 29.7407 20.5255 29.0542C20.3516 28.7902 20.019 28.6243 19.7619 28.4206C19.8149 28.134 19.6032 28.0586 19.4066 28.0586C19.1874 28.0586 18.9001 28.0736 18.9228 28.4282C18.817 28.4508 18.7112 28.481 18.6053 28.5036L16.7003 29.3635C16.6549 29.1297 16.5189 28.8732 16.2996 29.1221C15.9897 29.454 15.7931 29.884 15.5437 30.2762C15.4529 30.2385 15.3622 30.1857 15.264 30.1555C14.7499 29.9896 14.198 30.2234 14.1678 30.7213C14.1376 31.1588 14.2434 31.6264 14.4173 32.0338C14.4929 32.2148 14.8709 32.2752 15.1128 32.3808C15.143 32.3958 15.2035 32.3808 15.2262 32.3958C15.2942 32.4562 15.3773 32.5316 15.4 32.607C15.4151 32.6599 15.3396 32.7655 15.2791 32.8032C15.1581 32.8711 15.022 32.9012 14.8935 32.954C14.6819 33.0521 14.44 33.1275 14.2661 33.2708C13.9108 33.5575 14.0015 33.912 14.1754 34.2816C14.44 34.8474 14.3492 35.0586 13.873 35.4206C13.7293 35.5262 13.6008 35.7676 13.616 35.9336C13.6462 36.2881 13.7747 36.6351 13.8579 36.982C13.873 37.0575 13.8881 37.1405 13.8957 37.2234C13.7747 37.2083 13.6462 37.2083 13.5328 37.1706C13.1851 37.0424 12.8449 36.8991 12.4971 36.7633H12.1872C12.0587 36.7633 11.9301 36.7708 11.8092 36.7784C11.7487 36.7935 11.6958 36.8086 11.6353 36.8236C11.4085 36.8312 11.1893 36.8387 10.9625 36.8463C10.9172 36.8161 10.8642 36.7859 10.8189 36.7558C10.7433 36.6803 10.6677 36.6049 10.5921 36.5219C10.5392 36.273 10.4863 36.0241 10.4333 35.7676C10.4333 35.5639 10.456 35.3603 10.4182 35.1642C10.3199 34.5683 10.2746 33.9045 9.64713 33.6103C9.23135 33.4142 9.0348 33.2256 9.1104 32.7504C9.15576 32.4864 9.01968 32.2525 8.67194 32.3204C8.44515 32.2148 8.2108 32.0111 7.99157 32.0338C7.48507 32.079 7.12221 31.7999 6.70643 31.6189C6.54768 31.551 6.40404 31.4379 6.24529 31.3775C5.78415 31.204 5.63296 30.8872 5.81439 30.4195C5.87487 30.2536 5.92779 30.0801 5.99582 29.8538C5.72368 29.9745 5.53468 30.065 5.34569 30.148C5.36081 29.801 5.45909 29.4389 5.12646 29.1749L5.63296 29.2353C5.63296 29.2353 5.5876 29.1749 5.55736 29.1448C5.71612 28.8581 5.85975 28.5564 6.04874 28.2849C6.19993 28.0586 6.43428 27.8926 6.58548 27.6663C6.70643 27.4853 6.75935 27.2514 6.8425 27.0402C6.91054 26.8668 6.9937 26.7008 6.71399 26.6254C6.66107 26.6103 6.63083 26.5198 6.58548 26.4594C6.66863 26.1351 6.75935 25.8107 6.8425 25.4864C7.02394 25.4109 7.24317 25.3808 7.37924 25.2601C7.68918 24.981 7.95377 24.6415 8.2486 24.3474C8.58878 24.0155 8.59634 23.7967 8.27884 23.4271C8.20324 23.3366 8.15032 23.2159 8.1352 23.1027C8.08229 22.5974 7.8177 22.4163 7.3112 22.4842C7.09953 22.5144 6.78959 22.5219 6.66107 22.4012C6.25285 22.0316 5.79171 21.8657 5.26254 21.7902C4.96015 21.745 4.92991 21.5489 5.14914 21.3377C5.45153 21.0435 5.67076 20.0176 5.51201 19.6405C5.37593 19.3312 5.3079 19.037 5.56492 18.7504C5.59516 18.7127 5.5876 18.6372 5.61028 18.4939C5.39105 18.6071 5.2323 18.6825 5.07355 18.7655C5.12646 18.6146 5.17938 18.4562 5.2323 18.3053C5.68588 18.3732 5.72368 18.343 5.71612 17.8829C5.71612 17.8226 5.75391 17.7622 5.74635 17.7019C5.69344 17.1965 5.79171 16.6458 5.42885 16.2159C5.22474 15.9745 4.96015 15.7859 4.74092 15.5672C4.52169 15.3484 4.4461 15.1372 4.74092 14.8958C4.86944 14.7902 4.94503 14.5866 4.99795 14.4055C5.13402 13.9605 5.38349 13.7644 5.82195 13.704C5.99582 13.6814 6.15458 13.5155 6.32089 13.4325C6.47208 13.3571 6.68375 13.1986 6.77447 13.2514C7.25828 13.5079 7.74966 13.3797 8.23348 13.3193C8.55854 13.2816 8.89873 12.648 8.74754 12.3614C8.61146 12.0898 8.6795 11.8409 8.85337 11.6976C9.17844 11.4336 9.54886 11.1997 9.9344 11.0413C10.4258 10.8377 10.9625 10.7321 11.469 10.5435C11.8772 10.3926 12.1116 10.4379 12.3384 10.7924C12.6559 11.3053 13.5706 11.5618 14.1376 11.3355C14.3417 11.2525 14.576 11.2073 14.7953 11.1922C15.2715 11.1696 15.4907 10.9734 15.4907 10.4907C15.4907 10.0079 15.6646 9.52515 15.4303 9.03485C15.3547 8.87645 15.4605 8.64261 15.4907 8.43895C15.4983 8.38615 15.5361 8.30317 15.5815 8.28054C16.035 8.06934 16.4886 7.86567 16.9422 7.66955C17.0178 7.63184 17.1463 7.64692 17.1917 7.59412C17.5092 7.20942 17.8796 6.84735 18.0988 6.40985C18.507 5.58765 18.9606 5.55748 19.5881 5.90446C19.9131 6.0855 20.2155 6.22882 20.6162 6.17602C21.1529 6.10813 21.6367 5.97235 21.6443 5.35382C21.6443 5.24067 21.7501 5.12753 21.7804 5.00684C21.8031 4.91632 21.8333 4.80317 21.7879 4.72774C21.6367 4.4411 21.7577 4.2299 21.9467 3.94326C22.181 4.21481 22.3851 4.44865 22.5817 4.69757C22.7404 4.90123 22.8614 5.18787 23.1335 4.79563C23.1713 4.74283 23.2999 4.75791 23.383 4.74283C23.4133 4.76546 23.4359 4.79563 23.4662 4.81826C23.4889 4.81826 23.5115 4.83334 23.5342 4.84089L23.4889 4.85597Z" fill="#FAFAFA" stroke="#333333" stroke-width="1.3" stroke-linecap="round" stroke-linejoin="round"/>
</g>
<circle cx="12.5" cy="10.5" r="3.5" fill="#FAFAFA"/>
<path d="M12 23C12 23 19.5 15.8921 19.5 10.5C19.5 6.35786 16.1421 3 12 3C7.85786 3 4.5 6.35786 4.5 10.5C4.5 15.8921 12 23 12 23ZM12 14.25C9.92893 14.25 8.25 12.5711 8.25 10.5C8.25 8.42893 9.92893 6.75 12 6.75C14.0711 6.75 15.75 8.42893 15.75 10.5C15.75 12.5711 14.0711 14.25 12 14.25Z" fill="#FAFAFA"/>
<path d="M17.2072 14.1747C16.5522 15.5019 15.6656 16.8251 14.7572 18.0126C13.8516 19.1963 12.943 20.221 12.2596 20.9506C12.1688 21.0475 12.0821 21.1391 12 21.2251C11.9179 21.1391 11.8312 21.0475 11.7404 20.9506C11.057 20.221 10.1483 19.1963 9.24281 18.0126C8.33443 16.8251 7.44781 15.5019 6.79279 14.1747C6.13101 12.8338 5.75 11.5774 5.75 10.5C5.75 7.04822 8.54822 4.25 12 4.25C15.4518 4.25 18.25 7.04822 18.25 10.5C18.25 11.5774 17.869 12.8338 17.2072 14.1747ZM12 23C12 23 19.5 15.8921 19.5 10.5C19.5 6.35786 16.1421 3 12 3C7.85786 3 4.5 6.35786 4.5 10.5C4.5 15.8921 12 23 12 23Z" fill="#333333"/>
<path d="M12 13C10.6193 13 9.5 11.8807 9.5 10.5C9.5 9.11929 10.6193 8 12 8C13.3807 8 14.5 9.11929 14.5 10.5C14.5 11.8807 13.3807 13 12 13ZM12 14.25C14.0711 14.25 15.75 12.5711 15.75 10.5C15.75 8.42893 14.0711 6.75 12 6.75C9.92893 6.75 8.25 8.42893 8.25 10.5C8.25 12.5711 9.92893 14.25 12 14.25Z" fill="#333333"/>
<defs>
<clipPath id="clip0_597_3647">
<rect width="32" height="35" fill="white" transform="translate(4 3)"/>
</clipPath>
</defs>
</svg>
