<svg width="40" height="40" viewBox="0 0 40 40" fill="none" xmlns="http://www.w3.org/2000/svg">
<g clip-path="url(#clip0_597_3576)">
<path d="M37.4125 16.6957C37.475 16.7957 37.55 16.9082 37.6125 17.0082C37.675 17.1082 37.7125 17.2332 37.8125 17.2832C38.7125 17.8332 38.7625 19.0332 38.3625 20.1832C38.175 20.2832 38 20.4457 37.8 20.4957C37.125 20.6457 36.7375 21.0707 36.55 21.7207C36.425 22.1332 36.0625 22.2082 35.675 22.1082C35.4875 22.0582 35.3125 21.8957 35.125 21.8582C34.9125 21.8207 34.6 21.7707 34.5 21.8832C34.375 22.0082 34.3875 22.3207 34.4375 22.5332C34.5 22.8082 34.65 23.0582 34.775 23.3207C35.0875 23.9707 35.3125 24.0957 36 23.9832C36.125 24.0707 36.275 24.2332 36.3875 24.2207C36.7 24.1707 37 24.0457 37.3125 23.9582C38.375 23.6957 38.6375 23.9707 38.425 25.0582C38.3125 25.6457 38.25 26.2582 38.1625 26.8457C38.125 26.9332 38.0875 27.0332 38.05 27.1207C37.825 27.1832 37.6125 27.2707 37.375 27.3207C37.0875 27.3832 36.8 27.3582 36.7375 27.0082C36.65 26.5082 36.3875 26.5582 36.05 26.7332C35.4375 26.9582 34.8625 26.9207 34.3875 26.4207C34.375 26.4082 34.325 26.4207 34.2875 26.4207C34.15 26.1582 34.075 25.7707 33.85 25.6457C33.2125 25.2832 32.9875 24.6957 32.725 24.0832C32.4625 23.4832 32.375 23.4707 31.7875 23.8082C31.625 23.8957 31.45 23.9707 31.275 23.9957C30.725 24.0707 30.1625 24.0957 29.6125 24.1707C29.425 24.1957 29.1625 24.2582 29.0875 24.3832C29.025 24.4957 29.15 24.7707 29.25 24.9082C29.5 25.2332 29.5875 25.5582 29.475 25.9707C29.3625 26.3707 29.375 26.8082 29.3375 27.2207C29.45 27.9582 30.125 28.2082 30.575 28.6457C31.0625 29.1082 31.5875 29.5457 32.0875 29.9957C32.125 30.0582 32.1625 30.1332 32.2 30.1957C32.2 30.2332 32.225 30.2582 32.2375 30.2957C32.2625 30.3457 32.2875 30.3957 32.3125 30.4332C32.2125 30.6332 32.1625 30.9082 32.0125 31.0207C31.7375 31.2207 31.3875 31.3332 31.075 31.4832C31.0375 31.4707 31.0125 31.4832 30.9875 31.5082C30.7875 31.5082 30.575 31.5082 30.375 31.5082C29.8625 31.4082 29.35 31.2707 28.8375 31.2207C28.6875 31.2082 28.5125 31.4207 28.3375 31.5332C28.5 31.6457 28.65 31.7457 28.8125 31.8582C28.9 31.9957 28.95 32.2207 29.0625 32.2582C29.5625 32.4457 29.7375 32.8707 29.8875 33.3207L29.65 33.7582C29.65 33.7582 29.5875 33.7582 29.55 33.7582C29.225 33.7582 28.875 33.6582 28.6 33.7582C28 33.9832 27.425 34.4207 26.9375 33.5832C26.85 33.4332 26.6125 33.3207 26.425 33.2832C26.2875 33.2582 26.1125 33.4082 25.9625 33.4707C25.6625 33.3957 25.3625 33.3082 25.05 33.2332C24.875 33.0957 24.7125 32.8957 24.5 32.8332C24.2875 32.7582 24.025 32.8332 23.7875 32.8207C23.325 32.8207 23.1125 32.5457 23.3 32.1332C23.4625 31.7832 23.775 31.4957 24.025 31.1832C24.4 30.7332 24.775 30.2957 25.15 29.8457C25.2875 29.6332 25.45 29.4207 25.55 29.1832C25.65 28.9582 25.65 28.6832 25.75 28.4582C25.875 28.1832 26.0625 27.9457 26.225 27.6832C26.4375 27.8957 26.65 28.0957 26.85 28.3082C26.9125 28.3707 26.95 28.4457 26.975 28.5207C27.1125 28.8457 27.35 28.7957 27.6 28.6832C27.9875 28.5082 28.25 27.6707 28.0625 27.2957C27.875 26.9207 27.3375 26.5832 27.1375 26.7707C26.675 27.2207 26.3375 26.9832 25.9125 26.7082C25.4375 26.3957 25.15 26.5957 24.9375 27.1332C24.8 27.4957 24.4625 27.7832 24.225 28.0957C23.9875 28.0207 23.7375 27.8707 23.5 27.8957C22.5625 27.9832 21.75 28.3582 20.975 28.8957C20.4875 29.2332 19.9375 29.4582 19.7375 30.0832C19.5625 30.6457 19.3375 31.1957 19.2125 31.7832C19.15 32.0957 18.9125 32.4832 19.2875 32.7832C19.2875 33.0332 19.3 33.2832 19.3125 33.5332C19.4375 33.8707 19.3125 34.0707 18.9875 34.2082C18.5 34.4332 18.075 34.7207 17.9875 35.3207C17.975 35.4332 17.7 35.5082 17.55 35.6082C17.3 35.6082 17.0375 35.5957 16.7875 35.6082C16.5625 35.6082 16.3125 35.7207 16.1125 35.6707C15.0875 35.4082 14.5875 34.7582 14.5625 33.6707C14.5625 32.8582 14.575 32.0332 14.575 31.2207C14.575 31.0457 14.5125 30.8832 14.475 30.7082C14.4125 30.7082 14.3625 30.7207 14.3 30.7332C14.3 30.8957 14.2625 31.0582 14.275 31.2082C14.3375 32.1082 14.2125 32.9582 13.8625 33.7957C13.4125 34.8457 12.75 35.6457 11.725 36.1582C11.425 36.3082 11.1625 36.5332 10.8875 36.7207C10.75 37.0832 10.6125 37.4457 10.4875 37.8207C10.4 38.0707 10.35 38.3207 10.275 38.5707C10.1 38.4457 9.93746 38.4582 9.69996 38.4957C9.18746 38.5832 8.63746 38.4957 8.11246 38.4582C8.11246 38.3082 8.11246 38.1707 8.11246 37.9457C7.84996 38.0332 7.67496 38.1207 7.48746 38.1457C7.28746 38.1832 6.98746 38.2332 6.89996 38.1457C6.79996 38.0332 6.84996 37.7457 6.87496 37.5457C6.88746 37.4207 6.96246 37.2957 7.01246 37.1707C7.21246 36.8707 7.42496 36.5707 7.66246 36.2207C7.48746 36.1707 7.36246 36.1082 7.24996 36.1082C6.83746 36.1457 6.63746 35.8582 6.54996 35.5582C6.43746 35.1957 6.38746 34.7957 6.39996 34.4082C6.42496 33.5332 6.17496 33.0082 5.39996 32.6457C5.03746 32.4707 4.62495 32.3832 4.27495 32.1957C3.74995 31.9207 3.16245 31.6582 2.74995 31.2457C2.33745 30.8332 2.09995 30.2457 1.78745 29.7457C1.78745 28.8957 1.77495 28.0457 1.76245 27.1832C1.81245 27.1332 1.87495 27.1082 1.91245 27.0457C2.16245 26.6332 2.53745 26.4457 2.99995 26.5707C3.44995 26.6957 3.47495 27.1332 3.57495 27.5082C3.78745 28.3207 4.03745 29.1207 4.26245 29.9332C4.49995 30.5582 4.84996 31.0457 5.62496 30.9457C5.77496 30.9332 5.91246 30.8457 6.06246 30.7957C5.98746 30.6582 5.93746 30.4707 5.82496 30.3832C5.37496 30.0457 4.91246 29.7457 4.44996 29.4332C4.19995 28.9957 4.12495 28.5707 4.52496 28.1707C4.69996 27.9957 4.88746 27.7832 5.11246 27.6707C5.31246 27.5707 5.56246 27.6082 5.78746 27.5707C6.18746 28.0082 6.56246 28.4707 6.98746 28.8832C7.12496 29.0082 7.39996 28.9957 7.61246 29.0582C7.64996 28.8332 7.77496 28.5707 7.69996 28.4082C7.38746 27.7957 6.91246 27.3457 6.18746 27.2957C5.72496 27.2207 5.24996 27.1707 4.79996 27.0707C4.66246 27.0332 4.47495 26.8332 4.46245 26.6957C4.46245 26.5332 4.56246 26.3082 4.69996 26.1832C4.86246 26.0457 5.08746 25.9582 5.29996 25.9332C5.96246 25.8707 6.61246 25.8832 7.27496 25.8207C7.54996 25.7957 7.79996 25.6582 8.13746 25.5582C7.67496 25.1832 7.01246 25.0707 6.44996 25.1707C5.99996 25.2457 5.53746 25.3082 5.08746 25.3332C4.39995 25.3582 4.19995 25.0457 4.44996 24.3957C4.57496 24.0707 4.81246 23.7457 4.83746 23.4082C4.91246 22.3082 4.89996 21.1957 4.92496 20.0957C4.89996 19.9957 4.87496 19.8957 4.84996 19.7957C4.84996 19.7707 4.84996 19.7332 4.84996 19.7082C4.82496 19.5582 4.83746 19.4082 4.78746 19.2582C4.62496 18.7582 4.74996 18.5707 5.23746 18.4457C5.37496 18.4082 5.46246 18.1832 5.57496 18.0457C6.07496 17.7582 6.21246 17.3707 6.03746 16.7707C5.82496 16.0457 5.43746 15.4332 4.86246 14.9332C4.78746 14.8082 4.72496 14.6957 4.64996 14.5707C4.46246 14.3457 4.28745 14.0957 4.07495 13.8957C3.73745 13.5957 3.26245 13.3957 3.02495 13.0332C2.51245 12.2332 2.58745 11.6457 3.37495 10.9332C4.07495 10.2957 4.62496 9.59571 4.74996 8.62071C4.87496 8.14571 5.01246 7.65821 5.13746 7.18321C5.27496 6.97071 5.41246 6.75821 5.54996 6.54571C5.67496 6.58321 5.81246 6.62071 5.92496 6.67071C6.87496 7.10821 7.21246 7.94571 7.36246 8.89571C7.48746 9.65821 7.84996 10.2207 8.61246 10.4957C9.13746 10.6832 10.0625 10.3332 10.1375 9.84571C10.2375 9.24571 10.4875 9.39571 10.825 9.59571C11.15 9.79571 12.7125 9.33321 12.875 9.00821C12.95 8.85821 12.9625 8.68321 13.0125 8.52071C13.05 8.39571 13.1 8.27071 13.15 8.14571C13.375 7.69571 13.675 7.27071 13.825 6.79571C14.2375 5.49571 15.675 5.09571 16.6375 6.02071C17.0375 6.40821 17.475 6.75821 17.9125 7.09571C18.375 7.45821 18.9125 7.30821 19.175 6.79571C19.325 6.50821 19.5 6.24571 19.7 5.99571C19.9375 5.69571 20.2375 5.70821 20.375 6.05821C20.475 6.32071 20.425 6.64571 20.4375 6.94571C20.4375 7.33321 20.225 7.83321 20.75 8.00821C21.3125 8.19571 21.2875 8.48321 21.075 8.93321C20.85 9.44571 21.1125 10.0582 21.6125 10.1832C22.175 10.3207 22.7375 10.3457 23.2875 10.0082C23.475 9.88321 23.9 9.80821 23.975 9.90821C24.45 10.4832 25.05 10.2707 25.6125 10.2582C26.6375 10.2582 27.7 10.4332 28.6625 9.88321C28.725 9.84571 28.85 9.84571 28.9125 9.88321C29.6375 10.2582 30.15 9.84571 30.625 9.39571C31.3625 8.72071 32.65 8.95821 33.1 9.85821C33.1875 10.0207 33.375 10.1332 33.5125 10.2707C33.6875 11.0457 33.8375 11.8207 34.05 12.5957C34.15 12.9832 34.3 13.3957 34.55 13.6957C35.325 14.6332 36.15 15.5207 36.975 16.4207C37.0375 16.4957 37.1875 16.4957 37.3 16.5332H37.3125C37.3375 16.5582 37.375 16.5957 37.4 16.6207L37.4125 16.6957ZM20.2 14.9582C20.1625 14.3582 19.925 14.0582 19.3875 13.9207C18.9 13.2582 18.45 12.5707 17.925 11.9457C17.5625 11.5332 16.7625 11.5832 16.4375 11.9457C16.3625 11.9457 16.2875 11.9707 16.2125 11.9707C16.1 12.0082 15.9625 12.0082 15.8875 12.0707C15.35 12.5582 14.725 12.4457 14.1 12.3457C13.8875 12.3082 13.6625 12.1832 13.4625 12.1957C11.9375 12.3457 10.7 14.0332 11.0125 15.5207C11.0375 15.6332 11.1875 15.7957 11.2875 15.8207C11.8375 15.9207 12.3875 15.9832 12.9375 16.0582C13.425 16.1832 13.7375 16.4957 13.85 16.9832C13.9125 17.4207 14.1625 17.6707 14.6 17.6957H14.65C14.9625 18.1457 15.45 17.9957 15.75 17.8207C16.6125 17.3332 17.5 17.1582 18.475 17.2207C18.6625 17.2332 18.8625 17.0082 19.0625 16.8832C19.125 16.8707 19.2 16.8457 19.2625 16.8332L19.9875 16.5582C20.125 16.4457 20.375 16.3332 20.3875 16.2082C20.4 15.8207 20.325 15.4332 20.2875 15.0457C20.2625 15.0082 20.225 14.9707 20.2 14.9332V14.9582Z" fill="#FAFAFA" stroke="#333333" stroke-width="1.2" stroke-linecap="round" stroke-linejoin="round"/>
</g>
<circle cx="30.3125" cy="9.53321" r="3.93751" fill="#FAFAFA"/>
<path d="M28.5 21.0957C28.5 21.0957 36 13.9878 36 8.5957C36 4.45357 32.6421 1.0957 28.5 1.0957C24.3579 1.0957 21 4.45357 21 8.5957C21 13.9878 28.5 21.0957 28.5 21.0957ZM28.5 12.3457C26.4289 12.3457 24.75 10.6668 24.75 8.5957C24.75 6.52464 26.4289 4.8457 28.5 4.8457C30.5711 4.8457 32.25 6.52464 32.25 8.5957C32.25 10.6668 30.5711 12.3457 28.5 12.3457Z" fill="#FAFAFA"/>
<path d="M33.7072 12.2704C33.0522 13.5976 32.1656 14.9208 31.2572 16.1083C30.3516 17.292 29.443 18.3167 28.7596 19.0463C28.6688 19.1432 28.5821 19.2348 28.5 19.3208C28.4179 19.2348 28.3312 19.1432 28.2404 19.0463C27.557 18.3167 26.6483 17.292 25.7428 16.1083C24.8344 14.9208 23.9478 13.5976 23.2928 12.2704C22.631 10.9295 22.25 9.67309 22.25 8.5957C22.25 5.14392 25.0482 2.3457 28.5 2.3457C31.9518 2.3457 34.75 5.14392 34.75 8.5957C34.75 9.67309 34.369 10.9295 33.7072 12.2704ZM28.5 21.0957C28.5 21.0957 36 13.9878 36 8.5957C36 4.45357 32.6421 1.0957 28.5 1.0957C24.3579 1.0957 21 4.45357 21 8.5957C21 13.9878 28.5 21.0957 28.5 21.0957Z" fill="#333333"/>
<path d="M28.5 11.0957C27.1193 11.0957 26 9.97641 26 8.5957C26 7.21499 27.1193 6.0957 28.5 6.0957C29.8807 6.0957 31 7.21499 31 8.5957C31 9.97641 29.8807 11.0957 28.5 11.0957ZM28.5 12.3457C30.5711 12.3457 32.25 10.6668 32.25 8.5957C32.25 6.52464 30.5711 4.8457 28.5 4.8457C26.4289 4.8457 24.75 6.52464 24.75 8.5957C24.75 10.6668 26.4289 12.3457 28.5 12.3457Z" fill="#333333"/>
<defs>
<clipPath id="clip0_597_3576">
<rect width="38.3376" height="34.5375" fill="white" transform="translate(1 4.8457)"/>
</clipPath>
</defs>
</svg>
