<svg width="40" height="40" viewBox="0 0 40 40" fill="none" xmlns="http://www.w3.org/2000/svg">
<g clip-path="url(#clip0_597_3667)">
<path d="M34.7389 12.8608C35.5386 13.3984 36.382 12.8722 37.2036 12.9752C37.346 13.1925 37.4774 13.4098 37.6198 13.6272C37.6637 13.7072 37.7075 13.7758 37.7403 13.8559C37.8827 14.0847 38.069 14.302 38.1785 14.5422C38.3866 15.0111 38.2881 15.4343 37.9266 15.8004C37.6527 16.0749 37.2693 16.3379 37.5541 16.8526C37.3789 17.0013 37.2145 17.2644 37.0283 17.2758C36.2396 17.3445 35.7357 17.9392 35.1333 18.351C34.3007 18.9229 33.4792 19.5177 32.6686 20.1239C32.5371 20.2268 32.4057 20.4098 32.3728 20.57C32.2523 21.1762 32.2633 21.8281 32.0661 22.4C31.7375 23.3837 31.2555 24.3216 30.9159 25.3053C30.5106 26.4719 30.3901 27.6615 31.2993 28.6451C31.6936 29.0683 31.6936 29.4801 31.5622 29.9605C31.3979 30.5667 31.5512 31.0585 32.088 31.3216C32.5371 31.5504 32.3838 31.8249 32.1099 31.9164C31.2993 32.168 31.3541 32.8085 31.4417 33.4262C31.5074 33.918 31.3102 34.2497 31.0473 34.5814C30.8721 34.7987 30.6749 35.0046 30.4887 35.2105C30.2477 35.2105 30.0067 35.2105 29.7657 35.2105C29.6452 34.9245 29.5357 34.6272 29.3933 34.3526C28.8237 33.2889 27.1258 33.1745 26.4137 34.1353C26.1289 34.5128 25.7674 34.6043 25.3183 34.5356C25.0883 34.5013 24.8473 34.5356 24.6173 34.57C24.0915 34.6729 23.5657 34.8445 23.0289 34.9017C22.4155 34.9703 21.7911 34.9474 21.1667 34.936C20.9695 34.936 20.7285 34.8902 20.5971 34.7644C20.2356 34.4327 19.8851 34.3984 19.4578 34.5928C19.1292 34.753 18.7896 34.8559 18.4501 34.9703C18.0338 35.119 17.7599 34.9131 17.519 34.5814C17.2889 34.284 17.3218 34.0209 17.519 33.7121C17.8147 33.2546 17.6614 32.7628 17.1794 32.6484C16.6755 32.5226 16.6317 32.2366 16.785 31.8134C16.8288 31.699 16.8727 31.5732 16.8946 31.4589C16.9932 31.0013 16.6536 30.3608 16.2702 30.235C15.832 30.1092 15.4377 30.3951 15.2734 30.9899C15.2514 31.07 15.2405 31.1615 15.1967 31.2415C14.9228 31.8134 14.4299 31.9278 13.9369 31.5275C13.3126 31.0242 12.732 30.4523 12.0747 30.0177C11.3846 29.5602 10.3221 29.9719 9.96058 30.7611C9.621 31.4817 9.30333 32.2023 8.96375 32.9343C8.72276 33.4605 8.52558 34.0324 7.81356 34.0324C7.70402 34.0324 7.56162 34.1353 7.47398 34.2383C7.23299 34.5356 7.05773 34.4899 6.79483 34.2383C6.25807 33.7121 5.90754 33.8379 5.74323 34.57C5.62273 35.1075 4.87785 35.4278 4.46159 35.1304C3.77148 34.6271 3.39904 33.9866 3.45381 33.0716C3.49762 32.0879 3.11423 31.619 2.21599 31.3102C2.00786 31.2415 1.86545 30.967 1.69019 30.7955C1.94213 30.2579 2.10644 29.6402 2.47889 29.1941C3.13614 28.4049 3.96865 27.833 4.99834 27.6043C5.51319 27.4899 5.98422 27.2154 6.47716 27.0209C6.51002 26.9866 6.54288 26.9523 6.57574 26.918C6.76196 26.735 7.02486 26.5863 6.75101 26.266C6.29094 26.1631 5.81991 25.9687 5.35983 25.9915C4.7464 26.0258 4.14392 26.3004 3.53049 26.3347C3.17995 26.3575 2.71988 26.2203 2.45698 25.9687C1.93118 25.4539 2.19408 24.6533 2.97182 24.4131C3.61812 24.2072 4.06724 23.8412 4.42873 23.2579C4.58209 23.0062 4.87785 22.8004 5.14075 22.6974C5.89658 22.4 6.44429 21.9539 6.56479 21.0618C6.57574 20.9474 6.65242 20.833 6.69624 20.7187C6.81673 20.5128 6.94818 20.2955 7.06868 20.0896C7.91215 19.8036 8.66799 20.0896 9.42383 20.4213C9.97153 20.6615 10.3111 20.57 10.6945 20.0209C10.4426 19.8951 10.2125 19.7807 9.97153 19.6664C9.36905 19.3804 8.67894 19.2317 8.35032 18.5569C8.27364 18.3968 8.27364 18.0193 8.32841 18.0079C8.6899 17.8935 9.08425 17.7219 9.44573 17.7791C10.6288 17.9736 11.2094 17.5961 11.4394 16.1435C10.9574 16.052 10.5959 16.2464 10.2454 16.5781C10.0592 16.7611 9.71959 17.0242 9.58814 16.9556C8.6899 16.4981 7.9012 16.8641 7.07964 17.1729C6.45525 17.1615 6.09376 16.9098 6.13758 16.1664C6.19235 15.3543 6.13758 15.3657 5.37079 15.217C5.0093 15.1484 4.65876 14.9883 4.31919 14.8167C4.11106 14.7138 4.01247 14.5079 4.27537 14.3134C5.14075 14.2562 6.00613 14.199 6.88246 14.1419C7.20013 14.1075 7.5178 14.0618 7.84643 14.0389C8.81039 13.9703 9.67577 13.6843 10.3221 12.8722C11.056 12.6321 11.5818 12.1402 11.9761 11.4654C12.0966 11.351 12.25 11.2709 12.3267 11.1337C12.6334 10.5961 12.9073 10.0471 13.203 9.5095C13.5864 9.25787 13.9808 9.00624 14.3642 8.74316C15.3281 8.74316 16.2921 8.74316 17.2451 8.74316C17.3437 8.74316 17.4423 8.74316 17.5518 8.7546C17.8804 9.04055 18.2529 9.28075 18.5267 9.61245C19.425 10.7219 21.0352 11.0422 22.2621 10.3445C22.5907 10.1615 22.9413 10.0242 23.2699 9.81833C23.6862 9.56669 23.9162 9.76114 23.9819 10.15C24.1024 10.8477 24.5187 11.3281 24.9897 11.7742C25.2635 12.0373 25.5374 12.3118 25.8441 12.5405C26.1837 12.8036 26.5452 13.0209 26.9067 13.2497C27.071 13.3298 27.2463 13.4213 27.4106 13.5013C27.7282 13.6386 28.035 13.7987 28.3636 13.9131C28.8894 14.0847 29.2947 13.65 29.7657 13.5585C30.6092 13.3755 31.1898 12.7693 31.858 12.2889C31.9565 12.266 32.0551 12.2432 32.1537 12.2203C32.3838 12.2317 32.6248 12.2203 32.8548 12.2775C33.4901 12.449 34.1255 12.6549 34.7608 12.8494L34.7389 12.8608Z" fill="#FAFAFA" stroke="#333333" stroke-width="1.3" stroke-linecap="round" stroke-linejoin="round"/>
</g>
<circle cx="23.8125" cy="11.4375" r="3.93751" fill="#FAFAFA"/>
<path d="M24 24C24 24 31.5 16.8921 31.5 11.5C31.5 7.35786 28.1421 4 24 4C19.8579 4 16.5 7.35786 16.5 11.5C16.5 16.8921 24 24 24 24ZM24 15.25C21.9289 15.25 20.25 13.5711 20.25 11.5C20.25 9.42893 21.9289 7.75 24 7.75C26.0711 7.75 27.75 9.42893 27.75 11.5C27.75 13.5711 26.0711 15.25 24 15.25Z" fill="#FAFAFA"/>
<path d="M29.2072 15.1747C28.5522 16.5019 27.6656 17.8251 26.7572 19.0126C25.8516 20.1963 24.943 21.221 24.2596 21.9506C24.1688 22.0475 24.0821 22.1391 24 22.2251C23.9179 22.1391 23.8312 22.0475 23.7404 21.9506C23.057 21.221 22.1483 20.1963 21.2428 19.0126C20.3344 17.8251 19.4478 16.5019 18.7928 15.1747C18.131 13.8338 17.75 12.5774 17.75 11.5C17.75 8.04822 20.5482 5.25 24 5.25C27.4518 5.25 30.25 8.04822 30.25 11.5C30.25 12.5774 29.869 13.8338 29.2072 15.1747ZM24 24C24 24 31.5 16.8921 31.5 11.5C31.5 7.35786 28.1421 4 24 4C19.8579 4 16.5 7.35786 16.5 11.5C16.5 16.8921 24 24 24 24Z" fill="#333333"/>
<path d="M24 14C22.6193 14 21.5 12.8807 21.5 11.5C21.5 10.1193 22.6193 9 24 9C25.3807 9 26.5 10.1193 26.5 11.5C26.5 12.8807 25.3807 14 24 14ZM24 15.25C26.0711 15.25 27.75 13.5711 27.75 11.5C27.75 9.42893 26.0711 7.75 24 7.75C21.9289 7.75 20.25 9.42893 20.25 11.5C20.25 13.5711 21.9289 15.25 24 15.25Z" fill="#333333"/>
<defs>
<clipPath id="clip0_597_3667">
<rect width="38" height="28" fill="white" transform="translate(1 8)"/>
</clipPath>
</defs>
</svg>
