<svg width="40" height="40" viewBox="0 0 40 40" fill="none" xmlns="http://www.w3.org/2000/svg">
<g clip-path="url(#clip0_597_3697)">
<path d="M36.915 31.1357C35.0787 33.44 33.469 35.9869 29.9514 35.7928C29.0571 35.7443 28.127 36.4477 27.2208 36.7994C25.0626 35.902 22.9163 34.9924 20.7342 34.1434C20.603 34.0949 20.2692 34.58 20.0307 34.8226C19.506 35.0288 18.9695 35.2228 18.4448 35.4411C17.9798 35.6352 17.3478 35.6958 17.0855 36.0475C15.8096 37.7575 14.4503 37.2845 13.0075 36.3628C10.8135 34.956 8.01135 34.3375 6.8905 31.5238C6.66394 29.5833 5.41193 28.4918 3.82604 27.6671C3.58756 26.7333 3.55179 25.6782 3.07483 24.902C1.75128 22.7553 1.40548 20.5602 2.18054 18.171C3.74257 17.892 5.38808 17.1644 6.85472 17.4312C10.2292 18.0254 12.9359 17.4676 15.2492 14.7145C17.0735 12.5436 19.3987 10.7972 21.1277 8.56569C22.642 6.60097 24.7883 6.47969 26.7319 5.83692C28.3536 5.29116 30.7026 8.44441 30.3807 10.4334C30.333 10.7608 30.2257 11.0762 30.1422 11.3915C29.9037 12.01 29.4744 12.6407 29.4744 13.2592C29.4864 15.0056 29.6891 16.7399 29.8083 18.4863C28.4371 21.0453 28.5086 21.5425 30.8219 23.1798C31.895 23.9317 33.0636 24.5381 34.1844 25.2173C34.1248 25.4235 34.0771 25.6418 34.0175 25.8479C33.2424 25.7994 32.4316 25.8843 31.6923 25.6781C30.8576 25.4477 30.0945 24.9626 29.3075 24.5988C29.1167 24.7807 28.9259 24.9626 28.7352 25.1445C29.2002 25.8358 29.5221 26.7697 30.1541 27.182C32.5747 28.7708 33.7671 28.5039 36.4619 26.0905C38.1074 27.6186 36.5215 29.4621 36.9269 31.1114L36.915 31.1357Z" fill="#FAFAFA" stroke="#333333" stroke-width="1.3" stroke-linecap="round" stroke-linejoin="round"/>
</g>
<circle cx="13.8125" cy="9.43751" r="3.93751" fill="#FAFAFA"/>
<path d="M14 22C14 22 21.5 14.8921 21.5 9.5C21.5 5.35786 18.1421 2 14 2C9.85786 2 6.5 5.35786 6.5 9.5C6.5 14.8921 14 22 14 22ZM14 13.25C11.9289 13.25 10.25 11.5711 10.25 9.5C10.25 7.42893 11.9289 5.75 14 5.75C16.0711 5.75 17.75 7.42893 17.75 9.5C17.75 11.5711 16.0711 13.25 14 13.25Z" fill="#FAFAFA"/>
<path d="M19.2072 13.1747C18.5522 14.5019 17.6656 15.8251 16.7572 17.0126C15.8516 18.1963 14.943 19.221 14.2596 19.9506C14.1688 20.0475 14.0821 20.1391 14 20.2251C13.9179 20.1391 13.8312 20.0475 13.7404 19.9506C13.057 19.221 12.1483 18.1963 11.2428 17.0126C10.3344 15.8251 9.44781 14.5019 8.79279 13.1747C8.13101 11.8338 7.75 10.5774 7.75 9.5C7.75 6.04822 10.5482 3.25 14 3.25C17.4518 3.25 20.25 6.04822 20.25 9.5C20.25 10.5774 19.869 11.8338 19.2072 13.1747ZM14 22C14 22 21.5 14.8921 21.5 9.5C21.5 5.35786 18.1421 2 14 2C9.85786 2 6.5 5.35786 6.5 9.5C6.5 14.8921 14 22 14 22Z" fill="#333333"/>
<path d="M14 12C12.6193 12 11.5 10.8807 11.5 9.5C11.5 8.11929 12.6193 7 14 7C15.3807 7 16.5 8.11929 16.5 9.5C16.5 10.8807 15.3807 12 14 12ZM14 13.25C16.0711 13.25 17.75 11.5711 17.75 9.5C17.75 7.42893 16.0711 5.75 14 5.75C11.9289 5.75 10.25 7.42893 10.25 9.5C10.25 11.5711 11.9289 13.25 14 13.25Z" fill="#333333"/>
<defs>
<clipPath id="clip0_597_3697">
<rect width="37" height="33" fill="white" transform="translate(1 5)"/>
</clipPath>
</defs>
</svg>
