<svg width="40" height="40" viewBox="0 0 40 40" fill="none" xmlns="http://www.w3.org/2000/svg">
<g clip-path="url(#clip0_597_3717)">
<path d="M6.81926 6.80725C6.7856 6.02316 6.75193 5.25043 6.72949 4.46634C7.23444 3.11407 8.1658 2.46634 9.50111 2.8527C10.814 3.2277 12.0595 3.87543 13.3275 4.43225C14.2028 4.81861 15.0443 5.29589 15.942 5.64816C17.0305 6.07998 16.5368 6.93225 16.548 7.65952C15.583 9.1368 16.4694 10.6709 16.4133 12.1823C16.0879 12.3982 15.7625 12.6027 15.4483 12.8186C14.1354 12.33 12.7216 12.7845 12.2839 13.8982C11.7341 15.2959 12.8787 15.6823 13.709 16.2277C13.9783 16.4095 14.3599 16.455 14.5618 16.6823C14.8087 16.9663 14.9321 17.3641 15.28 18.0345C13.9335 17.8186 12.9909 17.6595 11.8912 17.4891C12.7889 19.8868 14.5955 18.6936 15.8859 18.9891C16.144 18.3641 16.3572 17.8641 16.5929 17.3073C17.7374 18.2163 18.4668 19.9436 20.2285 18.6595C20.5315 19.0573 20.8232 19.4436 21.1262 19.8413C21.2945 20.3186 21.4628 20.8073 21.6424 21.2845C21.8556 21.9436 22.0688 22.5913 22.282 23.2504C21.3282 24.8527 20.3856 26.4436 19.4318 28.0459L19.4542 28.0232C16.3572 28.33 14.5731 29.7163 14.0008 32.6254C13.7764 33.7732 14.0457 35.0232 14.1018 36.2277C13.8325 36.2277 13.5519 36.2504 13.2826 36.2618C10.9262 34.3073 10.8701 31.5118 10.7467 28.8186C10.6681 27.3073 10.2529 26.1027 9.2318 25.0232C7.90771 23.6141 7.16712 21.8186 7.17834 19.955C7.20078 17.3982 7.82916 14.8413 7.82916 12.2959C7.82916 10.4663 7.20078 8.6368 6.85292 6.80725H6.81926Z" fill="#FAFAFA" stroke="#333333" stroke-width="1.3" stroke-linecap="round" stroke-linejoin="round"/>
</g>
<circle cx="25.8125" cy="22.4375" r="3.93751" fill="#FAFAFA"/>
<path d="M26 35C26 35 33.5 27.8921 33.5 22.5C33.5 18.3579 30.1421 15 26 15C21.8579 15 18.5 18.3579 18.5 22.5C18.5 27.8921 26 35 26 35ZM26 26.25C23.9289 26.25 22.25 24.5711 22.25 22.5C22.25 20.4289 23.9289 18.75 26 18.75C28.0711 18.75 29.75 20.4289 29.75 22.5C29.75 24.5711 28.0711 26.25 26 26.25Z" fill="#FAFAFA"/>
<path d="M31.2072 26.1747C30.5522 27.5019 29.6656 28.8251 28.7572 30.0126C27.8516 31.1963 26.943 32.221 26.2596 32.9506C26.1688 33.0475 26.0821 33.1391 26 33.2251C25.9179 33.1391 25.8312 33.0475 25.7404 32.9506C25.057 32.221 24.1483 31.1963 23.2428 30.0126C22.3344 28.8251 21.4478 27.5019 20.7928 26.1747C20.131 24.8338 19.75 23.5774 19.75 22.5C19.75 19.0482 22.5482 16.25 26 16.25C29.4518 16.25 32.25 19.0482 32.25 22.5C32.25 23.5774 31.869 24.8338 31.2072 26.1747ZM26 35C26 35 33.5 27.8921 33.5 22.5C33.5 18.3579 30.1421 15 26 15C21.8579 15 18.5 18.3579 18.5 22.5C18.5 27.8921 26 35 26 35Z" fill="#333333"/>
<path d="M26 25C24.6193 25 23.5 23.8807 23.5 22.5C23.5 21.1193 24.6193 20 26 20C27.3807 20 28.5 21.1193 28.5 22.5C28.5 23.8807 27.3807 25 26 25ZM26 26.25C28.0711 26.25 29.75 24.5711 29.75 22.5C29.75 20.4289 28.0711 18.75 26 18.75C23.9289 18.75 22.25 20.4289 22.25 22.5C22.25 24.5711 23.9289 26.25 26 26.25Z" fill="#333333"/>
<defs>
<clipPath id="clip0_597_3717">
<rect width="17" height="35" fill="white" transform="translate(6 2)"/>
</clipPath>
</defs>
</svg>
